<svg width="32" height="32" viewBox="0 0 32 32" fill="none" xmlns="http://www.w3.org/2000/svg">
<path d="M17.473 20.266V18.793C15.2889 20.9771 12.0381 21.1295 9.70163 18.793V20.3676L13.5619 23.6184L17.473 20.266Z" fill="#2258A8"/>
<path d="M9.1937 24.9404L12.4953 24.0769L8.99053 21.1309L7.77148 21.6388L9.1937 24.9404Z" fill="#2258A8"/>
<path d="M19.3016 21.588L18.1333 21.1309L14.6794 24.0769L17.8794 24.9404L19.3016 21.588Z" fill="#2258A8"/>
<path d="M15.5429 25.3966L13.6127 24.8887L11.6318 25.3966L12.9016 26.9712C13.0032 27.1236 13.054 27.3268 13.0032 27.4791L11.4286 31.9998H15.7461L14.2223 27.4791C14.1715 27.3268 14.1715 27.1236 14.3239 26.9712L15.5429 25.3966Z" fill="#2258A8"/>
<path d="M31.4413 5.43555H21.6889C21.7397 6.45142 21.5365 7.67046 21.1302 9.09268C22.654 9.95617 21.1302 14.4768 19.6572 14.7816C19.5048 15.3403 19.1492 16.407 18.4889 17.4736V20.1657L25.1937 22.7561C27.0222 23.4673 28.2413 25.245 28.2413 27.1752V28.3434H31.4413C31.746 28.3434 32 28.0895 32 27.7847V5.94348C32 5.68951 31.746 5.43555 31.4413 5.43555ZM25.0921 17.5244H24.0254C23.7207 17.5244 23.4667 17.2704 23.4667 16.9657C23.4667 16.6609 23.7207 16.407 24.0254 16.407H25.0921C25.3968 16.407 25.6508 16.6609 25.6508 16.9657C25.6 17.2704 25.3461 17.5244 25.0921 17.5244ZM25.0921 13.2578H24.0254C23.7207 13.2578 23.4667 13.0038 23.4667 12.699C23.4667 12.3943 23.7207 12.1403 24.0254 12.1403H25.0921C25.3968 12.1403 25.6508 12.3943 25.6508 12.699C25.6 13.0038 25.3461 13.2578 25.0921 13.2578ZM25.0921 8.9911H24.0254C23.7207 8.9911 23.4667 8.73713 23.4667 8.43237C23.4667 8.12761 23.7207 7.87364 24.0254 7.87364H25.0921C25.3968 7.87364 25.6508 8.12761 25.6508 8.43237C25.6 8.73713 25.3461 8.9911 25.0921 8.9911ZM29.8667 21.6895H27.7333C27.4286 21.6895 27.1746 21.4355 27.1746 21.1308C27.1746 20.826 27.4286 20.572 27.7333 20.572H29.8667C30.1714 20.572 30.4254 20.826 30.4254 21.1308C30.4254 21.4355 30.1714 21.6895 29.8667 21.6895ZM29.8667 17.5244H27.7333C27.4286 17.5244 27.1746 17.2704 27.1746 16.9657C27.1746 16.6609 27.4286 16.407 27.7333 16.407H29.8667C30.1714 16.407 30.4254 16.6609 30.4254 16.9657C30.4254 17.2704 30.1714 17.5244 29.8667 17.5244ZM29.8667 13.2578H27.7333C27.4286 13.2578 27.1746 13.0038 27.1746 12.699C27.1746 12.3943 27.4286 12.1403 27.7333 12.1403H29.8667C30.1714 12.1403 30.4254 12.3943 30.4254 12.699C30.4254 13.0038 30.1714 13.2578 29.8667 13.2578ZM29.8667 8.9911H27.7333C27.4286 8.9911 27.1746 8.73713 27.1746 8.43237C27.1746 8.12761 27.4286 7.87364 27.7333 7.87364H29.8667C30.1714 7.87364 30.4254 8.12761 30.4254 8.43237C30.4254 8.73713 30.1714 8.9911 29.8667 8.9911Z" fill="#2258A8"/>
<path d="M10.5143 25.7021L8.99052 26.1084C8.73655 26.1592 8.48258 26.0576 8.381 25.8037L6.8064 21.9941L2.38736 23.7211C0.965138 24.2291 6.10352e-05 25.6005 6.10352e-05 27.1243V32.0005H10.3112L11.8858 27.4291L10.5143 25.7021Z" fill="#2258A8"/>
<path d="M6.50163 10.0571C6.24766 10.4127 7.11115 13.7143 7.77147 13.7143C8.07623 13.6127 8.43179 13.8666 8.48258 14.1206C8.53337 14.3238 9.49845 19.3016 13.6127 19.4539C17.7778 19.3016 18.7429 14.3746 18.7429 14.1206C18.7937 13.8158 19.0984 13.6127 19.4032 13.7143C20.0635 13.7143 20.9778 10.4635 20.7238 10.0571C20.673 9.95554 20.5207 9.95554 20.5207 9.95554C20.1651 9.95554 19.9111 9.59998 20.0127 9.24443C21.0794 5.89205 20.673 4.31745 20.1143 3.55555C19.5048 2.74285 18.5905 2.69206 18.5397 2.69206C18.3365 2.69206 18.1334 2.53968 18.0318 2.3365C17.3207 0.507936 15.2889 0 13.2572 0C8.53337 0 5.73973 2.99682 7.21274 9.29522C7.26353 9.4476 7.21274 9.59998 7.11115 9.75236C6.90798 10.0063 6.65401 9.85395 6.50163 10.0571Z" fill="#2258A8"/>
<path d="M27.1746 32.0005V27.1243C27.1746 25.6005 26.2095 24.2291 24.8381 23.7211L20.2667 21.9434L18.6413 25.8037C18.5397 26.0576 18.2857 26.21 18.0318 26.1084L16.6604 25.7021L15.3397 27.4291L16.9143 32.0005H27.1746Z" fill="#2258A8"/>
</svg>
