<svg width="28" height="33" viewBox="0 0 28 33" fill="none" xmlns="http://www.w3.org/2000/svg">
<path d="M27.1647 13.3882H26.3907C26.3266 10.8665 25.5039 8.42271 24.03 6.37562C22.5561 4.32852 20.4994 2.77321 18.1282 1.91261H24.5414C24.6345 2.27319 24.8559 2.58744 25.1641 2.79646C25.4723 3.00547 25.8462 3.0949 26.2156 3.04797C26.5851 3.00105 26.9247 2.82099 27.1709 2.54156C27.4171 2.26212 27.5529 1.9025 27.5529 1.53009C27.5529 1.15767 27.4171 0.798046 27.1709 0.518612C26.9247 0.239179 26.5851 0.0591244 26.2156 0.0121989C25.8462 -0.0347265 25.4723 0.0546987 25.1641 0.263713C24.8559 0.472726 24.6345 0.786979 24.5414 1.14757H15.3065V0.382524C15.3065 0.281073 15.2662 0.183778 15.1945 0.112041C15.1228 0.0403049 15.0255 3.72539e-06 14.924 3.72539e-06H12.6289C12.5275 3.72539e-06 12.4302 0.0403049 12.3584 0.112041C12.2867 0.183778 12.2464 0.281073 12.2464 0.382524V1.14757H3.01158C2.91847 0.786979 2.69706 0.472726 2.38883 0.263713C2.0806 0.0546987 1.70673 -0.0347265 1.33728 0.0121989C0.967841 0.0591244 0.628194 0.239179 0.382008 0.518612C0.135822 0.798046 0 1.15767 0 1.53009C0 1.9025 0.135822 2.26212 0.382008 2.54156C0.628194 2.82099 0.967841 3.00105 1.33728 3.04797C1.70673 3.0949 2.0806 3.00547 2.38883 2.79646C2.69706 2.58744 2.91847 2.27319 3.01158 1.91261H9.42461C7.05345 2.77321 4.99675 4.32852 3.52284 6.37562C2.04893 8.42271 1.22626 10.8665 1.16217 13.3882H0.388252C0.286801 13.3882 0.189506 13.4285 0.117769 13.5003C0.0460326 13.572 0.00573137 13.6693 0.00573137 13.7707V16.0659C0.00573137 16.1673 0.0460326 16.2646 0.117769 16.3363C0.189506 16.4081 0.286801 16.4484 0.388252 16.4484H2.68337C2.78482 16.4484 2.88212 16.4081 2.95386 16.3363C3.02559 16.2646 3.06589 16.1673 3.06589 16.0659V13.7707C3.06589 13.6693 3.02559 13.572 2.95386 13.5003C2.88212 13.4285 2.78482 13.3882 2.68337 13.3882H1.92728C2.00404 10.5719 3.08702 7.87616 4.98001 5.78948C6.87301 3.70279 9.4508 2.36314 12.2464 2.01325V2.67765C12.2464 2.7791 12.2867 2.87639 12.3584 2.94813C12.4302 3.01987 12.5275 3.06017 12.6289 3.06017H14.924C15.0255 3.06017 15.1228 3.01987 15.1945 2.94813C15.2662 2.87639 15.3065 2.7791 15.3065 2.67765V2.01325C18.1021 2.36314 20.6799 3.70279 22.5729 5.78948C24.4659 7.87616 25.5489 10.5719 25.6256 13.3882H24.8696C24.7681 13.3882 24.6708 13.4285 24.5991 13.5003C24.5273 13.572 24.487 13.6693 24.487 13.7707V16.0659C24.487 16.1673 24.5273 16.2646 24.5991 16.3363C24.6708 16.4081 24.7681 16.4484 24.8696 16.4484H27.1647C27.2661 16.4484 27.3634 16.4081 27.4352 16.3363C27.5069 16.2646 27.5472 16.1673 27.5472 16.0659V13.7707C27.5472 13.6693 27.5069 13.572 27.4352 13.5003C27.3634 13.4285 27.2661 13.3882 27.1647 13.3882Z" fill="#2258A8"/>
<path d="M14.8835 4.80135C14.8449 4.72426 14.7815 4.66244 14.7035 4.62591C14.6254 4.58938 14.5373 4.58028 14.4534 4.60008C14.3695 4.61988 14.2948 4.66743 14.2413 4.73502C14.1879 4.80261 14.1588 4.88627 14.1588 4.97245V17.3699C14.1588 17.444 14.1803 17.5164 14.2207 17.5785C14.2611 17.6405 14.3186 17.6896 14.3863 17.7196C14.7088 17.8598 14.9732 18.1068 15.135 18.4192C15.2967 18.7315 15.3459 19.09 15.2743 19.4343C15.2027 19.7787 15.0146 20.0878 14.7418 20.3098C14.469 20.5317 14.128 20.6529 13.7763 20.6529C13.4246 20.6529 13.0836 20.5317 12.8107 20.3098C12.5379 20.0878 12.3498 19.7787 12.2782 19.4343C12.2066 19.09 12.2558 18.7315 12.4176 18.4192C12.5793 18.1068 12.8437 17.8598 13.1663 17.7196C13.2339 17.6896 13.2915 17.6405 13.3319 17.5785C13.3722 17.5164 13.3937 17.444 13.3937 17.3699V4.97245C13.3938 4.88627 13.3647 4.80261 13.3112 4.73502C13.2577 4.66743 13.183 4.61988 13.0991 4.60008C13.0152 4.58028 12.9271 4.58938 12.8491 4.62591C12.771 4.66244 12.7076 4.72426 12.6691 4.80135L5.40117 19.3371C5.37463 19.3903 5.36081 19.4488 5.36081 19.5082C5.36081 19.5676 5.37463 19.6262 5.40117 19.6793L8.18451 25.246H19.368L22.1514 19.6793C22.1779 19.6262 22.1917 19.5676 22.1917 19.5082C22.1917 19.4488 22.1779 19.3903 22.1514 19.3371L14.8835 4.80135Z" fill="#2258A8"/>
<path d="M20.2794 26.0117H7.27368C7.06242 26.0117 6.89116 26.183 6.89116 26.3942V28.6894C6.89116 28.9006 7.06242 29.0719 7.27368 29.0719H20.2794C20.4906 29.0719 20.6619 28.9006 20.6619 28.6894V26.3942C20.6619 26.183 20.4906 26.0117 20.2794 26.0117Z" fill="#2258A8"/>
<path d="M8.0385 32.5136C8.0385 32.615 8.0788 32.7123 8.15054 32.7841C8.22227 32.8558 8.31957 32.8961 8.42102 32.8961H19.1316C19.233 32.8961 19.3303 32.8558 19.4021 32.7841C19.4738 32.7123 19.5141 32.615 19.5141 32.5136V29.8359H8.0385V32.5136Z" fill="#2258A8"/>
</svg>
