<svg width="31" height="33" viewBox="0 0 31 33" fill="none" xmlns="http://www.w3.org/2000/svg">
<path d="M29.936 26.6175C28.7344 19.517 20.2138 17.1865 19.0849 16.9316C16.7181 18.7887 13.3681 18.7887 11.0013 16.9316C9.87245 17.1865 1.53387 19.4806 0.332242 26.6175C-0.286779 29.6034 -0.104714 32.1523 1.42463 32.6621C2.33496 32.9534 3.82789 32.5892 5.43007 32.0795C5.46648 32.0795 5.46648 32.0795 5.50289 32.043H5.5393C6.52246 31.7153 7.2143 30.805 7.2143 29.749V29.6398C7.2143 28.7295 6.70452 27.9284 5.97626 27.5278C7.25072 23.7409 10.8556 21.0463 15.1159 21.0463C19.3398 21.0463 22.9447 23.7773 24.292 27.5642C23.5637 28.0012 23.054 28.7659 23.054 29.6762V29.7854C23.054 30.8778 23.7822 31.7882 24.7654 32.1159C26.404 32.5892 27.8605 32.9898 28.7344 32.6985C30.3002 32.2251 30.555 29.6034 29.936 26.6175Z" fill="#2258A8"/>
<path d="M15.1523 16.6043C19.5163 16.6043 23.054 12.8873 23.054 8.30217C23.054 3.71701 19.5163 0 15.1523 0C10.7884 0 7.2507 3.71701 7.2507 8.30217C7.2507 12.8873 10.7884 16.6043 15.1523 16.6043Z" fill="#2258A8"/>
<path d="M17.6286 29.3123C17.8835 29.7493 18.0291 30.2227 18.0291 30.7688C18.0291 31.4243 17.8106 32.0069 17.4465 32.4803C19.4492 32.371 21.1242 32.1161 22.5443 31.7884C22.5807 31.4607 22.6172 31.0966 22.6172 30.7324C22.6172 28.9482 21.9981 27.346 20.9786 26.0352L17.6286 29.3123Z" fill="#2258A8"/>
<path d="M12.6034 29.313L9.28984 26.0723C8.23386 27.3467 7.61484 28.9853 7.61484 30.7695C7.61484 31.1337 7.65125 31.4978 7.68766 31.8255C9.10777 32.1532 10.7828 32.3717 12.7855 32.481C12.4214 32.0076 12.2029 31.3886 12.2029 30.7695C12.2029 30.2234 12.3485 29.7136 12.6034 29.313Z" fill="#2258A8"/>
<path d="M15.1161 29.3125C14.315 29.3125 13.6595 29.9679 13.6595 30.769C13.6595 31.5701 14.315 32.2255 15.1161 32.2255C15.9172 32.2255 16.5726 31.5701 16.5726 30.769C16.5726 29.9679 15.9172 29.3125 15.1161 29.3125Z" fill="#2258A8"/>
<path d="M15.1161 23.2676C13.2591 23.2676 11.5841 23.923 10.2732 25.0518L13.6232 28.2926C14.0601 28.0377 14.5699 27.892 15.1161 27.892C15.6623 27.892 16.2085 28.0377 16.6455 28.329L19.9955 25.0882C18.6482 23.9594 16.9732 23.2676 15.1161 23.2676Z" fill="#2258A8"/>
</svg>
