<svg width="34" height="34" viewBox="0 0 34 34" fill="none" xmlns="http://www.w3.org/2000/svg">
<path d="M3.29737 15.5697C3.12339 14.3255 3.12339 13.0634 3.29737 11.8191L4.78683 11.4472L6.00849 11.1434C6.28558 9.96179 6.75706 8.83331 7.40405 7.80319L6.75905 6.73298L5.9714 5.42664C6.73741 4.42572 7.6385 3.5336 8.64945 2.77523L9.96883 3.55518L11.0478 4.19387C12.0884 3.55354 13.2281 3.08671 14.4214 2.81202L14.7299 1.60243L15.1052 0.127749C16.362 -0.042583 17.6364 -0.042583 18.8933 0.127749L19.2688 1.60243L19.5774 2.81202C20.7698 3.08758 21.9088 3.55435 22.9491 4.19387L24.0301 3.55518L25.3496 2.77523C26.3593 3.53497 27.2602 4.42692 28.0276 5.42664L27.2399 6.73305L26.5948 7.80325C27.2419 8.83336 27.7134 9.96184 27.9905 11.1435L29.2121 11.4473L30.7016 11.8192C30.8745 13.0635 30.8745 14.3255 30.7016 15.5698L29.2121 15.9417L27.9905 16.2475C27.713 17.429 27.2416 18.5574 26.5948 19.5877L27.2399 20.6561L27.9924 21.9024L27.9143 22.1095C27.6738 22.4153 27.4189 22.7121 27.1497 22.9997H26.3818L26.4991 21.076H24.5054C24.1581 20.4853 23.7335 19.9425 23.2426 19.4619C24.3775 18.2576 25.1324 16.7512 25.4145 15.1279C25.6966 13.5045 25.4936 11.835 24.8304 10.3243C24.1673 8.81364 23.0729 7.52769 21.6817 6.62446C20.2905 5.72122 18.6631 5.24004 16.9995 5.24004C15.3359 5.24004 13.7085 5.72122 12.3173 6.62446C10.9261 7.52769 9.83168 8.81364 9.16854 10.3243C8.50539 11.835 8.30238 13.5045 8.58446 15.1279C8.86654 16.7512 9.62142 18.2576 10.7563 19.4619C10.2655 19.9425 9.84089 20.4853 9.49365 21.076H7.49996L7.6172 22.9997H6.84906C6.57931 22.7114 6.32445 22.4146 6.08448 22.1095L6.00695 21.9022L6.75946 20.6559L7.40446 19.5875C6.75777 18.5572 6.28631 17.4288 6.00889 16.2473L4.78723 15.9415L3.29737 15.5697ZM21.1531 12.3029C21.1531 11.2122 20.7155 10.1662 19.9365 9.39489C19.1575 8.62363 18.1011 8.19033 16.9994 8.19033C15.8978 8.19033 14.8413 8.62363 14.0624 9.39489C13.2834 10.1662 12.8458 11.2122 12.8458 12.3029C12.8459 19.7927 21.1531 19.7927 21.1531 12.3029H21.1531ZM10.6352 21.0758H23.3639C22.2946 19.5643 20.684 18.5637 18.6707 18.5637H15.3283C13.313 18.5637 11.7044 19.5643 10.6352 21.0758ZM29.5112 21.49C29.4133 21.49 29.3178 21.5196 29.2374 21.575C29.1571 21.6304 29.0958 21.7088 29.0618 21.7996L28.2506 23.9556H26.3251L26.2665 24.9118H28.5827C28.6886 24.9121 28.7916 24.8777 28.8757 24.814C28.9598 24.7504 29.0203 24.6611 29.0479 24.5599L29.8454 22.4446H31.9271C32.0362 22.6637 32.2169 22.8398 32.4398 22.9443C32.6628 23.0488 32.915 23.0755 33.1552 23.0201C33.3955 22.9647 33.6097 22.8304 33.7631 22.6391C33.9165 22.4478 34 22.2107 34 21.9665C34 21.7222 33.9165 21.4851 33.7631 21.2938C33.6097 21.1025 33.3955 20.9682 33.1552 20.9128C32.915 20.8574 32.6628 20.8841 32.4398 20.9886C32.2169 21.0931 32.0362 21.2692 31.9271 21.4883H29.5112V21.49ZM31.9721 25.8406C31.7681 25.8405 31.5683 25.897 31.3952 26.0038C31.2221 26.1105 31.0827 26.2632 30.9929 26.4444H26.1726L26.114 27.4007H30.9928C31.079 27.5736 31.2103 27.7206 31.3731 27.8265C31.5359 27.9323 31.7244 27.993 31.919 28.0025C32.1135 28.0119 32.3071 27.9697 32.4796 27.8801C32.6521 27.7906 32.7973 27.657 32.9001 27.4932C33.0029 27.3294 33.0596 27.1414 33.0644 26.9486C33.0691 26.7558 33.0217 26.5652 32.927 26.3967C32.8323 26.2281 32.6939 26.0877 32.5259 25.99C32.358 25.8922 32.1668 25.8407 31.972 25.8408L31.9721 25.8406ZM7.98856 34H26.0104V31.8111H7.98856V34ZM32.9064 30.797C32.7025 30.7969 32.5026 30.8534 32.3295 30.9602C32.1564 31.0669 32.017 31.2196 31.9272 31.4009H29.8454L29.0479 29.2836C29.0199 29.1827 28.9592 29.0938 28.8752 29.0305C28.7911 28.9672 28.6884 28.933 28.5827 28.9333H26.0203L25.9616 29.8895H28.2505L29.0617 32.0436C29.0956 32.1347 29.1568 32.2134 29.2371 32.2691C29.3174 32.3247 29.413 32.3548 29.511 32.3552H31.927C32.0129 32.5283 32.144 32.6755 32.3068 32.7815C32.4695 32.8876 32.6579 32.9486 32.8525 32.9582C33.047 32.9678 33.2407 32.9258 33.4133 32.8363C33.5859 32.7469 33.7312 32.6134 33.8341 32.4496C33.937 32.2859 33.9938 32.0978 33.9986 31.905C34.0034 31.7122 33.956 31.5216 33.8614 31.353C33.7667 31.1844 33.6282 31.044 33.4603 30.9463C33.2923 30.8485 33.101 30.7971 32.9062 30.7972L32.9064 30.797ZM7.97877 28.9332H5.41627C5.31066 28.933 5.2079 28.9671 5.12384 29.0304C5.03977 29.0937 4.97907 29.1827 4.95108 29.2835L4.15357 31.4009H2.07189C1.96308 31.1818 1.78259 31.0057 1.55981 30.9012C1.33703 30.7966 1.08507 30.7698 0.84495 30.8251C0.604828 30.8804 0.390683 31.0146 0.237373 31.2058C0.0840627 31.3969 0.000615837 31.6338 0.000615837 31.8779C0.000615837 32.122 0.0840627 32.3589 0.237373 32.5501C0.390683 32.7412 0.604828 32.8754 0.84495 32.9307C1.08507 32.986 1.33703 32.9592 1.55981 32.8547C1.78259 32.7501 1.96308 32.574 2.07189 32.355H4.48784C4.58588 32.3546 4.68147 32.3245 4.76178 32.2688C4.84209 32.2132 4.9033 32.1345 4.9372 32.0434L5.74873 29.8893H8.03758L7.97877 28.9332ZM8.5241 22.0318H25.4748L24.9353 30.855H9.06166L8.5241 22.0318ZM15.5395 26.4444C15.5395 26.7303 15.6251 27.0098 15.7855 27.2476C15.9459 27.4854 16.174 27.6707 16.4408 27.7801C16.7076 27.8896 17.0012 27.9182 17.2845 27.8624C17.5677 27.8067 17.8279 27.669 18.0321 27.4668C18.2363 27.2646 18.3754 27.007 18.4317 26.7265C18.4881 26.4461 18.4592 26.1554 18.3486 25.8912C18.2381 25.627 18.0509 25.4012 17.8108 25.2424C17.5706 25.0835 17.2883 24.9987 16.9995 24.9988C16.6125 24.9995 16.2415 25.152 15.9678 25.423C15.6942 25.6939 15.5401 26.0612 15.5394 26.4444L15.5395 26.4444ZM2.02695 25.8406C1.83236 25.8407 1.64133 25.8923 1.47365 25.99C1.30596 26.0878 1.16771 26.2281 1.07321 26.3966C0.978715 26.565 0.931401 26.7554 0.93617 26.948C0.940939 27.1406 0.997619 27.3284 1.10034 27.4921C1.20306 27.6557 1.34809 27.7892 1.52041 27.8787C1.69274 27.9682 1.88609 28.0105 2.08045 28.0011C2.27481 27.9918 2.46312 27.9312 2.62588 27.8256C2.78863 27.72 2.91993 27.5732 3.00616 27.4005H7.88487L7.82625 26.4442H3.00622C2.91635 26.263 2.77694 26.1104 2.60383 26.0037C2.43073 25.897 2.23086 25.8405 2.02695 25.8406ZM1.09262 23.0479C1.29654 23.048 1.4964 22.9915 1.6695 22.8848C1.84259 22.778 1.98198 22.6254 2.07182 22.4441H4.15357L4.95108 24.5594C4.97868 24.6606 5.03923 24.7499 5.12334 24.8136C5.20745 24.8772 5.31042 24.9116 5.41627 24.9114H7.73256L7.67387 23.9551H5.7486L4.9374 21.7996C4.9034 21.7088 4.84211 21.6304 4.76178 21.575C4.68144 21.5197 4.58592 21.49 4.48804 21.49V21.4881H2.07189C1.98573 21.3151 1.85442 21.1681 1.69158 21.0623C1.52873 20.9565 1.34027 20.8957 1.14573 20.8863C0.951179 20.8768 0.757621 20.9191 0.585111 21.0086C0.4126 21.0982 0.267411 21.2318 0.164589 21.3955C0.0617675 21.5593 0.00505292 21.7474 0.000322269 21.9402C-0.00440838 22.133 0.043017 22.3235 0.137684 22.4921C0.232352 22.6606 0.370817 22.801 0.538732 22.8988C0.706648 22.9965 0.897838 23.048 1.09262 23.0479Z" fill="#2258A8"/>
</svg>
