<svg width="34" height="34" viewBox="0 0 34 34" fill="none" xmlns="http://www.w3.org/2000/svg">
<path d="M33.4516 15.3548H30.1613V13.1613C30.1613 10.1374 27.7013 7.67742 24.6774 7.67742C21.6535 7.67742 19.1935 10.1374 19.1935 13.1613V15.3548H12.0171L11.8674 13.7097H14.8065C15.1093 13.7097 15.3548 13.4641 15.3548 13.1613V6.03226C15.3548 5.72941 15.1093 5.48387 14.8065 5.48387H4.93548C4.63264 5.48387 4.3871 5.72941 4.3871 6.03226V13.1613C4.3871 13.4641 4.63264 13.7097 4.93548 13.7097H7.8745L7.72481 15.3548H0.548387C0.245542 15.3548 0 15.6004 0 15.9032V18.0968C0 18.3996 0.245542 18.6452 0.548387 18.6452H1.64516V32.3548C1.64516 32.6577 1.8907 32.9032 2.19355 32.9032H3.29032V33.4516C3.29032 33.7545 3.53587 34 3.83871 34C4.14155 34 4.3871 33.7545 4.3871 33.4516V32.9032H29.6129V33.4516C29.6129 33.7545 29.8584 34 30.1613 34C30.4641 34 30.7097 33.7545 30.7097 33.4516V32.9032H31.8065C32.1093 32.9032 32.3548 32.6577 32.3548 32.3548V18.6452H33.4516C33.7545 18.6452 34 18.3996 34 18.0968V15.9032C34 15.6004 33.7545 15.3548 33.4516 15.3548ZM5.48387 12.6129V6.58065H14.2581V12.6129H11.7678L11.6133 10.9134C11.5335 10.0362 10.7519 9.32258 9.87097 9.32258C8.99001 9.32258 8.2084 10.0362 8.12861 10.9137L7.97411 12.6129H5.48387ZM32.9032 17.5484H1.09677V16.4516H32.9032V17.5484ZM5.48387 23.5806C5.48387 23.2778 5.72941 23.0323 6.03226 23.0323H27.9677C28.2706 23.0323 28.5161 23.2778 28.5161 23.5806C28.5161 23.8835 28.2706 24.129 27.9677 24.129H6.03226C5.72941 24.129 5.48387 23.8835 5.48387 23.5806ZM28.5161 3.83871C28.5161 1.72201 26.7941 0 24.6774 0C22.5607 0 20.8387 1.72201 20.8387 3.83871C20.8387 5.95541 22.5607 7.67742 24.6774 7.67742C26.7941 7.67742 28.5161 5.95541 28.5161 3.83871ZM26.871 10.9677C26.871 11.2706 26.6254 11.5161 26.3226 11.5161H25.2258C24.923 11.5161 24.6774 11.2706 24.6774 10.9677C24.6774 10.6649 24.923 10.4194 25.2258 10.4194H26.3226C26.6254 10.4194 26.871 10.6649 26.871 10.9677Z" fill="#2258A8"/>
</svg>
