<svg width="35" height="33" viewBox="0 0 35 33" fill="none" xmlns="http://www.w3.org/2000/svg">
<path d="M6.00376 20.9928C6.94118 21.833 8.00424 22.4993 9.14353 23L15.1351 19.2303C16.3746 18.4467 18.0348 18.632 19.0725 19.6773L21.0871 21.6958C24.1068 19.4651 26 15.8963 26 12.0234C26 5.39354 20.6169 0 14 0C7.38306 0 2 5.39354 2 12.0234C2 15.4451 3.45835 18.714 6.00376 20.9928ZM14.5365 13.0843H13.4635C11.8132 13.0843 10.4706 11.7391 10.4706 10.0855C10.4706 8.59883 11.5407 7.37528 12.9412 7.12632V6.01169C12.9412 5.42608 13.4155 4.9508 14 4.9508C14.5845 4.9508 15.0588 5.42608 15.0588 6.01169V7.07257H16.4706C17.0551 7.07257 17.5294 7.54785 17.5294 8.13346C17.5294 8.71907 17.0551 9.19434 16.4706 9.19434H13.4635C12.9807 9.19434 12.5882 9.58758 12.5882 10.0713C12.5882 10.5693 12.9807 10.9625 13.4635 10.9625H14.5365C16.1868 10.9625 17.5294 12.3077 17.5294 13.9613C17.5294 15.4479 16.4593 16.6715 15.0588 16.9204V18.0336C15.0588 18.6192 14.5845 19.0945 14 19.0945C13.4155 19.0945 12.9412 18.6192 12.9412 18.0336V16.9742H11.5294C10.9449 16.9742 10.4706 16.4989 10.4706 15.9133C10.4706 15.3277 10.9449 14.8524 11.5294 14.8524H14.5365C15.0193 14.8524 15.4118 14.4592 15.4118 13.9754C15.4118 13.4775 15.0193 13.0843 14.5365 13.0843Z" fill="#2258A8"/>
<path d="M33.5416 16H27.7082C27.119 16 26.5853 16.3457 26.3607 16.8741C26.1347 17.4039 26.2601 18.0131 26.6772 18.4182L28.5628 20.25L22.604 26.0385L17.8016 21.3734C17.3247 20.9073 16.5751 20.8266 16.0035 21.1708L0.69073 30.3792C0.00530276 30.7914 -0.2047 31.6641 0.218223 32.3285C0.493852 32.762 0.970734 33 1.45928 33C1.72179 33 1.98575 32.932 2.22492 32.7875L16.5547 24.1699L21.5715 29.0433C22.1417 29.5972 23.0634 29.5972 23.6336 29.0433L30.6249 22.2532L32.5106 24.0849C32.7891 24.3555 33.1625 24.5 33.5416 24.5C33.7298 24.5 33.9194 24.4646 34.1002 24.3923C34.6456 24.1727 35 23.6557 35 23.0833V17.4167C35 16.6347 34.3481 16 33.5416 16Z" fill="#2258A8"/>
</svg>
