<svg width="28" height="27" viewBox="0 0 28 27" fill="none" xmlns="http://www.w3.org/2000/svg">
<path d="M14.3813 13.6789C17.99 13.6789 20.9154 10.6168 20.9154 6.83946C20.9154 3.06213 17.99 0 14.3813 0C10.7726 0 7.84714 3.06213 7.84714 6.83946C7.84714 10.6168 10.7726 13.6789 14.3813 13.6789Z" fill="#2258A8"/>
<path d="M26.7473 23.8158C26.7473 23.7547 26.7168 23.6936 26.7168 23.6326C26.6252 23.2051 26.4114 22.8387 26.1366 22.5334C25.8008 22.1975 25.4038 21.9227 24.9153 21.8006C24.7321 21.7395 24.5184 21.709 24.3046 21.709C22.9306 21.709 21.8009 22.8387 21.8009 24.2127C21.8009 25.5867 22.9306 26.7164 24.3046 26.7164C25.6786 26.7164 26.8084 25.5867 26.8084 24.2127C26.8084 24.0906 26.7778 23.9684 26.7473 23.8158Z" fill="#2258A8"/>
<path d="M6.38165 21.7401C6.38165 20.3661 5.25192 19.2363 3.87792 19.2363C3.78632 19.2363 3.69472 19.2363 3.60312 19.2363C3.57259 19.2363 3.57259 19.2363 3.54206 19.2363C3.48099 19.2363 3.41992 19.2669 3.35886 19.2669C3.32832 19.2669 3.32832 19.2669 3.29779 19.2974C3.23672 19.2974 3.17566 19.3279 3.11459 19.3585C3.08406 19.3585 3.08406 19.3585 3.08406 19.389C3.02299 19.4195 2.96192 19.4501 2.90086 19.4501H2.87032C2.80926 19.4806 2.74819 19.5111 2.65659 19.5417C2.59552 19.5722 2.53446 19.6333 2.44286 19.6638C2.32072 19.7554 2.16806 19.8775 2.07646 19.9997C1.64899 20.4577 1.40472 21.0378 1.40472 21.7095C1.40472 23.0835 2.53446 24.2133 3.90845 24.2133C5.28245 24.2133 6.38165 23.1141 6.38165 21.7401Z" fill="#2258A8"/>
<path d="M27.48 22.2588C26.7166 16.1216 18.7474 14.137 17.8009 13.9232L14.4728 16.5491L11.1447 13.9232C10.4424 14.0759 5.98453 15.1751 3.35866 18.1674L1.12973 10.3203L0 10.6256L2.29 18.8086C2.748 18.5643 3.2976 18.4116 3.87773 18.4116C5.70973 18.4116 7.20586 19.9078 7.20586 21.7398C7.20586 23.4191 5.95399 24.7931 4.36626 25.0374C5.74026 25.6175 7.63333 26.1976 10.1371 26.5335V18.5948C10.1371 18.5948 14.2591 18.5948 17.0986 20.4574L17.1292 26.8694H17.9536L17.923 20.4574C20.7626 18.5948 24.8846 18.5948 24.8846 18.5948V20.9764C26.0144 21.1902 26.9304 21.9535 27.3578 22.9916C27.48 22.7474 27.5105 22.5031 27.48 22.2588Z" fill="#2258A8"/>
</svg>
