<svg width="31" height="25" viewBox="0 0 31 25" fill="none" xmlns="http://www.w3.org/2000/svg">
<path fill-rule="evenodd" clip-rule="evenodd" d="M28.4316 18.7267L15.9948 20.8076V19.8689C20.073 17.0205 23.9969 16.4032 27.8929 16.0872C28.037 16.0769 28.1659 16.1199 28.2718 16.2192C28.3783 16.3172 28.4316 16.4407 28.4316 16.5847V18.7267ZM2.71855 16.2204C2.61202 16.3184 2.55755 16.4419 2.55755 16.586V18.7274L14.9943 20.8082V19.8695C10.9179 17.0211 6.99225 16.4038 3.09623 16.0878C2.95157 16.0775 2.82325 16.1205 2.71855 16.2204ZM30.9706 20.7495C30.8417 19.979 30.1142 19.4591 29.3443 19.588L15.4949 21.9062L1.64422 19.588C0.875544 19.4591 0.148027 19.979 0.0197127 20.7495C-0.109207 21.5182 0.410708 22.2457 1.1812 22.374L15.231 24.7242C15.3908 24.7551 15.5572 24.7587 15.7267 24.7309L29.8092 22.3734C30.5778 22.2457 31.0978 21.5182 30.9706 20.7495ZM1.70111 6.20886L3.12528 6.75298V11.0013L2.46131 12.7753C2.44073 12.8612 2.4595 12.9435 2.51457 13.0119C2.56965 13.0803 2.6447 13.1166 2.73247 13.1166H4.52039C4.60815 13.1166 4.6832 13.0803 4.73647 13.0119C4.79154 12.9435 4.81031 12.8612 4.79154 12.7753L4.12576 11.0013V7.13611L7.03402 8.24978V6.38802C7.03402 3.72005 13.7923 3.56026 15.4955 3.56026C17.1975 3.56026 23.9557 3.72005 23.9557 6.38802V8.24978L29.288 6.21007C29.4938 6.13139 29.6209 5.94436 29.6209 5.72647C29.6209 5.50676 29.4938 5.31974 29.288 5.24106L15.6807 0.0358614C15.5554 -0.0119538 15.4337 -0.0119538 15.3103 0.0358614L1.70111 5.23985C1.49714 5.31853 1.36822 5.50555 1.36822 5.72526C1.36822 5.94315 1.49714 6.13018 1.70111 6.20886ZM22.9565 11.2089V6.38802C22.9565 5.37906 19.6161 4.56075 15.4949 4.56075C11.3737 4.56075 8.03329 5.37906 8.03329 6.38802V11.2089C9.45927 10.3204 12.2658 9.7145 15.4949 9.7145C18.7239 9.7145 21.5311 10.3198 22.9565 11.2089ZM22.9565 12.5435C22.9565 11.5363 19.604 10.7144 15.4949 10.7144C11.384 10.7144 8.03329 11.5363 8.03329 12.5435C8.03329 13.5506 11.384 14.3707 15.4949 14.3707C19.604 14.3707 22.9565 13.5506 22.9565 12.5435Z" fill="#2258A8"/>
</svg>
