<svg width="30" height="30" viewBox="0 0 30 30" fill="none" xmlns="http://www.w3.org/2000/svg">
<path d="M12.3714 14.5546H16.7378C19.2535 14.5546 20.3766 13.4326 20.3766 10.916V5.25012C19.9107 5.01533 19.4233 4.82638 18.9209 4.68566V4.36639C18.9209 1.9548 16.9661 0 14.5546 0C12.1432 0 10.1882 1.9548 10.1882 4.36639V4.68566C9.68607 4.82638 9.19864 5.01533 8.73279 5.25012V10.916C8.73279 13.4326 9.85557 14.5546 12.3714 14.5546ZM11.6438 4.36639C11.6438 2.75884 12.947 1.45538 14.5546 1.45538C16.1624 1.45538 17.4656 2.75884 17.4656 4.36639V4.4109C17.2249 4.38851 16.9843 4.36639 16.7378 4.36639H12.3714C12.1251 4.36639 11.8842 4.38825 11.6438 4.4109V4.36639Z" fill="#2258A8"/>
<path d="M21.832 6.20117V10.9156C21.832 14.248 20.0709 16.0098 16.7378 16.0098H12.3714C9.03847 16.0098 7.27741 14.248 7.27741 10.9156V6.20117C5.43401 7.71944 4.36613 9.98286 4.36639 12.371V25.4702C4.36853 27.4791 5.99633 29.1069 8.00497 29.109H21.1041C23.113 29.1069 24.7409 27.4791 24.743 25.4702V12.371C24.7432 9.98286 23.6754 7.71944 21.832 6.20117ZM18.1934 23.287H17.4656V24.0148C17.4656 24.4167 17.1396 24.7426 16.7378 24.7426C16.3359 24.7426 16.0102 24.4167 16.0102 24.0148V23.287H10.916C10.5141 23.287 10.1882 22.9613 10.1882 22.5594C10.1882 22.1575 10.5141 21.8316 10.916 21.8316H18.1934C18.5953 21.8316 18.9209 22.1575 18.9209 22.5594C18.9209 22.9613 18.5953 23.287 18.1934 23.287Z" fill="#2258A8"/>
<path d="M26.9262 17.4648H26.1984V26.1241C27.8912 25.7763 29.107 24.2873 29.1094 22.5591V19.648C29.108 18.4429 28.1313 17.4662 26.9262 17.4648Z" fill="#2258A8"/>
<path d="M0 19.648V22.5591C0.00213203 24.2873 1.21792 25.7763 2.91102 26.1241V17.4648H2.1832C0.978068 17.4662 0.00133251 18.4429 0 19.648Z" fill="#2258A8"/>
</svg>
