<svg width="31" height="28" viewBox="0 0 31 28" fill="none" xmlns="http://www.w3.org/2000/svg">
<path d="M26.3826 10.3856H26.3353C25.8301 10.3708 25.3987 10.0192 25.2628 9.51401C23.5815 3.28548 17.4624 -0.753625 11.027 0.118009C5.221 0.90396 0.694402 5.53991 0.0177419 11.3961C-0.165428 12.9799 1.09328 14.3774 2.70359 14.3892C3.6491 14.3951 4.42025 15.1692 4.42025 16.1177V19.1315C4.42025 21.4776 6.4117 23.3243 8.74888 23.1588C9.07981 23.1351 9.39594 23.0642 9.69733 22.9637L14.8326 27.9187C14.8858 27.969 14.9715 28.0015 15.0365 28.0015H23.945C24.0277 28.0015 24.1046 27.966 24.1607 27.9069L26.3442 25.5136C26.3945 25.4604 26.4211 25.3895 26.4211 25.3156V18.6027C26.4211 18.4373 26.2881 18.3072 26.1256 18.3072H17.5598L14.812 14.472C14.812 14.472 16.3603 14.4809 29.8426 14.5429C30.0051 14.5429 30.138 14.4099 30.138 14.2474C30.138 12.1378 28.4864 10.4418 26.3826 10.3856ZM8.45642 20.603C7.35434 20.603 6.45904 19.7048 6.45904 18.5997C6.45904 17.4976 7.35428 16.6023 8.45642 16.6023C9.55856 16.6023 10.4538 17.4975 10.4538 18.5997C10.4538 19.7048 9.5585 20.603 8.45642 20.603ZM14.9567 27.2186L10.2883 22.7156C10.8467 22.4202 11.3284 21.9947 11.7006 21.4776L14.3628 23.3951C14.416 23.4306 14.4751 23.4484 14.5371 23.4484H16.9216L14.9567 27.2186ZM22.2963 18.8981H25.8301V22.8574H22.2963V18.8981ZM25.8301 23.4484V25.2005L23.812 27.4106H20.1157L22.1811 23.4484H25.8301ZM17.7047 18.8981H21.7053V22.8574H17.7047V18.8981ZM17.5864 23.4484H21.5133L19.4509 27.4106H15.524L17.5864 23.4484ZM17.1137 22.8574H14.6317L12.0109 20.9723C12.5575 19.9234 12.4866 18.9513 12.4925 18.8981H17.1137V22.8574ZM16.833 18.3072H12.4926V16.1975C12.4926 15.3289 13.1367 14.5576 14.094 14.4808L16.833 18.3072Z" fill="#2258A8"/>
<path d="M9.86277 18.5998C9.86277 19.3768 9.23339 20.0121 8.4563 20.0121C7.67922 20.0121 7.0499 19.3768 7.0499 18.5998C7.0499 17.8227 7.67928 17.1934 8.4563 17.1934C9.23345 17.1934 9.86277 17.8227 9.86277 18.5998Z" fill="#2258A8"/>
</svg>
