<svg width="28" height="25" viewBox="0 0 28 25" fill="none" xmlns="http://www.w3.org/2000/svg">
<path fill-rule="evenodd" clip-rule="evenodd" d="M16.6192 0H7.50163V16.9619H19.7193V3.10079H16.9758C16.7784 3.10079 16.6192 2.94091 16.6192 2.74417V0ZM6.7884 8.66402V7.48124H3.41361C2.76456 7.48124 2.23618 8.00963 2.23618 8.65927V21.655H3.41896V9.48781C3.41896 9.03371 3.78865 8.66402 4.24274 8.66402H6.7884ZM22.9782 8.66402C23.4323 8.66402 23.802 9.03371 23.802 9.48781V21.655H24.9848V8.65927C24.9848 8.00963 24.4564 7.48124 23.8074 7.48124H20.4326V8.66402H22.9782ZM17.5856 22.3682C17.3912 23.2681 16.5954 23.932 15.6426 23.932H11.5784C10.6256 23.932 9.82975 23.2681 9.63599 22.3682H0.43823C0.308659 22.3682 0.207023 22.4122 0.118463 22.5067C0.0299026 22.6018 -0.0075422 22.7058 0.00137324 22.8354C0.0732911 23.9148 0.977316 24.7599 2.05906 24.7599H25.1631C26.2449 24.7599 27.1489 23.9148 27.2208 22.8354C27.2291 22.7058 27.1923 22.6018 27.1037 22.5067C27.0151 22.4122 26.9135 22.3682 26.7833 22.3682H17.5856ZM16.8432 22.3682C16.6649 22.861 16.1876 23.2188 15.6426 23.2188H11.5784C11.0333 23.2188 10.5561 22.861 10.3778 22.3682H16.8432ZM20.076 17.6751C20.2727 17.6751 20.4326 17.5159 20.4326 17.3185V9.37726H22.9782C23.0383 9.37726 23.0888 9.42778 23.0888 9.48781V21.655H4.13219V9.48781C4.13219 9.42778 4.18271 9.37726 4.24274 9.37726H6.7884V17.3185C6.7884 17.5159 6.94828 17.6751 7.14501 17.6751H20.076ZM10.0907 14.2683V15.0671H9.29245V14.2683H10.0907ZM10.0907 11.0736V11.8724H9.29245V11.0736H10.0907ZM10.0907 8.6765H9.29245V7.87827H10.0907V8.6765ZM17.3324 0.504614L19.2153 2.38755H17.3324V0.504614ZM10.4723 3.29396H9.68472L10.0788 2.33406L10.4723 3.29396ZM8.8021 5.54481H18.4189C18.6156 5.54481 18.7755 5.70469 18.7755 5.90142C18.7755 6.09875 18.6156 6.25804 18.4189 6.25804H8.8021C8.60477 6.25804 8.44548 6.09875 8.44548 5.90142C8.44548 5.70469 8.60536 5.54481 8.8021 5.54481ZM12.7124 7.90443H18.4189C18.6156 7.90443 18.7755 8.06371 18.7755 8.26104C18.7755 8.45778 18.6156 8.61766 18.4189 8.61766H12.7124C12.5157 8.61766 12.3558 8.45778 12.3558 8.26104C12.3564 8.06371 12.5157 7.90443 12.7124 7.90443ZM12.7124 11.0991H18.4189C18.6156 11.0991 18.7755 11.2584 18.7755 11.4557C18.7755 11.6525 18.6156 11.8124 18.4189 11.8124H12.7124C12.5157 11.8124 12.3558 11.6525 12.3558 11.4557C12.3564 11.2584 12.5157 11.0991 12.7124 11.0991ZM18.4189 14.2938C18.6156 14.2938 18.7755 14.4537 18.7755 14.6504C18.7755 14.8472 18.6156 15.0071 18.4189 15.0071H12.7124C12.5157 15.0071 12.3558 14.8472 12.3558 14.6504C12.3558 14.4537 12.5157 14.2938 12.7124 14.2938H18.4189ZM8.93523 13.555H10.4473C10.644 13.555 10.8039 13.7149 10.8039 13.9116V15.4237C10.8039 15.6204 10.644 15.7803 10.4473 15.7803H8.93523C8.7385 15.7803 8.57862 15.6204 8.57862 15.4237V13.9116C8.57862 13.7149 8.7385 13.555 8.93523 13.555ZM10.4473 10.3603C10.644 10.3603 10.8039 10.5202 10.8039 10.7169V12.229C10.8039 12.4257 10.644 12.5856 10.4473 12.5856H8.93523C8.7385 12.5856 8.57862 12.4257 8.57862 12.229V10.7169C8.57862 10.5202 8.7385 10.3603 8.93523 10.3603H10.4473ZM10.4473 7.16563C10.644 7.16563 10.8039 7.32552 10.8039 7.52225V9.03371C10.8039 9.23104 10.644 9.39033 10.4473 9.39033H8.93523C8.7385 9.39033 8.57862 9.23104 8.57862 9.03371V7.52225C8.57862 7.32552 8.7385 7.16563 8.93523 7.16563H10.4473ZM13.39 1.8657C13.5873 1.8657 13.7466 2.02499 13.7466 2.22232C13.7466 2.41905 13.5873 2.57894 13.39 2.57894H13.0607V2.90821C13.0607 3.10495 12.9008 3.26483 12.7041 3.26483C12.5068 3.26483 12.3475 3.10495 12.3475 2.90821V2.57894H12.0176C11.8209 2.57894 11.661 2.41905 11.661 2.22232C11.661 2.02499 11.8209 1.8657 12.0176 1.8657H12.3469V1.53583C12.3469 1.3391 12.5068 1.17921 12.7035 1.17921C12.9002 1.17921 13.0601 1.3391 13.0601 1.53583V1.8657H13.39ZM10.4081 1.25945L11.6336 4.24434C11.7085 4.42681 11.6212 4.63484 11.4393 4.70973C11.2568 4.78462 11.0488 4.69725 10.9739 4.51537L10.7647 4.0066H9.39111L9.18189 4.51537C9.12543 4.65326 8.99229 4.73647 8.85202 4.73647C8.80685 4.73647 8.76109 4.72815 8.7171 4.70973C8.53463 4.63484 8.44786 4.42681 8.52275 4.24434L9.74832 1.25945C9.8036 1.12572 9.93376 1.03835 10.0782 1.03835C10.2232 1.03895 10.3534 1.12632 10.4081 1.25945Z" fill="#2258A8"/>
</svg>
