<svg width="28" height="22" viewBox="0 0 28 22" fill="none" xmlns="http://www.w3.org/2000/svg">
<path d="M13.9812 22.0003C13.8964 22.0003 13.8118 21.9823 13.7328 21.946C9.49936 20.002 5.09801 19.2185 0.648135 19.6182C0.481388 19.631 0.316675 19.5773 0.193503 19.4648C0.0703314 19.3521 3.05176e-05 19.1926 3.05176e-05 19.0256V2.26291C3.05176e-05 1.93436 0.266418 1.66797 0.594973 1.66797C0.923528 1.66797 1.18992 1.93436 1.18992 2.26291V18.3827C5.54044 18.0986 9.83809 18.8946 13.9812 20.752C18.124 18.8946 22.4222 18.098 26.7725 18.3827V2.26291C26.7725 1.93436 27.0388 1.66797 27.3674 1.66797C27.696 1.66797 27.9623 1.93436 27.9623 2.26291V19.0256C27.9623 19.1926 27.892 19.3521 27.7689 19.4648C27.6457 19.5776 27.4795 19.6322 27.3142 19.6182C22.8641 19.2182 18.463 20.0017 14.2296 21.946C14.1505 21.9823 14.066 22.0003 13.9812 22.0003Z" fill="#2258A8"/>
<path d="M13.2375 1.70375V17.7791C10.001 16.4197 6.60984 15.8366 3.04614 16.1579V0.0855075C6.60984 -0.232789 10.001 0.344306 13.2375 1.70375Z" fill="#2258A8"/>
<path d="M24.9163 0.0855075V16.1579C21.3526 15.8366 17.9614 16.4197 14.7249 17.7791V1.70375C17.9614 0.344306 21.3526 -0.232789 24.9163 0.0855075Z" fill="#2258A8"/>
</svg>
