<svg width="29" height="32" viewBox="0 0 29 32" fill="none" xmlns="http://www.w3.org/2000/svg">
<path d="M27.4555 4.39289H22.5135V1.09821C22.5117 0.492405 22.021 0.00174171 21.4153 0H7.13841C6.53261 0.00174171 6.04194 0.492405 6.0402 1.09821V4.39289H1.09824C0.492436 4.3947 0.00177222 4.8853 3.05176e-05 5.4911V18.1206C3.05176e-05 18.4238 0.24586 18.6697 0.549165 18.6697C0.852409 18.6697 1.0983 18.4239 1.0983 18.1206V14.2768H2.19651V7.13844C2.19744 6.83557 2.44271 6.59024 2.74564 6.58931H6.04033V29.1028H3.29465C3.29465 28.7995 3.04882 28.5536 2.74552 28.5536H1.64737C1.34413 28.5536 1.09824 28.7995 1.09824 29.1028V31.2992C1.09824 31.6024 1.34407 31.8483 1.64737 31.8483H2.74558C3.04882 31.8483 3.29472 31.6025 3.29472 31.2992H25.2591C25.2591 31.6024 25.5049 31.8483 25.8082 31.8483H26.9064C27.2096 31.8483 27.4555 31.6025 27.4555 31.2992V29.1028C27.4555 28.7995 27.2097 28.5536 26.9064 28.5536H25.8082C25.5049 28.5536 25.2591 28.7995 25.2591 29.1028H22.5135V6.58931H25.8082C26.1111 6.59024 26.3564 6.83551 26.3573 7.13844V14.2769H27.4555V18.1206C27.4555 18.4239 27.7014 18.6698 28.0047 18.6698C28.3079 18.6698 28.5538 18.4239 28.5538 18.1206V5.4911C28.5519 4.8853 28.0613 4.39463 27.4555 4.39289ZM8.23668 2.19642H10.4331V4.39283H8.23668V2.19642ZM8.23668 14.826H12.0804V16.4733H8.23668V14.826ZM8.23668 17.5715H12.0804V19.2189H8.23668V17.5715ZM12.6295 24.1608H12.0804C11.7771 24.1608 11.5312 24.4066 11.5312 24.71V25.8082C11.5312 26.1114 11.7771 26.3573 12.0804 26.3573H12.6295V29.1028H8.23662V20.3171H12.0804C12.0822 20.7073 12.2914 21.067 12.6295 21.2618V24.1608ZM12.0804 12.6295V13.7277H8.23668V6.58931H10.4331C10.4349 7.19511 10.9255 7.68577 11.5313 7.68752H13.7277V11.5313H13.1786C12.5728 11.5331 12.0822 12.0237 12.0804 12.6295ZM14.826 29.1028H13.7278V26.3572H14.826V29.1028ZM14.826 24.1608H13.7278V21.4153H14.826V24.1608ZM20.317 29.1028H15.9241V26.3572H16.4733C16.7765 26.3572 17.0224 26.1114 17.0224 25.8081V24.7099C17.0224 24.4066 16.7766 24.1608 16.4733 24.1608H15.9241V21.2617C16.2623 21.067 16.4713 20.7072 16.4733 20.317H20.317V29.1028ZM20.317 19.2189H16.4733V17.5715H20.317V19.2189ZM20.317 16.4733H16.4733V14.826H20.317V16.4733ZM20.317 13.7278H16.4733V12.6295C16.4715 12.0237 15.9809 11.5331 15.3751 11.5313H14.8259V7.68758H17.0223C17.6281 7.68577 18.1188 7.19517 18.1205 6.58937H20.317V13.7278H20.317ZM20.317 4.39289H18.1206V2.19642H20.317V4.39289Z" fill="#2258A8"/>
</svg>
