<svg width="29" height="28" viewBox="0 0 29 28" fill="none" xmlns="http://www.w3.org/2000/svg">
<path fill-rule="evenodd" clip-rule="evenodd" d="M18.3406 27.844C15.1077 27.844 11.4438 27.3798 8.44297 27.0316C7.01718 26.8492 5.80691 26.7 5.0277 26.6337C4.66296 26.6006 4.06612 26.6006 3.45269 26.6337C2.20927 26.6337 0.899532 26.6337 0.286109 26.4514C0.153478 26.4182 0.0374248 26.269 0.00426682 26.1032C-0.0123122 25.7716 0.0208458 25.2742 0.103741 24.694C0.783479 24.7106 1.69532 24.7106 2.47453 24.7106C3.10454 24.6774 3.75112 24.6774 4.16559 24.7106C5.07743 24.7769 6.43691 24.9261 7.97876 25.1085C11.2614 25.4566 15.3232 25.9208 18.8711 25.9208C21.8719 25.9208 24.508 25.5727 26.0001 24.6111C25.9338 24.8929 25.8509 25.1416 25.7846 25.3074C25.0054 27.2306 21.988 27.844 18.3406 27.844ZM0.203215 23.9148L0.252952 23.5335C0.352425 22.8537 0.43532 22.1408 0.468478 21.6434C0.468478 21.4777 0.485057 21.3119 0.501636 21.1627C2.15953 21.3616 4.03296 22.4558 4.77901 23.9645C4.59664 23.9479 4.41428 23.9313 4.24849 23.9313C3.78427 23.9313 3.15427 23.9313 2.47453 23.9313C1.69532 23.9313 0.866374 23.9479 0.203215 23.9148ZM0.567952 20.3834C0.733742 18.6924 1.04874 17.8137 1.61243 17.4158C2.17611 16.9848 2.92217 17.1505 3.75112 17.3329C4.34796 17.4821 5.0277 17.6645 5.80691 17.6645C6.17165 17.6645 6.47007 17.6479 6.70217 17.6148C7.5477 18.1619 11.7588 20.715 16.1688 22.29C16.633 22.4724 17.064 22.5387 17.4951 22.5387C18.639 22.5387 19.6669 21.9584 20.5125 20.7979C20.5788 20.715 20.9104 20.2011 21.1093 19.9358C21.3912 19.9358 21.6896 19.9192 21.988 19.8695C24.193 19.5048 25.5691 19.9027 26.1493 21.0134C26.3814 21.4777 26.3648 22.3895 26.2488 23.2682C24.5412 26.2027 13.8477 24.9592 8.09481 24.3127C7.19954 24.2132 6.38717 24.1137 5.67428 24.0474C4.9448 22.0911 2.6569 20.6321 0.567952 20.3834ZM7.66376 17.2998C7.77981 17.2003 7.87928 17.0842 7.97876 16.9516C8.16113 16.7361 8.34349 16.4542 8.72481 16.1226C10.0843 14.9787 10.6977 15.1279 11.9909 15.874L10.7474 17.3329C10.5982 17.4655 10.5982 17.7308 10.7806 17.8634C10.8469 17.9298 10.9464 17.9795 11.0293 17.9795C11.1288 17.9795 11.2448 17.9298 11.3111 17.8303L12.654 16.2719C13.1348 16.5703 13.6985 16.9184 14.4114 17.3163L13.1348 18.7919C13.0022 18.9411 13.0022 19.1898 13.168 19.3224C13.2509 19.4053 13.3503 19.4384 13.4332 19.4384C13.5327 19.4384 13.6322 19.4053 13.7151 19.2892L15.0911 17.6977L15.2072 17.764C15.4227 17.8634 15.6382 18.0127 15.8538 18.1121C16.2351 18.3277 16.6164 18.5432 17.0143 18.7421L15.8206 20.1182C15.688 20.2508 15.688 20.4995 15.8704 20.6487C15.9367 20.715 16.0361 20.7482 16.119 20.7482C16.2185 20.7482 16.3346 20.715 16.4009 20.6156L17.7272 19.0903C18.523 19.455 19.3519 19.7534 20.214 19.8695C20.0648 20.1016 19.899 20.3337 19.8659 20.3834C18.9375 21.6434 17.8101 22.0248 16.4672 21.544C12.7203 20.2177 9.12271 18.1784 7.66376 17.2998Z" fill="#2258A8"/>
<path fill-rule="evenodd" clip-rule="evenodd" d="M18.1251 17.4165C15.3233 15.7918 12.3722 13.5702 9.96824 11.7631C8.82429 10.901 7.84613 10.1715 7.19955 9.70729C6.90113 9.50835 6.38718 9.19335 5.84008 8.92808C4.76244 8.29808 3.61849 7.6515 3.18744 7.18729C3.07139 7.08781 3.05481 6.90545 3.12112 6.73966C3.25376 6.44123 3.55218 6.02676 3.90034 5.56255C4.49718 5.92729 5.25981 6.37492 5.93955 6.77281C6.51981 7.05466 7.06692 7.38624 7.41508 7.61834C8.16113 8.13229 9.27193 8.92808 10.5153 9.8565C13.1846 11.8128 16.4838 14.2499 19.5509 16.0239C22.1372 17.516 24.5909 18.5273 26.3814 18.4444C26.1659 18.6599 25.9835 18.8423 25.8343 18.9584C24.193 20.2184 21.2751 19.2402 18.1251 17.4165ZM4.38113 4.94913L4.61323 4.63412C5.04429 4.1036 5.45876 3.52333 5.7406 3.10886C5.84008 2.97623 5.92297 2.8436 6.00587 2.71096C7.34876 3.7057 8.4264 5.59571 8.32692 7.27018C8.16113 7.17071 8.01192 7.07123 7.87929 6.97176C7.4814 6.75623 6.93429 6.42465 6.33745 6.09308C5.67429 5.69518 4.94481 5.31386 4.38113 4.94913ZM6.4535 2.06438C7.44824 0.688328 8.16113 0.0914846 8.84087 0.00858968C9.55377 -0.0743052 10.1175 0.456222 10.7309 1.01991C11.1951 1.45096 11.6925 1.93175 12.3556 2.32965C12.6872 2.51202 12.9359 2.64465 13.168 2.74412C13.6322 3.63939 15.9864 7.9665 19.0204 11.5144C19.3354 11.9123 19.6669 12.1776 20.0483 12.3931C21.0264 12.9734 22.2035 12.9899 23.5298 12.3931C23.6293 12.3599 24.1764 12.0947 24.4748 11.9455C24.7235 12.0947 24.9888 12.2107 25.2706 12.3268C27.3596 13.1226 28.3543 14.1505 28.3046 15.3939C28.2714 15.9244 27.8072 16.7036 27.2601 17.3999C24.3091 19.091 15.6714 12.6749 11.0127 9.24308C10.2832 8.71255 9.63666 8.21518 9.0564 7.80071C9.40456 5.74492 8.16113 3.32439 6.4535 2.06438ZM14.1461 2.94307C14.2954 2.92649 14.4446 2.86017 14.5938 2.79386C14.859 2.71096 15.1575 2.54517 15.6548 2.46228C17.4122 2.14728 17.8598 2.57833 18.6059 3.88807L16.7988 4.51807C16.5998 4.56781 16.4838 4.78334 16.5667 4.99886C16.5833 5.09834 16.6662 5.18123 16.7159 5.21439C16.8154 5.26413 16.9314 5.2807 17.0475 5.23097L18.9872 4.55123C19.2525 5.0486 19.5675 5.62886 19.9819 6.34176L18.1417 6.98834C17.9427 7.03808 17.8267 7.2536 17.9096 7.46913C17.9262 7.55203 18.009 7.63492 18.0754 7.68466C18.1583 7.73439 18.2743 7.75097 18.3904 7.70124L20.3798 7.00492L20.4462 7.12097C20.5788 7.31992 20.6948 7.55203 20.8275 7.75097C21.0596 8.13229 21.2917 8.49703 21.5238 8.87834L19.8162 9.45861C19.6172 9.52492 19.5012 9.74045 19.5841 9.9394C19.6006 10.0389 19.6835 10.1218 19.7333 10.1715C19.8327 10.2212 19.9488 10.2378 20.0483 10.1881L21.9714 9.52492C22.4688 10.2378 23.0491 10.9176 23.7288 11.4481C23.4801 11.5641 23.2314 11.6968 23.1651 11.7133C21.7393 12.3434 20.5622 12.1112 19.6504 11.017C17.064 7.99966 14.9751 4.43518 14.1461 2.94307Z" fill="#2258A8"/>
</svg>
