<svg width="24" height="28" viewBox="0 0 24 28" fill="none" xmlns="http://www.w3.org/2000/svg">
<path d="M12.4716 11.25C12.4716 11.9404 13.0313 12.5 13.7216 12.5C14.4119 12.5 14.9716 11.9404 14.9716 11.25C14.9716 10.5596 14.412 10 13.7216 10C13.0316 10.0007 12.4724 10.5599 12.4716 11.25Z" fill="#2258A8"/>
<path d="M15.4717 9.50002C15.4723 10.052 15.9197 10.4994 16.4717 10.5C17.024 10.5 17.4717 10.0523 17.4717 9.50002C17.4717 8.94773 17.024 8.5 16.4717 8.5C15.9194 8.5 15.4717 8.94773 15.4717 9.50002Z" fill="#2258A8"/>
<path d="M4.96897 6.02565C5.05243 6.01094 5.13686 6.00241 5.22152 6.00011C6.11801 6.00301 6.86674 6.6843 6.95397 7.57653C7.12235 7.52819 7.29642 7.50248 7.47153 7.50008C8.43917 7.5021 9.26648 8.19663 9.43607 9.14929C9.68676 9.05255 9.95287 9.00202 10.2215 9.00005C10.9045 9.00245 11.549 9.31669 11.9715 9.85328C12.5675 9.08306 13.5992 8.79661 14.507 9.14929C14.6766 8.19663 15.5039 7.5021 16.4716 7.50008C16.6467 7.50248 16.8207 7.52819 16.9891 7.57653C17.0764 6.68425 17.825 6.00301 18.7216 6.00011C18.8063 6.00241 18.8907 6.01094 18.9741 6.02565C18.974 6.01695 18.9715 6.00886 18.9715 6.00011C18.9732 5.75199 19.0373 5.50825 19.1578 5.29136C18.5386 4.63281 17.9875 3.91362 17.5125 3.14466L17.492 3.11414V3.11441C17.2228 2.68178 17.0156 2.29536 16.86 1.98047C16.5826 2.16881 16.2814 2.31937 15.9642 2.42825C15.9299 2.44504 15.8938 2.45767 15.8565 2.46593C14.5967 2.84262 13.2862 3.02281 11.9715 3.00017C10.6569 3.02281 9.3466 2.84267 8.08682 2.46609C8.04892 2.45778 8.01222 2.44493 7.97739 2.42781C7.66075 2.31904 7.35997 2.16865 7.08297 1.98052C6.92744 2.29541 6.72018 2.68184 6.45095 3.11447V3.11425L6.43044 3.14477C5.95554 3.91378 5.40434 4.63298 4.78528 5.29147C4.9057 5.50841 4.96968 5.7521 4.97143 6.00022C4.97154 6.00886 4.96908 6.01695 4.96897 6.02565Z" fill="#2258A8"/>
<path d="M20.4716 6.50002C20.7477 6.50002 20.9716 6.27618 20.9716 6.00001C20.9714 5.724 20.7477 5.50027 20.4716 5.5C20.1955 5.5 19.9716 5.72384 19.9716 6.00001C19.9716 6.27618 20.1955 6.50002 20.4716 6.50002Z" fill="#2258A8"/>
<path d="M17.9714 7.74998C17.9719 8.16402 18.3074 8.49953 18.7214 8.49997C19.1356 8.49997 19.4714 8.16419 19.4714 7.74998C19.4714 7.33578 19.1356 7 18.7214 7C18.3072 7 17.9714 7.33578 17.9714 7.74998Z" fill="#2258A8"/>
<path d="M11.9715 1.99998C14.87 1.99998 16.369 1.28291 16.4701 0.999961C16.3689 0.717063 14.87 0 11.9715 0C9.04672 0 7.54719 0.730024 7.47052 1.00756C7.54719 1.27001 9.04667 1.99998 11.9715 1.99998Z" fill="#2258A8"/>
<path d="M6.47156 9.50002C6.47156 10.0523 6.91928 10.5 7.47157 10.5C8.02386 10.5 8.47159 10.0523 8.47159 9.50002C8.47159 8.94773 8.02386 8.5 7.47157 8.5C6.91956 8.50066 6.47221 8.948 6.47156 9.50002Z" fill="#2258A8"/>
<path d="M10.6322 23.579C11.5001 23.8802 12.4442 23.88 13.3119 23.5786C22.3813 20.395 23.7548 10.4514 23.9438 8.3669C23.0475 8.08187 22.1934 7.678 21.4044 7.16602C21.141 7.3811 20.8117 7.49923 20.4716 7.50065C20.4629 7.50065 20.4548 7.49819 20.4461 7.49808C20.4608 7.58153 20.4693 7.66597 20.4716 7.75068C20.4705 8.71668 19.6876 9.49953 18.7216 9.50068C18.6369 9.49838 18.5525 9.48985 18.4691 9.47514C18.4692 9.48389 18.4716 9.49193 18.4716 9.50068C18.4705 10.6048 17.5758 11.4995 16.4717 11.5007C16.2965 11.4982 16.1225 11.4725 15.9541 11.4242C15.8896 12.345 15.265 13.1312 14.3826 13.4022C13.5002 13.6733 12.542 13.3733 11.9717 12.6474C11.4014 13.3733 10.4432 13.6733 9.56081 13.4022C8.67837 13.1312 8.05379 12.345 7.98931 11.4242C7.82093 11.4725 7.64686 11.4982 7.47175 11.5007C6.36766 11.4995 5.47292 10.6047 5.47177 9.50068C5.47177 9.49193 5.47423 9.48389 5.47434 9.47514C5.39089 9.48985 5.30645 9.49838 5.22179 9.50068C4.25579 9.49953 3.47294 8.71668 3.47179 7.75068C3.47409 7.66597 3.48262 7.58153 3.49728 7.49808C3.48864 7.49824 3.48054 7.50065 3.47179 7.50065C3.13175 7.49917 2.80247 7.38105 2.53904 7.16602C1.75018 7.67795 0.896286 8.08181 0.00012207 8.36684C0.191364 10.4521 1.57512 20.3996 10.6322 23.579Z" fill="#2258A8"/>
<path d="M15.7832 26.865C15.8567 27.1305 15.7017 27.4055 15.4365 27.48C15.1713 27.5545 14.8957 27.4005 14.8203 27.1355C14.5323 26.106 14.5671 25.013 14.92 24.0039C14.5089 24.1891 14.0874 24.3657 13.6421 24.522C12.5605 24.8975 11.3839 24.8977 10.3023 24.5225C9.85656 24.3661 9.4347 24.1894 9.0234 24.004C9.37624 25.0131 9.41102 26.1061 9.12309 27.1356C9.07529 27.3082 8.93879 27.442 8.76532 27.4865C8.59186 27.5309 8.40783 27.4792 8.28287 27.3509C8.15791 27.2226 8.11115 27.0373 8.16015 26.8651C8.22354 26.6386 8.26761 26.4073 8.29179 26.1734C5.90391 26.4046 4.86736 26.7957 4.55127 27.0028C5.11521 27.3868 7.61908 28.0003 11.9717 28.0003C16.3242 28.0003 18.8281 27.3868 19.3921 27.0027C19.0759 26.7956 18.0392 26.4044 15.6506 26.1732C15.6753 26.4071 15.7197 26.6385 15.7832 26.865Z" fill="#2258A8"/>
<path d="M5.22173 8.49997C5.63593 8.49997 5.97171 8.16419 5.97171 7.74998C5.97171 7.33578 5.63593 7 5.22173 7C4.80769 7.00044 4.47218 7.336 4.47174 7.74998C4.47174 8.16413 4.80752 8.49997 5.22173 8.49997Z" fill="#2258A8"/>
<path d="M8.97162 11.25C8.97162 11.9404 9.53129 12.5 10.2216 12.5C10.9119 12.5 11.4716 11.9404 11.4716 11.25C11.4716 10.5596 10.912 10 10.2216 10C9.53156 10.0007 8.97238 10.5599 8.97162 11.25Z" fill="#2258A8"/>
<path d="M3.47157 6.50002C3.74768 6.50002 3.97157 6.27618 3.97157 6.00001C3.97157 5.72384 3.74774 5.5 3.47157 5.5C3.19556 5.50027 2.97183 5.724 2.97156 6.00001C2.97156 6.27618 3.19545 6.50002 3.47157 6.50002Z" fill="#2258A8"/>
</svg>
