<svg width="26" height="25" viewBox="0 0 26 25" fill="none" xmlns="http://www.w3.org/2000/svg">
<path d="M9.90746 8.69751C12.3092 8.69751 14.2562 6.75051 14.2562 4.34876C14.2562 1.94701 12.3092 0 9.90746 0C7.5057 0 5.5587 1.94701 5.5587 4.34876C5.5587 6.75051 7.5057 8.69751 9.90746 8.69751Z" fill="#2258A8"/>
<path d="M5.83292 19.5029L4.89773 17.7977C4.86686 17.7414 4.86004 17.675 4.87884 17.6136L5.7537 14.7558C5.79207 14.63 5.9254 14.5593 6.05106 14.5978C6.17687 14.6363 6.24757 14.7694 6.20904 14.8952L5.3637 17.6567L6.51826 19.7619C6.79268 19.8796 7.04795 20.006 7.2764 20.1418C8.66221 20.9683 9.41686 21.7995 9.82685 22.4394C9.91879 22.2955 10.021 22.153 10.1324 22.0129C10.6712 21.3379 11.4261 20.7086 12.3766 20.142C12.6607 19.9723 12.9867 19.8162 13.3443 19.6749L14.4496 17.6596L13.5345 14.9004C13.489 14.7631 13.5754 14.6138 13.7246 14.5899C13.8418 14.5712 13.9533 14.65 13.9906 14.7626L14.9344 17.6082C14.9552 17.671 14.9489 17.7396 14.9171 17.7976L14.0167 19.4395C14.3279 19.3434 14.6602 19.2557 15.0258 19.1756C15.6544 19.0381 16.2921 18.9439 16.8802 18.8795C17.0164 18.8646 17.1337 18.7788 17.1881 18.6531L17.3046 18.384C17.5845 17.7418 17.5903 17.0014 17.3207 16.352L15.1522 11.1578C14.6827 10.0345 13.5931 9.30859 12.3761 9.30859H7.43871C6.22174 9.30859 5.13213 10.0345 4.66275 11.1579L2.49408 16.3524C2.22462 17.0014 2.23036 17.7418 2.51005 18.3834L2.7233 18.8742C3.39997 18.9466 4.03709 19.0468 4.62578 19.1756C5.05541 19.2683 5.4592 19.3787 5.83292 19.5029Z" fill="#2258A8"/>
<path d="M25.9332 12.2846C25.9332 10.3938 24.3949 8.85547 22.5041 8.85547C20.6133 8.85547 19.075 10.3938 19.075 12.2846C19.075 14.1754 20.6133 15.7137 22.5041 15.7137C24.3949 15.7137 25.9332 14.1754 25.9332 12.2846Z" fill="#2258A8"/>
<path d="M24.7824 17.4706C24.6072 16.7387 23.9585 16.2106 23.2059 16.2052C21.804 16.1951 20.5117 16.9553 19.8383 18.1841L19.6715 18.477C19.6058 18.5924 19.6895 18.7359 19.8224 18.7375C20.0734 18.7405 20.2198 18.7466 20.2293 18.747C20.312 18.7506 20.3869 18.7969 20.4271 18.8693C20.4673 18.9416 20.467 19.0297 20.4265 19.1018C20.4206 19.1122 19.8879 20.067 19.592 21.1139H22.924L22.2859 18.3867C22.2529 18.2459 22.3524 18.105 22.5032 18.0946C22.6215 18.0865 22.7255 18.1751 22.7525 18.2906L23.4561 21.2978C23.4727 21.3686 23.4561 21.443 23.4109 21.5C23.3657 21.557 23.297 21.5902 23.2243 21.5902H17.1914C16.898 21.5902 16.6076 21.6907 16.396 21.8938C16.1582 22.122 16.0386 22.4322 16.0604 22.7591C16.0985 23.3313 16.599 23.7795 17.1998 23.7795H24.9055C25.2413 23.7795 25.5534 23.6284 25.7618 23.365C25.9719 23.101 26.0479 22.7624 25.9708 22.4355L24.7824 17.4706Z" fill="#2258A8"/>
<path d="M15.5852 22.7915C15.5548 22.3347 15.7171 21.9004 16.0413 21.5753C16.3464 21.2694 16.7722 21.1147 17.2042 21.1147H19.0994C19.269 20.4676 19.527 19.8533 19.7258 19.4311C19.7737 19.3294 19.7 19.2132 19.5876 19.2129C19.4911 19.2127 19.385 19.2131 19.2705 19.2143C18.9771 19.2182 18.7091 19.2259 18.4519 19.2379C17.6087 19.2743 16.3482 19.3736 15.1277 19.6407C14.6064 19.7548 14.1531 19.8828 13.7418 20.032C13.3175 20.1853 12.9404 20.3598 12.6206 20.5508C11.7193 21.0881 11.0075 21.6797 10.5049 22.3095C10.3185 22.5438 10.1615 22.7846 10.0387 23.025C9.99792 23.1047 9.91606 23.1548 9.8266 23.1548C9.82644 23.1548 9.82629 23.1548 9.82614 23.1548C9.7366 23.1546 9.65467 23.1042 9.61413 23.0242C9.30498 22.4138 8.60614 21.4892 7.03274 20.5509C6.7108 20.3595 6.33298 20.1849 5.91003 20.0321C5.49275 19.8807 5.0267 19.7491 4.52461 19.6408C3.55756 19.4292 2.40888 19.29 1.20206 19.238C0.867537 19.2228 0.565119 19.2159 0.309153 19.2136C0.084896 19.2116 -0.064271 19.4419 0.0274835 19.6465C0.375635 20.423 0.817456 21.6362 0.716352 22.6164C0.698714 22.7874 0.81472 22.9427 0.985473 22.9626L8.47133 23.8343C8.55537 23.8441 8.63003 23.8967 8.66195 23.975C8.94077 24.6595 9.7898 24.9829 10.5366 24.4968C10.7164 24.3797 10.8252 24.1901 10.9065 23.9916C10.9394 23.9113 11.0133 23.8554 11.0992 23.8454L15.4291 23.3408C15.5688 23.3245 15.6608 23.1893 15.6265 23.0529C15.6053 22.9684 15.5912 22.8811 15.5852 22.7915Z" fill="#2258A8"/>
</svg>
