<svg width="28" height="26" viewBox="0 0 28 26" fill="none" xmlns="http://www.w3.org/2000/svg">
<path fill-rule="evenodd" clip-rule="evenodd" d="M21.1898 4.21725L21.0463 3.96016L21.046 3.96029C21.2675 3.1457 21.0281 2.53471 20.6114 2.08087C20.0279 1.44533 19.3401 1.15719 19.2701 0.0552923C19.2684 0.0292991 19.2509 0.00823882 19.2257 0.00185119C19.2005 -0.0044732 19.1752 0.00570906 19.1614 0.0277812C18.463 1.14524 18.2752 2.10598 18.5839 2.90563C18.8337 3.55287 19.3663 4.02505 19.9068 4.41552L19.906 4.41583L20.0786 4.72541C20.0927 4.75071 20.0866 4.78189 20.064 4.80004C19.4319 5.30656 19.0272 6.08496 19.0272 6.95798C19.0272 8.48463 20.2648 9.72225 21.7914 9.72225C23.6163 9.72225 24.9212 7.99208 24.4658 6.25648C24.4589 6.2303 24.4701 6.20367 24.4936 6.19033L24.9042 5.95753L24.9037 5.95683C25.5685 5.90402 26.2688 5.77735 26.8186 5.35412C27.4977 4.83128 27.8365 3.91285 27.8203 2.59517C27.82 2.56917 27.8037 2.54729 27.7789 2.53964C27.754 2.53192 27.7281 2.54084 27.7132 2.56222C27.0808 3.4673 26.3435 3.35612 25.5148 3.596C24.9229 3.76733 24.4009 4.16488 24.1669 4.97598L24.1667 4.97579L23.916 5.11771C23.8918 5.13144 23.862 5.12663 23.8433 5.10595C23.2015 4.3954 22.2258 4.05376 21.2527 4.24646C21.2273 4.25133 21.2025 4.23995 21.1898 4.21725ZM11.9787 23.7213C12.0681 24.3669 11.6717 24.9773 11.0978 25.0779C10.5239 25.1784 10.0842 24.7097 9.89177 24.087L8.90852 20.9069C8.73549 20.3471 8.37778 19.9114 7.85602 19.9368C7.39282 19.9593 6.93885 20.2249 6.79415 20.7193L5.70844 24.4291C5.40456 25.4674 4.4848 25.3431 4.03476 24.8669C3.67775 24.4892 3.73024 23.9084 3.81309 23.3808L4.5113 18.9326C4.6216 18.2298 4.68421 17.6346 4.7725 16.9157L5.11237 14.1489C5.17637 13.6281 4.86376 13.1981 4.45052 12.9237C2.83275 11.8495 1.56154 11.0169 0.202179 9.39679C-0.0527572 9.09291 -0.0683784 8.63059 0.165434 8.3059C0.31937 8.0922 0.44883 7.95502 0.719577 7.92346C0.921831 7.89987 1.1034 7.9609 1.26107 8.10535C3.47353 10.1326 6.55161 11.2787 9.07264 9.48546C11.3544 7.86243 12.3337 5.61323 13.4202 3.0399C13.5623 2.70319 13.8794 2.5213 14.1951 2.57531C14.202 2.57651 14.2081 2.57651 14.215 2.57531C14.5307 2.5213 14.8479 2.70319 14.9901 3.0399C16.0764 5.61316 17.0558 7.86243 19.3375 9.48546C21.8585 11.2787 24.5256 11.1581 26.7381 9.13085C27.0563 8.83936 27.5182 8.89312 27.7765 9.25184L27.8338 9.3314C28.0676 9.65609 28.0521 10.1184 27.7971 10.4223C26.9678 11.4106 24.7899 12.8725 23.4695 13.0754C22.8643 13.1684 22.651 14.0988 22.7129 15.0142C22.8788 17.4687 23.7254 18.3888 24.8857 20.6214C24.8944 20.638 24.8948 20.656 24.887 20.6731C24.8792 20.6902 24.8653 20.7016 24.847 20.7059C24.1709 20.8654 23.5178 20.9533 22.8858 20.9757C22.8542 20.9769 22.8292 21.0026 22.829 21.0342L22.8106 23.9042C22.8064 24.5575 22.3354 25.092 21.7546 25.092C21.1737 25.092 20.6945 24.5575 20.6985 23.9042L20.717 20.8354C20.7172 20.8073 20.6981 20.7835 20.6707 20.7775C20.07 20.6455 19.4892 20.4516 18.9262 20.2023C18.9092 20.1947 18.8914 20.1953 18.875 20.2039C18.8586 20.2125 18.848 20.2267 18.8445 20.245L18.0696 24.2627C17.8676 25.3099 16.9074 25.4301 16.4292 25.092C15.9591 24.7597 15.9685 23.9814 16.0558 23.5461L16.9475 19.1009C16.9522 19.0777 16.9434 19.0553 16.9242 19.0415C16.4538 18.7028 15.9957 18.3258 15.5486 17.9147C15.5318 17.8992 15.5256 17.8771 15.5319 17.8552L17.1391 12.2291C17.3454 11.5067 17.1529 10.7789 16.7003 10.2194C15.9483 9.28978 15.3229 8.25043 14.8818 7.20938C14.7375 6.86856 14.5969 6.5247 14.46 6.17806C14.4511 6.15548 14.4307 6.14125 14.4064 6.14081C14.3821 6.14037 14.3611 6.15377 14.3514 6.17597C13.5736 7.94168 12.2291 9.92539 11.3454 11.464C10.8335 12.3553 10.6831 13.1261 10.6054 13.5793C10.2938 15.3988 11.6665 21.4671 11.9787 23.7213ZM6.66064 4.14471C5.134 4.14471 3.89638 5.38232 3.89638 6.90897C3.89638 8.43561 5.134 9.67323 6.66064 9.67323C8.18729 9.67323 9.42491 8.43561 9.42491 6.90897C9.42491 5.38232 8.18729 4.14471 6.66064 4.14471Z" fill="#2258A8"/>
</svg>
