<svg width="27" height="23" viewBox="0 0 27 23" fill="none" xmlns="http://www.w3.org/2000/svg">
<path d="M22.2603 11.9141H20.2484C20.4534 12.4755 20.5655 13.0815 20.5655 13.713V21.3171C20.5655 21.5804 20.5196 21.8331 20.4363 22.0682H23.7625C25.005 22.0682 26.0158 21.0573 26.0158 19.8149V15.6695C26.0158 13.5988 24.3311 11.9141 22.2603 11.9141Z" fill="#2258A8"/>
<path d="M5.45037 13.713C5.45037 13.0814 5.56242 12.4755 5.76749 11.9141H3.75553C1.68473 11.9141 0 13.5988 0 15.6696V19.8149C0 21.0574 1.01081 22.0682 2.25332 22.0682H5.57959C5.49621 21.8331 5.45037 21.5804 5.45037 21.3171V13.713Z" fill="#2258A8"/>
<path d="M15.3077 9.95703H10.708C8.63725 9.95703 6.95251 11.6418 6.95251 13.7126V21.3166C6.95251 21.7314 7.28879 22.0677 7.70362 22.0677H18.3121C18.7269 22.0677 19.0632 21.7314 19.0632 21.3166V13.7126C19.0632 11.6418 17.3785 9.95703 15.3077 9.95703Z" fill="#2258A8"/>
<path d="M13.008 0C10.5176 0 8.49152 2.02609 8.49152 4.51655C8.49152 6.2058 9.42387 7.68113 10.8008 8.45572C11.4539 8.82309 12.2068 9.03304 13.008 9.03304C13.8092 9.03304 14.5622 8.82309 15.2152 8.45572C16.5922 7.68113 17.5245 6.20575 17.5245 4.51655C17.5245 2.02614 15.4984 0 13.008 0Z" fill="#2258A8"/>
<path d="M5.07708 4.20898C3.21456 4.20898 1.69934 5.72421 1.69934 7.58673C1.69934 9.44925 3.21456 10.9645 5.07708 10.9645C5.54954 10.9645 5.99943 10.8666 6.40811 10.6907C7.11471 10.3865 7.69732 9.84797 8.05783 9.17344C8.31088 8.70002 8.45483 8.15994 8.45483 7.58673C8.45483 5.72426 6.93961 4.20898 5.07708 4.20898Z" fill="#2258A8"/>
<path d="M20.9388 4.20898C19.0763 4.20898 17.561 5.72421 17.561 7.58673C17.561 8.15999 17.705 8.70007 17.958 9.17344C18.3185 9.84802 18.9012 10.3865 19.6078 10.6907C20.0164 10.8666 20.4663 10.9645 20.9388 10.9645C22.8013 10.9645 24.3165 9.44925 24.3165 7.58673C24.3165 5.72421 22.8013 4.20898 20.9388 4.20898Z" fill="#2258A8"/>
</svg>
