<svg width="28" height="28" viewBox="0 0 28 28" fill="none" xmlns="http://www.w3.org/2000/svg">
<path d="M18.217 7.66909L16.7191 7.06602C15.9088 8.60173 14.8488 9.42138 13.6616 9.42138C12.4744 9.42138 11.4144 8.60173 10.5948 7.05664L9.10619 7.66909C8.87001 7.7654 8.6555 7.90798 8.47498 8.0883L7.15128 9.42138L9.23814 12.9593L9.28525 12.931C9.50726 12.7944 9.78847 12.7999 10.0053 12.9445C10.2221 13.0894 10.3346 13.3473 10.2934 13.6047C10.1756 14.3585 9.88832 16.2757 9.67632 18.3721H17.6469C17.4349 16.2757 17.1476 14.3585 17.0299 13.6047C16.9886 13.3473 17.1012 13.0894 17.318 12.9445C17.5347 12.7999 17.816 12.7944 18.038 12.931L18.0851 12.9593L20.1719 9.42138L18.8482 8.0883C18.6677 7.90798 18.4532 7.7654 18.217 7.66909ZM12.7194 15.5454C12.7194 15.8058 12.5086 16.0166 12.2483 16.0166C11.9881 16.0166 11.7774 15.8058 11.7774 15.5454V12.9122L11.6406 13.0535C11.4559 13.2382 11.1564 13.2382 10.9717 13.0535C10.787 12.8688 10.787 12.5693 10.9717 12.3846L11.9139 11.4424C12.0494 11.3088 12.252 11.2698 12.4273 11.3434C12.6043 11.4144 12.7202 11.5862 12.7194 11.7769V15.5454ZM15.5459 15.5454C15.5459 15.8058 15.3351 16.0166 15.0749 16.0166C14.8146 16.0166 14.6038 15.8058 14.6038 15.5454V12.9122L14.4671 13.0535C14.2824 13.2382 13.983 13.2382 13.7981 13.0535C13.6135 12.8688 13.6135 12.5693 13.7981 12.3846L14.7404 11.4424C14.8759 11.3088 15.0785 11.2698 15.2538 11.3434C15.431 11.4144 15.5467 11.5862 15.5459 11.7769V15.5454Z" fill="#2258A8"/>
<path d="M18.8953 13.4486L19.6301 13.8914L21.5427 10.8106V10.8012L20.855 10.1133L18.8953 13.4486Z" fill="#2258A8"/>
<path d="M9.42654 22.146L17.8966 22.1414C17.892 21.8352 17.8778 21.5194 17.8636 21.1992H9.45948C9.44531 21.5242 9.43113 21.8398 9.42654 22.146Z" fill="#2258A8"/>
<path d="M9.59145 19.3145C9.5631 19.6301 9.53496 19.9459 9.51599 20.2567H17.8072C17.7836 19.9459 17.7601 19.6301 17.7317 19.3145H9.59145Z" fill="#2258A8"/>
<path d="M5.78046 10.8012L7.69305 13.8962L8.43266 13.4486L6.46816 10.1133L5.78046 10.8012Z" fill="#2258A8"/>
<path d="M1.89854 4.29631C3.80176 4.29631 5.70018 3.8204 6.65179 4.77201C6.81668 4.9369 7.4433 5.76134 8.35718 7.00042C8.481 6.92078 8.61191 6.85304 8.74825 6.7978L10.1049 6.23725L7.32552 2.20006C7.22797 2.0631 7.10685 1.94512 6.96739 1.85131C5.78982 1.05521 4.97016 0 0.475822 0C0.00012207 0 0.00012207 0.4757 0.00012207 1.4321C0.00012207 1.9078 0.00012207 4.29631 1.89854 4.29631Z" fill="#2258A8"/>
<path d="M18.8152 21.454C20.6148 23.9603 22.1034 26.0472 22.8195 27.0459C22.9325 27.205 23.1103 27.3059 23.3048 27.3213C23.4993 27.3367 23.6908 27.2652 23.8276 27.126C24.0579 26.8971 24.0917 26.5362 23.9076 26.2686L18.6174 18.5898L18.6881 19.3153H18.6787C18.7022 19.5838 18.721 19.8571 18.7398 20.1255L18.7539 20.2575H18.7633L18.7823 20.6767L18.8246 21.1997H18.8058C18.8104 21.2846 18.8152 21.3692 18.8152 21.454Z" fill="#2258A8"/>
<path d="M19.9976 2.20006L17.2088 6.24663L18.5703 6.793C18.7076 6.84908 18.84 6.91682 18.9659 6.99562C19.8798 5.76135 20.5064 4.9369 20.6713 4.77201C21.6229 3.8204 23.5213 4.29631 25.4246 4.29631C27.3278 4.29631 27.323 1.9078 27.323 1.4321C27.323 0.4757 27.323 0 26.8473 0C22.3529 0 21.5333 1.05521 20.3557 1.85131C20.2162 1.94512 20.0951 2.0631 19.9976 2.20006Z" fill="#2258A8"/>
<path d="M3.4955 27.126C3.63225 27.2652 3.82382 27.3367 4.01831 27.3213C4.2128 27.3059 4.39062 27.205 4.5036 27.0459C5.21965 26.0472 6.70825 23.9603 8.50786 21.454C8.50786 21.3692 8.51265 21.2846 8.51724 21.1997L8.55497 20.2763H8.56915L8.57373 20.201C8.5927 19.909 8.62084 19.6121 8.6444 19.3153H8.63502L8.70569 18.5898L3.41545 26.2686C3.23139 26.5362 3.26516 26.8971 3.4955 27.126Z" fill="#2258A8"/>
</svg>
