<svg width="22" height="30" viewBox="0 0 22 30" fill="none" xmlns="http://www.w3.org/2000/svg">
<path d="M9.78622 15.4141C9.77053 15.416 9.75484 15.418 9.7372 15.418C9.71955 15.418 9.70386 15.416 9.68818 15.4141C9.48426 15.3905 9.32739 15.216 9.32739 15.0082C9.32739 14.7827 9.51171 14.5984 9.7372 14.5984C9.96269 14.5984 10.147 14.7827 10.147 15.0082C10.147 15.216 9.99014 15.3905 9.78622 15.4141Z" fill="#2258A8"/>
<path d="M5.41357 30H14.0685V25.0628H5.41357V30Z" fill="#2258A8"/>
<path d="M15.8745 15.3357H16.6352C16.5568 16.9906 15.8941 18.4965 14.847 19.6474L14.3117 19.1122C14.247 19.0474 14.1627 19.0161 14.0784 19.0161C13.9941 19.0161 13.9097 19.0474 13.845 19.1122C13.7156 19.2416 13.7156 19.4494 13.845 19.5788L14.3803 20.1141C13.2294 21.1612 11.7254 21.8259 10.0686 21.9024V21.1416C10.0686 20.9592 9.92151 20.8122 9.73916 20.8122C9.55681 20.8122 9.40975 20.9592 9.40975 21.1416V21.9024C7.75484 21.8239 6.24896 21.1612 5.09798 20.1141L5.63328 19.5788C5.76269 19.4494 5.76269 19.2416 5.63328 19.1122C5.56857 19.0474 5.48426 19.0161 5.39994 19.0161C5.31563 19.0161 5.23131 19.0474 5.16661 19.1122L4.63131 19.6474C3.58426 18.4965 2.91955 16.9925 2.84308 15.3357H3.60386C3.78622 15.3357 3.93328 15.1886 3.93328 15.0063C3.93328 14.8239 3.78622 14.6769 3.60386 14.6769H2.84308C2.92151 13.022 3.58426 11.5161 4.63131 10.3651L5.16661 10.9004C5.29602 11.0298 5.50386 11.0298 5.63328 10.9004C5.76269 10.771 5.76269 10.5631 5.63328 10.4337L5.09798 9.89843C6.24896 8.85137 7.75288 8.18862 9.40975 8.11019V8.87098C9.40975 9.05333 9.55681 9.20039 9.73916 9.20039C9.92151 9.20039 10.0686 9.05333 10.0686 8.87098V8.11019C11.7235 8.18862 13.2294 8.85137 14.3803 9.89843L13.845 10.4337C13.7156 10.5631 13.7156 10.771 13.845 10.9004C13.9745 11.0298 14.1823 11.0298 14.3117 10.9004L14.847 10.3651C15.8941 11.5161 16.5588 13.02 16.6352 14.6769H15.8745C15.6921 14.6769 15.545 14.8239 15.545 15.0063C15.5431 15.1886 15.6921 15.3357 15.8745 15.3357ZM12.6666 12.0769C12.6019 12.0122 12.5176 11.9808 12.4333 11.9808C12.349 11.9808 12.2646 12.0122 12.1999 12.0769L10.2235 14.0533C10.0784 13.9788 9.91171 13.9357 9.7372 13.9357C9.147 13.9357 8.66857 14.4161 8.66857 15.0043C8.66857 15.4788 8.98033 15.8827 9.40779 16.022V18.5396C9.40779 18.722 9.55485 18.869 9.7372 18.869C9.91955 18.869 10.0666 18.722 10.0666 18.5396V16.0239C10.496 15.8847 10.8058 15.4808 10.8058 15.0063C10.8058 14.8318 10.7627 14.6671 10.6882 14.52L12.6646 12.5435C12.796 12.4141 12.796 12.2063 12.6666 12.0769Z" fill="#2258A8"/>
<path d="M15.7118 24.418V26.4004H14.7294V24.7337C14.7294 24.5573 14.5902 24.4122 14.4137 24.4043C14.4078 24.4043 14.402 24.4043 14.3961 24.4043H5.08236H5.07647C4.89412 24.4043 4.74706 24.5514 4.74706 24.7337V26.4004H3.76667V24.418C3.76667 23.4063 3.3902 22.4553 2.70392 21.7416C0.960785 19.922 0 17.5298 0 15.0082C0 12.4867 0.960785 10.0945 2.70392 8.27491C3.38824 7.56118 3.76667 6.6102 3.76667 5.59843V3.61608H4.74706V5.2651C4.74706 5.38079 4.80784 5.48275 4.89804 5.54157C4.9 5.54353 4.90392 5.54549 4.90588 5.54745C4.95686 5.58079 5.01765 5.59843 5.08236 5.59843H14.3961C14.5177 5.59843 14.6235 5.53373 14.6804 5.43569L14.6863 5.42392C14.7118 5.37687 14.7275 5.32196 14.7275 5.2651V3.61608H15.7098V5.59843C15.7098 6.6102 16.0863 7.56118 16.7706 8.27491C18.2275 9.79647 19.1373 11.718 19.398 13.7808C19.398 13.7867 19.4 13.7926 19.4 13.7965C19.449 14.1965 19.4745 14.6004 19.4745 15.0082C19.4745 17.5298 18.5137 19.922 16.7706 21.7416C16.0882 22.4553 15.7118 23.4063 15.7118 24.418ZM16.7078 12.0631C16.3275 11.1631 15.7824 10.3533 15.0863 9.65922C14.3922 8.9651 13.5824 8.42 12.6824 8.03765C11.749 7.64353 10.7588 7.44353 9.73726 7.44353C8.71569 7.44353 7.72549 7.64353 6.79216 8.03765C5.89216 8.41804 5.08235 8.96314 4.38824 9.65922C3.69412 10.3533 3.14902 11.1631 2.76667 12.0631C2.37255 12.9965 2.17255 13.9867 2.17255 15.0082C2.17255 16.0298 2.37255 17.02 2.76667 17.9533C3.14706 18.8533 3.69216 19.6631 4.38824 20.3573C5.08235 21.0514 5.89216 21.5965 6.79216 21.9788C7.72549 22.3729 8.71569 22.5729 9.73726 22.5729C10.7588 22.5729 11.749 22.3729 12.6824 21.9788C13.5824 21.5984 14.3922 21.0533 15.0863 20.3573C15.7804 19.6631 16.3255 18.8533 16.7078 17.9533C17.102 17.02 17.302 16.0298 17.302 15.0082C17.302 13.9867 17.102 12.9965 16.7078 12.0631Z" fill="#2258A8"/>
<path d="M5.41357 4.93165H14.0685V0.000274181H5.41357V4.93165Z" fill="#2258A8"/>
<path d="M20.0156 16.5918C20.0509 16.3663 20.0763 16.1389 20.096 15.9114C20.1214 15.6114 20.1352 15.3095 20.1352 15.0075C20.1352 14.7036 20.1214 14.4016 20.096 14.1036C20.0763 13.8742 20.0489 13.6487 20.0156 13.4232C20.3842 13.4565 20.7273 13.6173 20.992 13.882C21.292 14.182 21.4587 14.582 21.4587 15.0075C21.4587 15.8349 20.8234 16.5173 20.0156 16.5918Z" fill="#2258A8"/>
</svg>
