<svg width="21" height="26" viewBox="0 0 21 26" fill="none" xmlns="http://www.w3.org/2000/svg">
<path d="M0.037775 21.2787C0.0533466 21.101 0.0739727 20.9238 0.0998096 20.7473C0.0998421 20.747 0.203003 20.1745 0.22287 20.0871C0.452284 19.0806 1.07763 18.3426 1.92244 17.7701C2.08044 17.6631 2.24441 17.5702 2.41046 17.4829C2.62932 17.3679 5.93696 16.2809 6.02306 16.2539C6.00272 16.367 5.98882 16.4921 5.98424 16.628C5.52368 16.9514 4.16613 18.1187 4.7826 20.3029C4.7826 20.3029 5.75717 19.1412 6.75141 18.9919C7.69838 20.6426 9.31042 22.7321 10.1787 23.2805C11.0469 22.7321 12.6589 20.6426 13.6059 18.9918C14.6002 19.1412 15.5747 20.3028 15.5747 20.3028C16.1912 18.1187 14.8336 16.9514 14.373 16.628C14.3685 16.4921 14.3546 16.367 14.3343 16.2539C14.4204 16.2809 17.728 17.3679 17.9469 17.4829C18.1128 17.5702 18.2768 17.663 18.4349 17.7701C19.2797 18.3426 19.905 19.0806 20.1344 20.0871C20.1543 20.1746 20.2575 20.7471 20.2575 20.7473C20.2833 20.9238 20.304 21.101 20.3195 21.2787C20.3202 21.2861 20.3572 22.2107 20.3572 22.216C20.3572 22.216 20.3477 22.6493 20.3423 22.7528C20.3126 23.3275 20.192 23.862 19.7726 24.3074C19.238 24.8747 18.5887 25.1069 17.8273 25.1065C15.2778 25.1053 12.7282 25.105 10.1787 25.105C7.62904 25.105 5.07951 25.1053 2.53004 25.1065C1.76862 25.107 1.11929 24.8747 0.584757 24.3074C0.165319 23.862 0.0447235 23.3275 0.0150642 22.7528C0.00966263 22.6493 0.00012207 22.216 0.00012207 22.216C9.15527e-05 22.2107 0.0370789 21.286 0.037775 21.2787Z" fill="#2258A8"/>
<path d="M16.1777 10.7577C16.0985 11.0437 16.0478 11.3129 16.0498 11.5685C16.0504 11.6536 16.0569 11.7373 16.0702 11.8195C16.1418 12.0614 16.6514 12.8765 16.7327 13.0135C15.8348 13.9816 14.6455 14.2062 13.4726 14.4533C13.1258 14.5264 12.7723 14.5702 12.3965 14.6188C12.2754 14.6409 12.1534 14.6635 12.0306 14.6869L12.6265 16.4288C12.6265 16.4288 12.6434 18.9706 10.1862 20.5173H10.1708C7.71363 18.9705 7.73056 16.4288 7.73056 16.4288L8.32647 14.6869C8.20366 14.6636 8.08164 14.6409 7.96048 14.6189C7.58472 14.5703 7.23121 14.5264 6.88442 14.4535C5.71149 14.2063 4.52226 13.9817 3.62426 13.0136C3.70559 12.8766 4.21527 12.0615 4.28685 11.8196C4.30011 11.7373 4.30659 11.6537 4.30725 11.5685C4.30921 11.313 4.25851 11.0438 4.17936 10.7577C4.10409 10.4858 4.01741 10.2152 3.93478 9.94326C3.53777 9.05856 3.3167 8.07638 3.3167 7.04201C3.3167 3.19582 6.37373 0.0704694 10.1709 0.00053697V0C10.1735 3.15865e-05 10.176 0.000189519 10.1786 0.000221105C10.1812 0.000189519 10.1837 6.31729e-05 10.1863 0V0.000473797C13.9834 0.0704062 17.0404 3.19576 17.0404 7.04195C17.0404 8.07625 16.8193 9.05846 16.4223 9.9432C16.3396 10.2151 16.2529 10.4857 16.1777 10.7577Z" fill="#2258A8"/>
</svg>
