<svg width="19" height="19" viewBox="0 0 19 19" fill="none" xmlns="http://www.w3.org/2000/svg">
<g clip-path="url(#clip0_5071_5263)">
<path d="M11.0433 0.557762C11.0138 -0.180991 9.95883 -0.180434 9.92969 0.557762V1.48297H11.0433V0.557762Z" fill="#2258A8"/>
<path d="M18.43 17.8825H16.6857V11.6472H11.0748V17.8825H9.96124V11.0904C9.96124 10.7829 10.2105 10.5336 10.518 10.5336H13.3235V5.22756C13.3235 5.05622 13.1845 4.91732 13.0132 4.91732H12.7595C12.452 4.91732 12.2027 4.66802 12.2027 4.36053V2.90692C12.2027 2.73558 12.0638 2.59668 11.8925 2.59668H8.97449C8.80315 2.59668 8.66425 2.73558 8.66425 2.90692V4.36049C8.66425 4.66799 8.41495 4.91728 8.10745 4.91728H7.95949C7.78815 4.91728 7.64925 5.05618 7.64925 5.22753V17.8825H6.53566V5.109C3.80753 5.38773 1.67909 7.6923 1.67909 10.494V17.8825H0.569925C-0.182079 17.9098 -0.19251 18.9605 0.554186 18.996H18.4458C19.1928 18.9603 19.1816 17.9096 18.43 17.8825ZM11.6835 6.03892C11.991 6.03892 12.2403 6.28822 12.2403 6.59571C12.211 7.33428 11.1559 7.3341 11.1267 6.59571C11.1267 6.28822 11.376 6.03892 11.6835 6.03892ZM11.6835 8.37986C11.991 8.37986 12.2403 8.62916 12.2403 8.93666C12.211 9.67522 11.1559 9.67504 11.1267 8.93666C11.1267 8.62916 11.376 8.37986 11.6835 8.37986ZM10.518 3.69798C10.8255 3.69798 11.0748 3.94727 11.0748 4.25477C11.0455 4.99334 9.99045 4.99315 9.96124 4.25477C9.96124 3.94727 10.2105 3.69798 10.518 3.69798ZM9.40567 6.03892C9.71317 6.03892 9.96246 6.28822 9.96246 6.59571C9.93314 7.33428 8.87809 7.3341 8.84888 6.59571C8.84888 6.28822 9.09817 6.03892 9.40567 6.03892ZM9.40567 8.37986C9.71317 8.37986 9.96246 8.62916 9.96246 8.93666C9.93314 9.67522 8.87809 9.67504 8.84888 8.93666C8.84888 8.62916 9.09817 8.37986 9.40567 8.37986ZM4.3857 8.7783C4.6932 8.7783 4.94249 9.0276 4.94249 9.3351C4.91317 10.0737 3.85812 10.0735 3.82891 9.3351C3.82891 9.0276 4.0782 8.7783 4.3857 8.7783ZM4.3857 10.9844C4.6932 10.9844 4.94249 11.2337 4.94249 11.5412C4.91317 12.2798 3.85812 12.2796 3.82891 11.5412C3.82891 11.2337 4.0782 10.9844 4.3857 10.9844ZM4.3857 13.3328C4.6932 13.3328 4.94249 13.5821 4.94249 13.8896C4.91317 14.6281 3.85812 14.6279 3.82891 13.8896C3.82891 13.5821 4.0782 13.3328 4.3857 13.3328ZM4.3857 15.6811C4.6932 15.6811 4.94249 15.9304 4.94249 16.2379C4.91317 16.9764 3.85812 16.9763 3.82891 16.2379C3.82891 15.9304 4.0782 15.6811 4.3857 15.6811ZM12.2027 17.8825V13.7426C12.2322 13.0038 13.2872 13.0044 13.3163 13.7426V17.8825L12.2027 17.8825ZM14.4442 17.8825V13.7426C14.4736 13.0038 15.5286 13.0044 15.5578 13.7426V17.8825L14.4442 17.8825Z" fill="#2258A8"/>
</g>
<defs>
<clipPath id="clip0_5071_5263">
<rect width="19" height="19" fill="white"/>
</clipPath>
</defs>
</svg>
