<svg width="12" height="12" viewBox="0 0 12 12" fill="none" xmlns="http://www.w3.org/2000/svg">
<path d="M11.2311 7.26025L5.12257 10.7872V11.0022C5.12257 11.3743 5.00273 11.7188 4.80016 11.9998H11.0024C11.5525 11.9998 12 11.5523 12 11.0022V8.23108C12 7.75973 11.6713 7.36396 11.2311 7.26025Z" fill="#7C7D88"/>
<path d="M11.0483 5.39245L10.0188 3.60829C9.84114 3.30053 9.50987 3.10938 9.15428 3.10938C9.0568 3.10938 8.96012 3.12433 8.86721 3.15238L5.12256 9.63824V9.96433L10.7254 6.72939C10.9341 6.59505 11.0833 6.39084 11.148 6.14943C11.2169 5.89206 11.1816 5.62321 11.0483 5.39245Z" fill="#7C7D88"/>
<path d="M8.23874 2.23048C8.16976 1.97309 8.00469 1.75796 7.77392 1.62477L5.99162 0.595672C5.84005 0.50818 5.66778 0.461914 5.49341 0.461914C5.34306 0.461914 5.19721 0.496414 5.0653 0.559156C5.10247 0.699172 5.12253 0.846078 5.12253 0.997648V8.21225L8.13906 2.98749C8.2723 2.75673 8.30771 2.4879 8.23874 2.23048Z" fill="#7C7D88"/>
<path d="M3.41241 0H0.997594C0.447516 0 0 0.447516 0 0.997594V11.0024C0 11.5525 0.447516 12 0.997594 12H2.54009H3.41241C3.96248 12 4.41 11.5525 4.41 11.0024V0.997594C4.41002 0.447516 3.96248 0 3.41241 0ZM2.20502 10.4641C1.83607 10.4641 1.53593 10.1639 1.53593 9.795C1.53593 9.42609 1.83609 9.12593 2.20502 9.12593C2.57395 9.12593 2.87409 9.42609 2.87409 9.795C2.87409 10.1639 2.57393 10.4641 2.20502 10.4641Z" fill="#7C7D88"/>
</svg>
