<svg width="7" height="16" viewBox="0 0 7 16" fill="none" xmlns="http://www.w3.org/2000/svg">
<path fill-rule="evenodd" clip-rule="evenodd" d="M4.75733 1.49177L4.75733 8.29355C4.75733 8.33028 4.7274 8.36022 4.69066 8.36022L0.624389 8.36022C0.587655 8.36022 0.557722 8.33028 0.557722 8.29355L0.557722 1.49177C0.557722 1.45504 0.587656 1.4251 0.624389 1.4251L4.69066 1.4251C4.7274 1.42514 4.75733 1.45507 4.75733 1.49177ZM5.315 0.891802L5.315 0.066667C5.315 0.029967 5.28507 2.31015e-07 5.24833 2.29409e-07L0.0667212 2.91406e-09C0.0299876 1.30838e-09 5.45807e-05 0.0299334 5.45791e-05 0.0666668L5.4543e-05 0.891802C5.45414e-05 0.928535 0.0299875 0.958469 0.0667211 0.958469L5.24833 0.958469C5.28507 0.958469 5.315 0.928536 5.315 0.891802ZM5.315 9.71869L5.315 8.89355C5.315 8.85682 5.28507 8.82689 5.24833 8.82689L0.0667208 8.82689C0.0299872 8.82689 5.41948e-05 8.85682 5.41932e-05 8.89355L5.41572e-05 9.71869C5.41556e-05 9.75542 0.0299871 9.78535 0.0667208 9.78535L5.24833 9.78535C5.28507 9.78535 5.315 9.75542 5.315 9.71869ZM4.2869 12.808L4.2869 14.3707C4.2869 15.2668 3.55369 16 2.65756 16C1.76142 16 1.02822 15.2668 1.02822 14.3707L1.02822 12.808C1.02822 12.7713 1.05816 12.7413 1.09489 12.7413L4.22026 12.7413C4.25693 12.7413 4.2869 12.7713 4.2869 12.808ZM3.44813 14.3707C3.44813 13.9359 3.09236 13.5801 2.65756 13.5801C2.22273 13.5801 1.86699 13.9359 1.86699 14.3707C1.86699 14.8055 2.22276 15.1613 2.65756 15.1613C3.09236 15.1613 3.44813 14.8055 3.44813 14.3707ZM6.28667 7.10878L6.28667 8.14098C6.28667 8.17772 6.25673 8.20765 6.22 8.20765L5.29067 8.20765C5.25393 8.20765 5.224 8.17772 5.224 8.14098L5.224 7.10878C5.224 7.07205 5.25393 7.04211 5.29067 7.04211L6.22 7.04212C6.2567 7.04212 6.28667 7.07205 6.28667 7.10878ZM6.28667 1.7807L6.28667 2.81291C6.28667 2.84964 6.25673 2.87957 6.22 2.87957L5.29067 2.87957C5.25393 2.87957 5.224 2.84964 5.224 2.81291L5.224 1.7807C5.224 1.74397 5.25393 1.71404 5.29067 1.71404L6.22 1.71404C6.2567 1.71404 6.28667 1.74397 6.28667 1.7807ZM3.537 10.3187L3.537 12.208C3.537 12.2447 3.50706 12.2747 3.47033 12.2747L1.84476 12.2747C1.80802 12.2747 1.77809 12.2447 1.77809 12.208L1.77809 10.3187C1.77809 10.2819 1.80802 10.252 1.84476 10.252L3.47033 10.252C3.50703 10.252 3.537 10.282 3.537 10.3187Z" fill="#7C7D88"/>
</svg>
