<svg width="12" height="12" viewBox="0 0 12 12" fill="none" xmlns="http://www.w3.org/2000/svg">
<path d="M8.48438 12H3.51562C1.575 12 0 10.425 0 8.48438V3.51562C0 1.575 1.575 0 3.51562 0H8.48438C10.425 0 12 1.575 12 3.51562V8.48438C12 10.425 10.425 12 8.48438 12ZM10.8281 3.51562C10.8281 2.22328 9.77672 1.17188 8.48438 1.17188H3.51562C2.22328 1.17188 1.17188 2.22328 1.17188 3.51562V8.48438C1.17188 9.77672 2.22328 10.8281 3.51562 10.8281H8.48438C9.77672 10.8281 10.8281 9.77672 10.8281 8.48438V3.51562ZM4.875 3.75V2.625L3 4.5L4.875 6.375V5.25H9V3.75H4.875ZM7.125 6.75V5.625L9 7.5L7.125 9.375V8.25H3V6.75H7.125Z" fill="#A8A9B2"/>
</svg>
