<svg width="10" height="10" viewBox="0 0 10 10" fill="none" xmlns="http://www.w3.org/2000/svg">
<path d="M9.70352 10H6.2072C6.04273 10 5.90899 9.86626 5.90899 9.70179C5.90899 9.53732 6.04273 9.40357 6.2072 9.40357H8.98239L5.46258 5.88286C5.346 5.76628 5.346 5.57742 5.46258 5.46084C5.57915 5.34427 5.76802 5.34427 5.88459 5.46084L9.4044 8.98156V6.20637C9.4044 6.04191 9.53815 5.90816 9.70262 5.90816C9.86709 5.90816 10.0008 6.04191 10.0008 6.20637V9.70179C10.0017 9.86626 9.86799 10 9.70352 10Z" fill="#7C7D88"/>
<path d="M0.29614 0H3.77861C3.94243 0 4.07564 0.133214 4.07564 0.297032C4.07564 0.460849 3.94243 0.594063 3.77861 0.594063H1.01442L4.52029 4.10084C4.6364 4.21695 4.6364 4.40507 4.52029 4.52118C4.40418 4.6373 4.21606 4.6373 4.09995 4.52118L0.594072 1.01441V3.7786C0.594072 3.94242 0.460858 4.07564 0.29704 4.07564C0.133223 4.07564 9.05991e-06 3.94242 9.05991e-06 3.7786V0.297032C-0.000891209 0.133214 0.132323 0 0.29614 0Z" fill="#7C7D88"/>
</svg>
