<svg width="12" height="14" viewBox="0 0 12 14" fill="none" xmlns="http://www.w3.org/2000/svg">
<path d="M11.582 1.83557L10.4153 0.668819C10.3013 0.55487 10.1167 0.55487 10.0028 0.668819C9.88885 0.782768 9.88885 0.967351 10.0028 1.08127L10.9633 2.04179L10.0028 3.0023C9.94811 3.05699 9.91735 3.13104 9.91735 3.20854V4.0836C9.91735 4.7271 10.4406 5.25036 11.0841 5.25036V10.209C11.0841 10.3699 10.9534 10.5007 10.7924 10.5007C10.6315 10.5007 10.5007 10.37 10.5007 10.209V9.62565C10.5007 9.14311 10.1082 8.75059 9.62565 8.75059H9.33398V1.16675C9.33398 0.523258 8.81073 0 8.16723 0H2.33351C1.69004 0 1.16675 0.523258 1.16675 1.16675V11.6675C0.523286 11.6675 0 12.1907 0 12.8342V13.7093C0 13.8705 0.130466 14.001 0.291696 14.001H10.209C10.3703 14.001 10.5007 13.8705 10.5007 13.7093V12.8342C10.5007 12.1908 9.97748 11.6675 9.33398 11.6675V9.33399H9.62568C9.78661 9.33399 9.91738 9.46472 9.91738 9.62568V10.209C9.91738 10.6916 10.3099 11.0841 10.7924 11.0841C11.275 11.0841 11.6675 10.6916 11.6675 10.209V2.04181C11.6675 1.96432 11.6367 1.89026 11.582 1.83557ZM8.16723 4.96408C8.16723 5.1253 8.03676 5.25577 7.87553 5.25577H2.62518C2.46395 5.25577 2.33348 5.1253 2.33348 4.96408V1.45842C2.33348 1.29719 2.46395 1.16673 2.62518 1.16673H7.87553C8.03676 1.16673 8.16723 1.29719 8.16723 1.45842V4.96408Z" fill="#7C7D88"/>
</svg>
