<svg width="14" height="12" viewBox="0 0 14 12" fill="none" xmlns="http://www.w3.org/2000/svg">
<path d="M12.6806 4.42816L11.7187 1.22209C11.4994 0.49093 10.8394 0 10.0764 0H3.63783C2.87485 0 2.21484 0.490931 1.99553 1.22209L1.0337 4.42816C0.42637 4.69209 0 5.2965 0 5.99999V9.42855C0 9.9019 0.383788 10.2857 0.857141 10.2857V11.1428C0.857141 11.6162 1.24088 12 1.71428 12H2.57147C3.04483 12 3.42862 11.6162 3.42862 11.1428L3.42825 10.2857H10.2857L10.2856 11.1428C10.2856 11.6162 10.6694 12 11.1428 12H12C12.4734 12 12.8571 11.6162 12.8571 11.1428V10.2857C13.3305 10.2857 13.7143 9.9019 13.7143 9.42855V5.99999C13.7143 5.2965 13.2879 4.69209 12.6806 4.42816ZM3.6378 1.71428H10.0764L10.8479 4.28571H2.86635L3.6378 1.71428ZM3.42854 8.14284C2.95513 8.14284 2.5714 7.75905 2.5714 7.2857C2.5714 6.81229 2.95513 6.42856 3.42854 6.42856C3.90194 6.42856 4.28568 6.81229 4.28568 7.2857C4.28568 7.75905 3.90194 8.14284 3.42854 8.14284ZM10.2857 8.14284C9.81226 8.14284 9.42852 7.75905 9.42852 7.2857C9.42852 6.81229 9.81226 6.42856 10.2857 6.42856C10.7591 6.42856 11.1428 6.81229 11.1428 7.2857C11.1428 7.75905 10.7591 8.14284 10.2857 8.14284Z" fill="#7C7D88"/>
</svg>
