<svg width="15" height="15" viewBox="0 0 15 15" fill="none" xmlns="http://www.w3.org/2000/svg">
<path d="M6.52116 3.90624C6.50413 3.8892 6.48234 3.88069 6.45585 3.88069H5.97007C5.93785 3.72354 5.87725 3.58713 5.78824 3.47161H6.45014C6.4767 3.47161 6.49843 3.46309 6.51551 3.44609C6.53247 3.42905 6.54099 3.40725 6.54099 3.38074V3.09091C6.54099 3.06438 6.53248 3.04262 6.51551 3.02556C6.49841 3.00855 6.47668 3 6.45012 3H4.0865C4.05997 3 4.03821 3.00855 4.02116 3.02555C4.00415 3.04261 3.99561 3.06437 3.99561 3.0909V3.46873C3.99561 3.49335 4.0046 3.51465 4.02259 3.53264C4.04058 3.55064 4.06189 3.55963 4.0865 3.55963H4.49844C4.89804 3.55963 5.15183 3.66661 5.25977 3.88064H4.0865C4.05997 3.88064 4.03818 3.88915 4.02116 3.90619C4.00415 3.92326 3.99561 3.94501 3.99561 3.97154V4.26133C3.99561 4.28784 4.00411 4.30963 4.02116 4.32664C4.03821 4.3437 4.06001 4.35219 4.0865 4.35219H5.29961C5.25793 4.50753 5.16086 4.62589 5.00838 4.70733C4.85589 4.78878 4.6547 4.82951 4.40469 4.82951H4.0865C4.06189 4.82951 4.04058 4.83852 4.02259 4.8565C4.00459 4.8745 3.99561 4.89581 3.99561 4.92041V5.28124C3.99561 5.3059 4.00411 5.32672 4.02116 5.34375C4.38478 5.7301 4.85638 6.27078 5.43593 6.96591C5.45299 6.98866 5.47665 7 5.50696 7H6.06092C6.10073 7 6.12821 6.983 6.14332 6.94885C6.16226 6.91476 6.15854 6.88256 6.13195 6.85225C5.57898 6.1742 5.14429 5.66663 4.828 5.32952C5.14997 5.29165 5.41134 5.18746 5.61211 5.01704C5.81285 4.84659 5.93499 4.62496 5.97858 4.35224H6.45585C6.48234 4.35224 6.50414 4.34374 6.52116 4.32669C6.53822 4.30968 6.54676 4.28789 6.54676 4.26138V3.97162C6.54676 3.94506 6.53822 3.9233 6.52116 3.90624Z" fill="#7C7D88"/>
<path fill-rule="evenodd" clip-rule="evenodd" d="M5.16259 10.3251C3.78701 10.3251 2.48601 9.78651 1.51648 8.80869C0.538654 7.83087 2.28882e-05 6.53815 2.28882e-05 5.16257C2.28882e-05 3.7787 0.538654 2.48599 1.51648 1.50817C2.48601 0.530344 3.78701 0 5.16259 0C6.53817 0 7.83917 0.530344 8.817 1.50817C9.78653 2.48599 10.3252 3.7787 10.3252 5.16257C10.3252 6.53815 9.78653 7.83087 8.817 8.80869C7.83917 9.78651 6.53817 10.3251 5.16259 10.3251ZM5.16259 9.16501C4.09362 9.16501 3.08265 8.75068 2.32857 7.9966C1.57448 7.23423 1.15186 6.23155 1.15186 5.16257C1.15186 4.08531 1.57448 3.08263 2.32857 2.32026C3.08265 1.56617 4.09362 1.15184 5.16259 1.15184C6.23157 1.15184 7.24254 1.56617 7.99662 2.32026C9.56279 3.88643 9.56279 6.43042 7.99662 7.9966C7.24254 8.75068 6.23157 9.16501 5.16259 9.16501Z" fill="#7C7D88"/>
<path fill-rule="evenodd" clip-rule="evenodd" d="M9.92737 10.814C9.86107 10.814 9.79478 10.7892 9.74506 10.7395L8.63465 9.62905C8.82524 9.47989 8.99926 9.33073 9.165 9.15671C9.35559 8.9744 9.52132 8.77553 9.67877 8.56836L10.7975 9.68705C10.8969 9.78649 10.8969 9.94394 10.7975 10.0434C10.7477 10.0848 10.6897 10.1097 10.6234 10.1097C10.5654 10.1097 10.5157 10.0931 10.4743 10.06L10.1511 10.4577C10.1925 10.5489 10.176 10.6566 10.1014 10.7395C10.0517 10.7892 9.98537 10.814 9.92737 10.814Z" fill="#7C7D88"/>
<path fill-rule="evenodd" clip-rule="evenodd" d="M13.068 14.0788C12.7863 14.0788 12.5128 13.9711 12.3139 13.7639L9.97709 11.4353C9.77821 11.2365 9.67049 10.963 9.67049 10.6813C9.67049 10.3912 9.77821 10.1178 9.97709 9.9189C10.1843 9.72002 10.4494 9.604 10.7395 9.604C11.0295 9.604 11.2947 9.72002 11.5018 9.9189L13.8304 12.2474C14.2447 12.6701 14.2447 13.3496 13.8304 13.7639C13.6232 13.9711 13.358 14.0788 13.068 14.0788Z" fill="#7C7D88"/>
<path fill-rule="evenodd" clip-rule="evenodd" d="M3.48864 6.83632C2.56053 5.90822 2.56053 4.40834 3.48864 3.48024C3.57979 3.3808 3.57979 3.22335 3.48864 3.1322C3.3892 3.03276 3.23175 3.03276 3.13231 3.1322C2.01362 4.25089 2.01362 6.06566 3.13231 7.18436C3.18203 7.23408 3.24832 7.25894 3.30633 7.25894C3.37262 7.25894 3.43892 7.23408 3.48864 7.18436C3.57979 7.09321 3.57979 6.93576 3.48864 6.83632Z" fill="#7C7D88"/>
</svg>
