<svg width="12" height="12" viewBox="0 0 12 12" fill="none" xmlns="http://www.w3.org/2000/svg">
<path d="M9.97931 4.27132C9.53477 3.55914 8.90773 2.97891 8.16326 2.59085C8.12073 2.03655 7.86958 1.519 7.46047 1.14258C7.05137 0.766165 6.51474 0.558884 5.95883 0.562548C5.40291 0.566211 4.86906 0.780545 4.46495 1.16232C4.06084 1.5441 3.81654 2.06491 3.78131 2.61973C3.03395 3.01957 2.4094 3.61514 1.97451 4.34267C1.53963 5.0702 1.31079 5.90231 1.3125 6.74991C1.3125 9.33459 3.41531 11.4374 6 11.4374C8.58469 11.4374 10.6875 9.33459 10.6875 6.74991C10.6883 5.87368 10.443 5.01484 9.97931 4.27132ZM5.07738 2.95824C5.07738 2.78106 5.12992 2.60786 5.22836 2.46054C5.32679 2.31322 5.4667 2.1984 5.63039 2.1306C5.79409 2.0628 5.97421 2.04506 6.14798 2.07962C6.32175 2.11419 6.48138 2.19951 6.60666 2.32479C6.73194 2.45007 6.81726 2.60969 6.85183 2.78347C6.88639 2.95724 6.86865 3.13736 6.80085 3.30105C6.73305 3.46475 6.61823 3.60465 6.47091 3.70309C6.32359 3.80152 6.15039 3.85406 5.97321 3.85406C5.73571 3.85379 5.50801 3.75932 5.34007 3.59138C5.17213 3.42344 5.07766 3.19574 5.07738 2.95824ZM5.625 11.046C3.86016 10.8932 2.39609 9.67331 1.88346 8.03639L3.85608 7.7546C4.0345 7.72834 4.19758 7.63898 4.31573 7.50273C4.43388 7.36649 4.49926 7.19239 4.5 7.01206V6.18741C4.49978 5.98856 4.42069 5.79793 4.28009 5.65732C4.13948 5.51672 3.94885 5.43763 3.75 5.43741C3.65058 5.4373 3.55526 5.39775 3.48496 5.32745C3.41466 5.25715 3.37511 5.16183 3.375 5.06241V4.87491C3.37478 4.67606 3.29569 4.48543 3.15509 4.34482C3.01448 4.20422 2.82385 4.12513 2.625 4.12491H2.57578C2.91232 3.68696 3.32981 3.3177 3.8056 3.0372C3.99544 4.05907 5.08149 5.7627 5.50085 6.32529C5.55569 6.39888 5.62697 6.45864 5.70899 6.49981C5.79101 6.54098 5.88152 6.56242 5.9733 6.56242C6.06507 6.56242 6.15558 6.54098 6.2376 6.49981C6.31962 6.45864 6.3909 6.39888 6.44574 6.32529C6.86897 5.75752 7.97119 4.02767 8.14608 3.00909C8.97255 3.48343 9.6187 4.21808 9.98364 5.09834C10.3486 5.97861 10.4118 6.95494 10.1633 7.87491H9.75C9.65058 7.8748 9.55526 7.83525 9.48496 7.76495C9.41466 7.69465 9.37511 7.59933 9.375 7.49991C9.37472 7.25135 9.27586 7.01306 9.10011 6.8373C8.92435 6.66155 8.68606 6.56269 8.4375 6.56241H8.0625C7.81395 6.56269 7.57565 6.66155 7.3999 6.8373C7.22414 7.01306 7.12528 7.25135 7.125 7.49991V7.87491C7.12483 8.02404 7.06552 8.16702 6.96006 8.27247C6.85461 8.37792 6.71164 8.43724 6.5625 8.43741C6.31395 8.43769 6.07565 8.53655 5.8999 8.7123C5.72414 8.88806 5.62528 9.12635 5.625 9.37491V11.046Z" fill="#7C7D88"/>
</svg>
