<svg width="14" height="14" viewBox="0 0 14 14" fill="none" xmlns="http://www.w3.org/2000/svg">
<path fill-rule="evenodd" clip-rule="evenodd" d="M14 7.00001C14 10.866 10.866 14 7.00001 14C3.13401 14 0 10.866 0 7.00001C0 3.13401 3.13401 0 7.00001 0C10.866 0 14 3.13401 14 7.00001ZM7.00001 6.30001C7.38662 6.30001 7.70002 6.6134 7.70002 7.00001V10.5007C7.70002 10.8873 7.38662 11.2007 7.00001 11.2007C6.6134 11.2007 6.30001 10.8873 6.30001 10.5007V7.00001C6.30001 6.6134 6.6134 6.30001 7.00001 6.30001ZM7.00001 4.90001C7.38662 4.90001 7.70002 4.58661 7.70002 4.20001C7.70002 3.81341 7.38662 3.50001 7.00001 3.50001C6.6134 3.50001 6.30001 3.81341 6.30001 4.20001C6.30001 4.58661 6.6134 4.90001 7.00001 4.90001Z" fill="#7C7D88"/>
</svg>
