<svg width="12" height="12" viewBox="0 0 12 12" fill="none" xmlns="http://www.w3.org/2000/svg">
<path d="M1.82086 6.47461C0.818669 6.47766 0.00609112 7.30477 -2.86102e-06 8.32781V10.1412C0.00609112 11.1652 0.817732 11.9939 1.82086 12H3.59719C4.59937 11.9937 5.40961 11.1642 5.41242 10.1412V8.32781C5.41242 7.3043 4.59984 6.47461 3.59719 6.47461H1.82086ZM9.44976 6.47461C9.35784 6.4649 9.26505 6.48157 9.18224 6.52266C9.09944 6.56375 9.03005 6.62756 8.98219 6.70664C8.93332 6.78655 8.90747 6.8784 8.90747 6.97207C8.90747 7.06574 8.93332 7.15759 8.98219 7.2375C9.03005 7.31658 9.09944 7.38039 9.18224 7.42148C9.26505 7.46257 9.35784 7.47924 9.44976 7.46953H10.1791C10.6444 7.46953 11.0229 7.85273 11.0255 8.32781V10.1184C11.0137 10.5895 10.6406 10.9678 10.1791 10.9767H8.39062C8.27931 10.9773 8.16901 10.9555 8.06626 10.9127C7.96352 10.8699 7.87042 10.8068 7.7925 10.7273C7.63292 10.5647 7.54376 10.3458 7.54429 10.118V7.42969L7.55179 7.36289C7.55604 7.27533 7.53734 7.18819 7.49755 7.11008C7.45776 7.03197 7.39825 6.96561 7.32492 6.91758C7.24271 6.86416 7.14617 6.8371 7.04817 6.83999C6.95018 6.84288 6.8554 6.87559 6.77648 6.93375C6.6967 6.99298 6.63614 7.07442 6.60238 7.16788C6.56861 7.26133 6.56314 7.36267 6.58664 7.45922V10.1355C6.58664 11.1621 7.40179 11.9944 8.4075 11.9944H10.1791C11.1762 11.9733 11.9794 11.1532 12 10.1355V8.32781C12.0008 7.83731 11.8092 7.36606 11.4663 7.01531C11.2987 6.8439 11.0984 6.70776 10.8774 6.6149C10.6563 6.52204 10.4189 6.47434 10.1791 6.47461H9.44976ZM1.82086 7.46953H3.59719C4.06148 7.46953 4.43812 7.85367 4.43812 8.32781V10.1412C4.4401 10.3686 4.35216 10.5876 4.19343 10.7505C4.11593 10.8301 4.02318 10.8932 3.92073 10.9361C3.81829 10.979 3.70825 11.0008 3.59719 11.0002H1.82086C1.7098 11.0007 1.59976 10.979 1.49731 10.9361C1.39487 10.8932 1.30212 10.8301 1.22461 10.7505C1.06588 10.5876 0.977942 10.3686 0.979919 10.1412V8.32781C0.979676 8.10108 1.06808 7.88323 1.22625 7.72078C1.30363 7.64141 1.39609 7.57831 1.4982 7.53516C1.60031 7.49202 1.71001 7.4697 1.82086 7.46953ZM1.82086 0C0.826169 0.0234375 0.026247 0.84375 0.00562191 1.85883V3.66656C-0.00125122 4.15607 0.183838 4.62881 0.521247 4.98352C0.686201 5.157 0.884131 5.29581 1.10343 5.39179C1.32273 5.48778 1.55899 5.53902 1.79836 5.5425H2.53359C2.65453 5.52694 2.76566 5.46785 2.84619 5.37629C2.92672 5.28473 2.97114 5.16698 2.97114 5.04504C2.97114 4.9231 2.92672 4.80534 2.84619 4.71378C2.76566 4.62223 2.65453 4.56314 2.53359 4.54758H1.82086C1.70882 4.54674 1.5981 4.52342 1.49524 4.47902C1.39238 4.43461 1.29948 4.37002 1.22203 4.28906C1.06361 4.12331 0.976734 3.90191 0.980154 3.67266V1.85883C0.986013 1.38727 1.35937 1.00781 1.82086 1.00055H3.59719C4.06148 1.00055 4.43812 1.38469 4.43812 1.85883V4.57031L4.44375 4.63266C4.46118 4.75148 4.52088 4.86003 4.61189 4.93839C4.7029 5.01674 4.81912 5.05964 4.93922 5.05922C5.00358 5.05759 5.06695 5.04303 5.12558 5.01642C5.1842 4.98981 5.23687 4.95168 5.28047 4.9043C5.36999 4.8073 5.41744 4.67878 5.41242 4.54688V1.85883C5.41486 1.3683 5.22466 0.896414 4.88273 0.544688C4.71564 0.372708 4.51581 0.235914 4.29503 0.142368C4.07424 0.0488211 3.83697 0.000414336 3.59719 0L1.82086 0ZM8.40281 0C7.39851 0.00304687 6.58594 0.833437 6.58195 1.85883V3.67219C6.58113 4.16269 6.77275 4.63394 7.11562 4.98469C7.28326 5.15612 7.4835 5.29228 7.70457 5.38514C7.92563 5.478 8.16304 5.52569 8.40281 5.52539H10.1791C11.1813 5.52234 11.9939 4.69523 12 3.67219V1.85883C11.9939 0.834844 11.1823 0.00609375 10.1791 0H8.40281ZM8.40281 1.00055H10.1791C10.2914 0.998394 10.4029 1.01901 10.5069 1.06114C10.611 1.10328 10.7054 1.16606 10.7845 1.2457C10.9465 1.40861 11.0372 1.62912 11.0367 1.85883V3.67219C11.0391 3.78734 11.0186 3.90183 10.9764 4.00898C10.9341 4.11613 10.871 4.21381 10.7906 4.29633C10.7112 4.37763 10.616 4.4418 10.5108 4.48489C10.4056 4.52798 10.2928 4.54908 10.1791 4.54688H8.40281C8.29095 4.54603 8.18039 4.52278 8.07766 4.4785C7.97493 4.43422 7.88211 4.36981 7.80469 4.28906C7.64629 4.12328 7.55935 3.90192 7.56258 3.67266V1.85883C7.56562 1.38609 7.94039 1.00359 8.40351 1.00055H8.40281Z" fill="#7C7D88"/>
</svg>
