<svg width="12" height="12" viewBox="0 0 12 12" fill="none" xmlns="http://www.w3.org/2000/svg">
<path d="M11.9996 1.39995C11.9996 0.604834 11.3367 -0.0354792 10.5335 0.00152726C9.82223 0.0342917 9.24245 0.607318 9.20202 1.31815C9.1683 1.91101 9.50379 2.4294 9.99966 2.66499V4.59983C9.99966 5.04163 9.64151 5.39979 9.1997 5.39979H7.26486C7.12656 5.10873 6.89086 4.873 6.5998 4.73473V2.66499C7.09567 2.42938 7.43117 1.91101 7.39744 1.31815C7.35702 0.607318 6.77724 0.0342917 6.06601 0.00152726C5.26274 -0.0354558 4.59988 0.604834 4.59988 1.39995C4.59988 1.95837 4.92691 2.4403 5.39984 2.66499V4.73475C5.10878 4.87305 4.87306 5.10875 4.73478 5.39981H1.99993V2.66499C2.49581 2.42938 2.8313 1.91101 2.79758 1.31815C2.75715 0.607318 2.17737 0.0342917 1.46614 0.00152726C0.66287 -0.0354558 1.04645e-05 0.604834 1.04645e-05 1.39995C1.04645e-05 1.95837 0.327046 2.4403 0.799974 2.66499V9.33457C0.304101 9.57018 -0.0313947 10.0886 0.00233069 10.6814C0.042759 11.3922 0.622535 11.9653 1.33377 11.998C2.13704 12.035 2.7999 11.3947 2.7999 10.5996C2.7999 10.0412 2.47286 9.55926 1.99993 9.33457V6.59977H4.73473C4.87303 6.89083 5.10874 7.12656 5.3998 7.26483V9.33459C4.90392 9.5702 4.56843 10.0886 4.60215 10.6814C4.64258 11.3923 5.22236 11.9653 5.93359 11.9981C6.73686 12.035 7.39972 11.3947 7.39972 10.5996C7.39972 10.0412 7.07268 9.55928 6.59975 9.33459V7.26483C6.89081 7.12653 7.12654 6.89083 7.26482 6.59977H9.19965C10.3042 6.59977 11.1996 5.70437 11.1996 4.59985V2.66499C11.6726 2.4403 11.9996 1.95837 11.9996 1.39995Z" fill="#7C7D88"/>
</svg>
