<svg width="15" height="14" viewBox="0 0 15 14" fill="none" xmlns="http://www.w3.org/2000/svg">
<path d="M12.5396 0H11.2243V1.31534C11.2243 1.57841 11.0051 1.75379 10.7859 1.75379C10.5666 1.75379 10.3474 1.57841 10.3474 1.31534V0H3.33224V1.31534C3.33224 1.57841 3.11302 1.75379 2.89379 1.75379C2.67457 1.75379 2.45535 1.57841 2.45535 1.31534V0H1.14C0.482331 0 3.8147e-05 0.569982 3.8147e-05 1.31534V2.89376H14.0304V1.31534C14.0304 0.569982 13.2412 0 12.5396 0ZM3.8147e-05 3.8145V11.8381C3.8147e-05 12.6273 0.482331 13.1534 1.18385 13.1534H12.5835C13.285 13.1534 14.0742 12.5835 14.0742 11.8381V3.8145H3.8147e-05ZM3.90222 11.1804H2.84995C2.67457 11.1804 2.49919 11.0489 2.49919 10.8297V9.73354C2.49919 9.55816 2.63072 9.38278 2.84995 9.38278H3.94607C4.12145 9.38278 4.29683 9.51432 4.29683 9.73354V10.8297C4.25298 11.0489 4.12145 11.1804 3.90222 11.1804ZM3.90222 7.23439H2.84995C2.67457 7.23439 2.49919 7.10285 2.49919 6.88363V5.78751C2.49919 5.61213 2.63072 5.43675 2.84995 5.43675H3.94607C4.12145 5.43675 4.29683 5.56829 4.29683 5.78751V6.88363C4.25298 7.10285 4.12145 7.23439 3.90222 7.23439ZM7.4098 11.1804H6.31369C6.13831 11.1804 5.96293 11.0489 5.96293 10.8297V9.73354C5.96293 9.55816 6.09446 9.38278 6.31369 9.38278H7.4098C7.58518 9.38278 7.76056 9.51432 7.76056 9.73354V10.8297C7.76056 11.0489 7.62903 11.1804 7.4098 11.1804ZM7.4098 7.23439H6.31369C6.13831 7.23439 5.96293 7.10285 5.96293 6.88363V5.78751C5.96293 5.61213 6.09446 5.43675 6.31369 5.43675H7.4098C7.58518 5.43675 7.76056 5.56829 7.76056 5.78751V6.88363C7.76056 7.10285 7.62903 7.23439 7.4098 7.23439ZM10.9174 11.1804H9.82127C9.64589 11.1804 9.47051 11.0489 9.47051 10.8297V9.73354C9.47051 9.55816 9.60204 9.38278 9.82127 9.38278H10.9174C11.0928 9.38278 11.2681 9.51432 11.2681 9.73354V10.8297C11.2681 11.0489 11.1366 11.1804 10.9174 11.1804ZM10.9174 7.23439H9.82127C9.64589 7.23439 9.47051 7.10285 9.47051 6.88363V5.78751C9.47051 5.61213 9.60204 5.43675 9.82127 5.43675H10.9174C11.0928 5.43675 11.2681 5.56829 11.2681 5.78751V6.88363C11.2681 7.10285 11.1366 7.23439 10.9174 7.23439Z" fill="#7C7D88"/>
</svg>
