<svg width="14" height="14" viewBox="0 0 14 14" fill="none" xmlns="http://www.w3.org/2000/svg">
<g clip-path="url(#clip0_5077_8011)">
<path d="M11.6447 9.90156H12.4577C11.9902 10.7809 11.3171 11.5346 10.4854 12.1037C9.45681 12.8076 8.25158 13.1797 7 13.1797C5.34934 13.1797 3.7975 12.5369 2.6303 11.3697C1.46311 10.2025 0.820312 8.65066 0.820312 7C0.820312 5.34934 1.46311 3.7975 2.6303 2.6303C3.7975 1.46311 5.34934 0.820312 7 0.820312C8.65066 0.820312 10.2025 1.46311 11.3697 2.6303C12.5369 3.7975 13.1797 5.34934 13.1797 7H14C14 5.13023 13.2719 3.37239 11.9498 2.05023C10.6276 0.728137 8.86977 0 7 0C5.13023 0 3.37239 0.728137 2.05023 2.05023C0.728137 3.37239 0 5.13023 0 7C0 8.86977 0.728137 10.6276 2.05023 11.9498C3.37239 13.2719 5.13023 14 7 14C8.41761 14 9.78305 13.5784 10.9487 12.7807C11.8889 12.1373 12.6503 11.2853 13.1797 10.291V11.4332H14V9.08121H11.6447V9.90156Z" fill="#7C7D88"/>
<path d="M8.9207 11.4074L7 9.89062L5.07929 11.4074C5.02411 11.451 4.97538 11.5005 4.93327 11.5544H9.06669C9.02461 11.5005 8.97588 11.4509 8.9207 11.4074Z" fill="#7C7D88"/>
<path d="M4.6183 2.44629H9.38172V4.17791H4.6183V2.44629Z" fill="#7C7D88"/>
<path d="M9.38169 10.7257V9.6592C9.38169 9.03538 9.09606 8.44587 8.6065 8.05926L7.2652 7.00007L8.6065 5.94089C8.91852 5.69449 9.14752 5.36563 9.2727 4.99805H4.72729C4.85247 5.36563 5.08148 5.69449 5.3935 5.94089L6.73479 7.00007L5.3935 8.05926C4.90391 8.44587 4.6183 9.03538 4.6183 9.6592V10.7258L7 8.84498L9.38169 10.7257Z" fill="#7C7D88"/>
</g>
<defs>
<clipPath id="clip0_5077_8011">
<rect width="14" height="14" fill="white"/>
</clipPath>
</defs>
</svg>
