<svg width="16" height="16" viewBox="0 0 16 16" fill="none" xmlns="http://www.w3.org/2000/svg">
<path d="M11 10.5C10.6306 10.5008 10.2746 10.6379 10 10.885C9.72544 10.6379 9.36937 10.5008 9 10.5C8.60218 10.5 8.22064 10.658 7.93934 10.9393C7.65804 11.2206 7.5 11.6022 7.5 12C7.5 13.25 8.645 14.38 9.775 14.945C9.84479 14.9802 9.92185 14.9985 10 14.9985C10.0781 14.9985 10.1552 14.9802 10.225 14.945C11.355 14.38 12.5 13.25 12.5 12C12.5 11.6022 12.342 11.2206 12.0607 10.9393C11.7794 10.658 11.3978 10.5 11 10.5Z" fill="#7C7D88"/>
<path d="M6.5 12C6.5 11.337 6.76339 10.7011 7.23223 10.2322C7.70107 9.76339 8.33696 9.5 9 9.5C9.34436 9.49924 9.68504 9.57078 10 9.71C10.1607 9.63947 10.3282 9.58585 10.5 9.55V4C10.5 3.73478 10.3946 3.48043 10.2071 3.29289C10.0196 3.10536 9.76522 3 9.5 3H4.5C4.23478 3 3.98043 3.10536 3.79289 3.29289C3.60536 3.48043 3.5 3.73478 3.5 4V14C3.5 14.2652 3.60536 14.5196 3.79289 14.7071C3.98043 14.8946 4.23478 15 4.5 15H8.07C7.60782 14.6424 7.22829 14.1892 6.95733 13.6715C6.68637 13.1537 6.53038 12.5836 6.5 12Z" fill="#7C7D88"/>
<path d="M8.5 1.5C8.5 1.36739 8.44732 1.24021 8.35355 1.14645C8.25979 1.05268 8.13261 1 8 1H6C5.86739 1 5.74021 1.05268 5.64645 1.14645C5.55268 1.24021 5.5 1.36739 5.5 1.5V2H8.5V1.5Z" fill="#7C7D88"/>
</svg>
