<svg width="14" height="18" viewBox="0 0 14 18" fill="none" xmlns="http://www.w3.org/2000/svg">
<path d="M4.69772 17.2852C3.29767 17.2852 2.3284 16.0467 1.62837 14.9697C-0.148621 12.2235 -0.525559 8.77717 0.766799 6.78479C1.62837 5.43858 3.02842 4.63086 4.37463 4.63086C5.07466 4.63086 5.66699 4.84625 6.15162 5.0078C6.52856 5.16934 6.9055 5.27704 7.28243 5.27704C7.60552 5.27704 7.87476 5.16934 8.2517 5.0078C8.73634 4.84625 9.32867 4.63086 10.1364 4.63086C11.3211 4.63086 12.5596 5.27704 13.4211 6.354C13.5288 6.4617 13.5827 6.62324 13.5288 6.78479C13.475 6.94633 13.4211 7.05403 13.2596 7.16173C12.2903 7.70021 11.7518 8.66948 11.8595 9.74644C11.9134 10.8773 12.6134 11.7927 13.6365 12.1696C13.7981 12.2235 13.9058 12.3312 13.9596 12.4927C14.0135 12.6542 14.0135 12.7619 13.9596 12.9235C13.5827 13.7312 13.4211 14.1081 12.9365 14.8082C12.1288 15.9928 11.1595 17.2313 9.86715 17.2313C9.27482 17.2313 8.89788 17.0698 8.57479 16.9083C8.2517 16.7467 7.92861 16.5852 7.28243 16.5852C6.6901 16.5852 6.36701 16.7467 5.99008 16.9083C5.66699 17.1236 5.29005 17.2852 4.69772 17.2852Z" fill="#2258A8"/>
<path d="M6.85164 4.73864C6.7978 4.73864 6.7978 4.73864 6.74395 4.73864C6.47471 4.73864 6.25931 4.52325 6.20547 4.30786C6.04392 3.39244 6.36701 2.31547 7.06704 1.4539C7.71322 0.646179 8.79018 0.107696 9.75945 0C10.0287 0 10.2979 0.161545 10.3518 0.484634C10.5133 1.4539 10.1902 2.47702 9.49021 3.33859C8.89788 4.20016 7.82091 4.73864 6.85164 4.73864Z" fill="#2258A8"/>
</svg>
