<svg width="17" height="17" viewBox="0 0 17 17" fill="none" xmlns="http://www.w3.org/2000/svg">
<g clip-path="url(#clip0_5075_7982)">
<path d="M14.8008 11.8017C12.8224 10.7837 10.6625 12.9411 11.681 14.9215C11.8473 15.2475 12.0883 15.5295 12.3844 15.7445C12.6805 15.9595 13.0233 16.1014 13.3848 16.1586C13.7462 16.2158 14.116 16.1866 14.464 16.0735C14.8121 15.9604 15.1284 15.7665 15.3871 15.5078C15.6459 15.249 15.8397 14.9327 15.9528 14.5847C16.0659 14.2367 16.0951 13.8668 16.0379 13.5054C15.9807 13.144 15.8388 12.8012 15.6238 12.5051C15.4088 12.209 15.1268 11.968 14.8008 11.8017ZM13.6955 12.3923C13.7775 12.3934 13.8559 12.4268 13.9135 12.4853C13.9712 12.5437 14.0035 12.6225 14.0035 12.7045C14.0035 12.7866 13.9711 12.8654 13.9135 12.9238C13.8558 12.9822 13.7775 13.0156 13.6954 13.0167C13.6133 13.0157 13.5349 12.9823 13.4772 12.9239C13.4196 12.8654 13.3872 12.7866 13.3872 12.7045C13.3872 12.6224 13.4196 12.5436 13.4773 12.4852C13.535 12.4267 13.6133 12.3934 13.6955 12.3923ZM14.0498 15.3455H13.4423C13.3871 15.3444 13.3345 15.3217 13.2958 15.2823C13.2571 15.2428 13.2354 15.1898 13.2354 15.1345C13.2354 15.0793 13.2571 15.0262 13.2958 14.9868C13.3345 14.9473 13.3871 14.9247 13.4423 14.9236H13.5351V13.7023C13.3866 13.7196 13.2347 13.6612 13.2314 13.4913C13.2316 13.4354 13.2538 13.3819 13.2934 13.3423C13.3329 13.3028 13.3864 13.2805 13.4423 13.2804H13.7461C13.7738 13.2803 13.8013 13.2857 13.8269 13.2962C13.8525 13.3068 13.8758 13.3223 13.8954 13.3419C13.915 13.3615 13.9306 13.3848 13.9411 13.4105C13.9517 13.4361 13.9571 13.4636 13.957 13.4913V14.9236H14.0498C14.1052 14.9245 14.1579 14.9471 14.1968 14.9866C14.2356 15.026 14.2573 15.0792 14.2574 15.1345C14.2574 15.1899 14.2356 15.243 14.1968 15.2825C14.158 15.3219 14.1052 15.3446 14.0498 15.3455Z" fill="#7C7D88"/>
<path d="M11.4405 12.3906H7.83983C7.78442 12.3898 7.73155 12.3672 7.69266 12.3278C7.65376 12.2883 7.63196 12.2351 7.63196 12.1797C7.63196 12.1243 7.65377 12.0711 7.69267 12.0316C7.73157 11.9921 7.78444 11.9696 7.83985 11.9688H11.7738C12.1184 11.6101 12.5542 11.3521 13.0343 11.2224C13.5145 11.0927 14.0208 11.0962 14.4991 11.2326C14.6025 11.26 14.7034 11.296 14.8008 11.3402V5.42969C14.8003 5.15011 14.6891 4.88211 14.4914 4.68442C14.2937 4.48673 14.0257 4.37546 13.7461 4.375H6.99609C6.71652 4.37546 6.44852 4.48673 6.25083 4.68442C6.05314 4.88211 5.94187 5.15011 5.94141 5.42969V13.8672C5.94151 14.1469 6.05266 14.4151 6.25043 14.6128C6.4482 14.8106 6.71641 14.9218 6.99609 14.9219H11.2148C11.0776 14.5879 11.0066 14.2304 11.006 13.8693C11.0064 13.345 11.1572 12.8318 11.4405 12.3906ZM7.83983 6.90625H12.9023C12.9576 6.90728 13.0102 6.92996 13.049 6.96941C13.0877 7.00886 13.1094 7.06192 13.1094 7.1172C13.1094 7.17247 13.0877 7.22553 13.049 7.26498C13.0102 7.30442 12.9576 7.3271 12.9023 7.32812H7.83983C7.78445 7.32727 7.73163 7.30467 7.69277 7.2652C7.65392 7.22574 7.63213 7.17257 7.63213 7.11719C7.63213 7.0618 7.65392 7.00864 7.69277 6.96917C7.73163 6.92971 7.78445 6.90711 7.83983 6.90625ZM7.83983 9.4375H12.9023C12.9576 9.43849 13.0103 9.46115 13.0491 9.5006C13.0878 9.54006 13.1095 9.59315 13.1095 9.64845C13.1095 9.70374 13.0878 9.75683 13.049 9.79628C13.0103 9.83573 12.9576 9.85839 12.9023 9.85938H7.83983C7.78442 9.85857 7.73155 9.83599 7.69265 9.79652C7.65376 9.75704 7.63195 9.70385 7.63195 9.64844C7.63195 9.59302 7.65376 9.53983 7.69265 9.50036C7.73155 9.46089 7.78442 9.43831 7.83983 9.4375Z" fill="#7C7D88"/>
</g>
<defs>
<clipPath id="clip0_5075_7982">
<rect width="17" height="17" fill="white"/>
</clipPath>
</defs>
</svg>
