<svg width="14" height="14" viewBox="0 0 14 14" fill="none" xmlns="http://www.w3.org/2000/svg">
<path d="M8.75 3.0625V0.875H3.0625C2.82187 0.875 2.625 1.07188 2.625 1.3125V6.16L3.71656 5.285L4.81031 6.16L5.90406 5.285L6.99781 6.16L8.09156 5.285L9.18531 6.16L10.2791 5.285L11.3728 6.16H11.375V3.5H9.1875C8.94688 3.5 8.75 3.30313 8.75 3.0625Z" fill="#7C7D88"/>
<path d="M11.375 3.0625H9.1875V0.875L11.375 3.0625Z" fill="#7C7D88"/>
<path d="M8.96875 11.1561C8.96875 9.82828 10.0472 8.74984 11.375 8.74984V7.83766H11.3728L10.2791 6.96484L9.18313 7.83984L8.09156 6.96484L6.99781 7.83984L5.90406 6.96484L4.81031 7.83984L3.71656 6.96484L2.625 7.83766V11.8123C2.625 12.053 2.82187 12.2498 3.0625 12.2498H9.23344C9.065 11.9217 8.96875 11.5498 8.96875 11.1561Z" fill="#7C7D88"/>
<path d="M11.375 9.1875C10.2878 9.1875 9.40625 10.0691 9.40625 11.1562C9.40625 12.2434 10.2878 13.125 11.375 13.125C12.4622 13.125 13.3438 12.2434 13.3438 11.1562C13.3438 10.0691 12.4622 9.1875 11.375 9.1875ZM11.375 12.1406C11.2547 12.1406 11.1562 12.0422 11.1562 11.9219C11.1562 11.8016 11.2547 11.7031 11.375 11.7031C11.4953 11.7031 11.5938 11.8016 11.5938 11.9219C11.5938 12.0422 11.4953 12.1406 11.375 12.1406ZM11.5938 11.2656C11.5938 11.3859 11.4953 11.4844 11.375 11.4844C11.2547 11.4844 11.1562 11.3859 11.1562 11.2656V10.1719C11.1562 10.0516 11.2547 9.95312 11.375 9.95312C11.4953 9.95312 11.5938 10.0516 11.5938 10.1719V11.2656Z" fill="#7C7D88"/>
</svg>
