<svg width="14" height="14" viewBox="0 0 14 14" fill="none" xmlns="http://www.w3.org/2000/svg">
<path d="M9.33333 0H4.66667C4.02325 0 3.5 0.52325 3.5 1.16667V12.8333C3.5 13.4767 4.02325 14 4.66667 14H9.33333C9.97675 14 10.5 13.4767 10.5 12.8333V1.16667C10.5 0.52325 9.97675 0 9.33333 0ZM7 13.4167C6.678 13.4167 6.41667 13.1553 6.41667 12.8333C6.41667 12.5113 6.678 12.25 7 12.25C7.322 12.25 7.58333 12.5113 7.58333 12.8333C7.58333 13.1553 7.322 13.4167 7 13.4167ZM9.91667 11.6667H4.08333V1.75H9.91667V11.6667Z" fill="#7C7D88"/>
</svg>
