<svg width="12" height="12" viewBox="0 0 12 12" fill="none" xmlns="http://www.w3.org/2000/svg">
<path d="M9.97931 4.27132C9.53476 3.55914 8.90772 2.97891 8.16325 2.59085C8.12072 2.03655 7.86957 1.519 7.46047 1.14258C7.05136 0.766165 6.51474 0.558884 5.95882 0.562548C5.4029 0.566211 4.86905 0.780545 4.46494 1.16232C4.06084 1.5441 3.81653 2.06491 3.78131 2.61973C3.03394 3.01957 2.40939 3.61514 1.97451 4.34267C1.53962 5.0702 1.31079 5.90231 1.31249 6.74991C1.31249 9.33459 3.41531 11.4374 5.99999 11.4374C8.58468 11.4374 10.6875 9.33459 10.6875 6.74991C10.6883 5.87368 10.4429 5.01484 9.97931 4.27132ZM5.07738 2.95824C5.07738 2.78106 5.12992 2.60786 5.22835 2.46054C5.32679 2.31322 5.4667 2.1984 5.63039 2.1306C5.79408 2.0628 5.9742 2.04506 6.14797 2.07962C6.32175 2.11419 6.48137 2.19951 6.60665 2.32479C6.73194 2.45007 6.81725 2.60969 6.85182 2.78347C6.88639 2.95724 6.86865 3.13736 6.80084 3.30105C6.73304 3.46475 6.61822 3.60465 6.4709 3.70309C6.32358 3.80152 6.15038 3.85406 5.97321 3.85406C5.7357 3.85379 5.508 3.75932 5.34006 3.59138C5.17212 3.42344 5.07765 3.19574 5.07738 2.95824ZM5.62499 11.046C3.86015 10.8932 2.39608 9.67331 1.88346 8.03639L3.85607 7.7546C4.03449 7.72834 4.19757 7.63898 4.31572 7.50273C4.43387 7.36649 4.49925 7.19239 4.49999 7.01206V6.18741C4.49977 5.98856 4.42068 5.79793 4.28008 5.65732C4.13947 5.51672 3.94884 5.43763 3.74999 5.43741C3.65057 5.4373 3.55525 5.39775 3.48495 5.32745C3.41465 5.25715 3.37511 5.16183 3.37499 5.06241V4.87491C3.37477 4.67606 3.29568 4.48543 3.15508 4.34482C3.01447 4.20422 2.82384 4.12513 2.62499 4.12491H2.57578C2.91231 3.68696 3.32981 3.3177 3.80559 3.0372C3.99543 4.05907 5.08148 5.7627 5.50085 6.32529C5.55569 6.39888 5.62696 6.45864 5.70898 6.49981C5.791 6.54098 5.88151 6.56242 5.97329 6.56242C6.06506 6.56242 6.15557 6.54098 6.23759 6.49981C6.31962 6.45864 6.39089 6.39888 6.44573 6.32529C6.86896 5.75752 7.97118 4.02767 8.14607 3.00909C8.97255 3.48343 9.61869 4.21808 9.98363 5.09834C10.3486 5.97861 10.4118 6.95494 10.1633 7.87491H9.74999C9.65057 7.8748 9.55525 7.83525 9.48495 7.76495C9.41465 7.69465 9.37511 7.59933 9.37499 7.49991C9.37471 7.25135 9.27585 7.01306 9.1001 6.8373C8.92434 6.66155 8.68605 6.56269 8.43749 6.56241H8.06249C7.81394 6.56269 7.57564 6.66155 7.39989 6.8373C7.22413 7.01306 7.12527 7.25135 7.12499 7.49991V7.87491C7.12483 8.02404 7.06551 8.16702 6.96006 8.27247C6.8546 8.37792 6.71163 8.43724 6.56249 8.43741C6.31394 8.43769 6.07564 8.53655 5.89989 8.7123C5.72414 8.88806 5.62527 9.12635 5.62499 9.37491V11.046Z" fill="#7C7D88"/>
</svg>
