<svg width="18" height="18" viewBox="0 0 18 18" fill="none" xmlns="http://www.w3.org/2000/svg">
<path fill-rule="evenodd" clip-rule="evenodd" d="M5.35443 14.646C5.68912 14.9801 6.15093 15.1871 6.66112 15.1871H11.3709C12.3919 15.1871 13.2193 14.3596 13.2193 13.3393C13.2193 11.1776 13.2193 11.2608 13.2193 9.0997C13.2193 8.7892 12.9667 8.5372 12.6568 8.5372C12.3463 8.5372 12.0943 8.7892 12.0943 9.0997V13.3393C12.0943 13.7381 11.7703 14.0621 11.3709 14.0621H6.66112C6.46143 14.0621 6.28087 13.9811 6.14981 13.85C5.93043 13.6306 5.57381 13.6306 5.35443 13.85C5.13506 14.07 5.13506 14.426 5.35443 14.646ZM12.6776 3.37177C12.3311 3.0247 11.8614 2.83008 11.3709 2.83008H6.66112C6.17118 2.83008 5.70093 3.0247 5.35443 3.37177C5.00793 3.71827 4.81331 4.18795 4.81331 4.67845V9.0997C4.81331 9.4102 5.06531 9.6622 5.37581 9.6622C5.68631 9.6622 5.93831 9.4102 5.93831 9.0997C5.93831 6.93802 5.93831 6.83958 5.93831 4.67845C5.93831 4.48664 6.01425 4.3027 6.14981 4.16714C6.28537 4.03158 6.46931 3.95508 6.66112 3.95508H11.3709C11.5627 3.95508 11.7467 4.03158 11.8822 4.16714C12.1016 4.38652 12.4582 4.38652 12.6776 4.16714C12.8976 3.9472 12.8976 3.59114 12.6776 3.37177Z" fill="#7C7D88"/>
<path fill-rule="evenodd" clip-rule="evenodd" d="M6.85237 3.55962V4.18568C6.85237 5.02887 7.53581 5.71287 8.379 5.71287H9.59456C10.4377 5.71287 11.1217 5.02887 11.1217 4.18568C11.1217 3.80149 11.1217 3.44824 11.1217 3.44824C11.1217 3.1383 10.8697 2.88574 10.5592 2.88574C10.2487 2.88574 9.99675 3.1383 9.99675 3.44824V4.18568C9.99675 4.40787 9.81675 4.58787 9.59456 4.58787H8.379C8.15737 4.58787 7.97737 4.40787 7.97737 4.18568V3.55962C7.97737 3.24912 7.72537 2.99712 7.41487 2.99712C7.10437 2.99712 6.85237 3.24912 6.85237 3.55962Z" fill="#7C7D88"/>
<path fill-rule="evenodd" clip-rule="evenodd" d="M6.21957 12.1775H4.95057L4.94832 10.7836C4.94776 10.4731 4.69519 10.2211 4.38469 10.2217C4.07476 10.2222 3.82276 10.4748 3.82332 10.7853L3.82669 12.7411C3.82726 13.0511 4.07869 13.3025 4.38919 13.3025H6.21957C6.53007 13.3025 6.78207 13.0505 6.78207 12.74C6.78207 12.4295 6.53007 12.1775 6.21957 12.1775Z" fill="#7C7D88"/>
<path fill-rule="evenodd" clip-rule="evenodd" d="M11.7821 6.14062H13.0511L13.0534 7.5345C13.0539 7.845 13.3065 8.097 13.617 8.09644C13.9275 8.09588 14.1789 7.84331 14.1784 7.53281L14.175 5.577C14.1744 5.26706 13.923 5.01562 13.6125 5.01562H11.7821C11.4722 5.01562 11.2196 5.26763 11.2196 5.57812C11.2196 5.88862 11.4722 6.14062 11.7821 6.14062Z" fill="#7C7D88"/>
<path fill-rule="evenodd" clip-rule="evenodd" d="M4.79812 13.1249L7.18424 10.5925C7.39743 10.367 7.38674 10.0103 7.16062 9.79771C6.93506 9.58452 6.57843 9.59521 6.36581 9.82134L3.97912 12.3531C3.76649 12.5787 3.77662 12.9353 4.00274 13.148C4.22887 13.3611 4.58493 13.3505 4.79812 13.1249Z" fill="#7C7D88"/>
<path fill-rule="evenodd" clip-rule="evenodd" d="M13.2041 5.19291L10.8174 7.72528C10.6048 7.95084 10.6149 8.30747 10.8411 8.52009C11.0672 8.73328 11.4232 8.72259 11.6364 8.49647L14.0226 5.96466C14.2357 5.73853 14.2251 5.38247 13.9989 5.16984C13.7734 4.95666 13.4167 4.96735 13.2041 5.19291Z" fill="#7C7D88"/>
</svg>
