<svg width="14" height="14" viewBox="0 0 14 14" fill="none" xmlns="http://www.w3.org/2000/svg">
<path d="M5.775 6.86289C7.33197 6.86289 8.59414 5.60072 8.59414 4.04375C8.59414 2.48678 7.33197 1.22461 5.775 1.22461C4.21803 1.22461 2.95586 2.48678 2.95586 4.04375C2.95586 5.60072 4.21803 6.86289 5.775 6.86289Z" fill="#7C7D88"/>
<path d="M11.55 12.7742H0L1.98789 7.69922H7.65898C7.68906 9.49844 9.10547 10.9668 10.8855 11.0789L11.55 12.7742Z" fill="#7C7D88"/>
<path d="M10.4508 7.325C10.6365 7.325 10.7871 7.17442 10.7871 6.98867C10.7871 6.80292 10.6365 6.65234 10.4508 6.65234C10.265 6.65234 10.1145 6.80292 10.1145 6.98867C10.1145 7.17442 10.265 7.325 10.4508 7.325Z" fill="#7C7D88"/>
<path d="M11.1016 4.74414C9.50195 4.74414 8.20312 6.04023 8.20312 7.64258C8.20312 9.24492 9.50195 10.541 11.1016 10.541C12.7012 10.541 14 9.24492 14 7.64258C14 6.04023 12.7039 4.74414 11.1016 4.74414ZM11.5527 9.84102L9.33789 7.62891V6.29727L9.75898 5.87617H11.0906L13.3027 8.08828L11.5527 9.84102Z" fill="#7C7D88"/>
</svg>
