<svg width="14" height="14" viewBox="0 0 14 14" fill="none" xmlns="http://www.w3.org/2000/svg">
<path fill-rule="evenodd" clip-rule="evenodd" d="M5.59731 11.5439V12.6518C5.59731 12.7147 5.64387 12.7629 5.6997 12.8197C5.81052 12.9321 5.97379 13.0335 6.1769 13.1273C6.86872 13.4468 7.98583 13.6493 9.24433 13.6493C10.5028 13.6493 11.6199 13.4468 12.3118 13.1273C12.5149 13.0335 12.6781 12.9321 12.789 12.8197C12.8448 12.7629 12.8914 12.7147 12.8914 12.6518V11.5439C12.8838 11.5489 12.8762 11.5539 12.8686 11.5589C12.1889 12.0028 10.8215 12.3193 9.24433 12.3193C7.66713 12.3193 6.29978 12.0028 5.62003 11.5589C5.61245 11.5539 5.60488 11.5489 5.59731 11.5439Z" fill="#7C7D88"/>
<path fill-rule="evenodd" clip-rule="evenodd" d="M5.03622 12.2924C3.38075 12.183 1.98675 11.757 1.24051 11.1888C1.19422 11.1535 1.15018 11.1176 1.10866 11.0811V11.9875C1.10866 12.1278 1.17767 12.2564 1.28428 12.3828C1.43156 12.5577 1.6487 12.717 1.91914 12.8626C2.79386 13.3341 4.19544 13.6373 5.77937 13.6496C5.7227 13.6187 5.66968 13.5871 5.62002 13.5545C5.22278 13.2952 5.03622 12.9647 5.03622 12.6525C5.03622 12.6525 5.03622 12.2924 5.03622 12.2924Z" fill="#7C7D88"/>
<path fill-rule="evenodd" clip-rule="evenodd" d="M12.8914 9.54883C12.8838 9.55382 12.8762 9.5588 12.8686 9.5638C12.1889 10.0077 10.8215 10.3242 9.24433 10.3242C7.66713 10.3242 6.29978 10.0077 5.62003 9.5638C5.61245 9.5588 5.60488 9.55382 5.59731 9.54883V10.6567C5.59731 10.7196 5.64387 10.7678 5.6997 10.8246C5.81052 10.937 5.97379 11.0384 6.1769 11.1322C6.86872 11.4517 7.98583 11.6542 9.24433 11.6542C10.5028 11.6542 11.6199 11.4517 12.3118 11.1322C12.5149 11.0384 12.6781 10.937 12.789 10.8246C12.8448 10.7678 12.8914 10.7196 12.8914 10.6567V9.54883Z" fill="#7C7D88"/>
<path fill-rule="evenodd" clip-rule="evenodd" d="M5.03622 10.2972C3.38075 10.1879 1.98675 9.76192 1.24051 9.19367C1.19422 9.15843 1.15018 9.12252 1.10866 9.08594V9.99234C1.10866 10.1327 1.17767 10.2613 1.28428 10.3877C1.43156 10.5626 1.6487 10.7218 1.91914 10.8675C2.65416 11.2635 3.76145 11.5411 5.03622 11.6269L5.03622 10.2972Z" fill="#7C7D88"/>
<path fill-rule="evenodd" clip-rule="evenodd" d="M5.59731 7.55469V8.66258C5.59731 8.72542 5.64387 8.77364 5.6997 8.83049C5.81052 8.94287 5.97379 9.04429 6.1769 9.13805C6.86872 9.45758 7.98583 9.66008 9.24433 9.66008C10.5028 9.66008 11.6199 9.45758 12.3118 9.13805C12.5149 9.04429 12.6781 8.94287 12.789 8.83049C12.8448 8.77364 12.8914 8.72542 12.8914 8.66258V7.55469C12.8838 7.55968 12.8762 7.56466 12.8686 7.56965C12.1889 8.01354 10.8215 8.33008 9.24433 8.33008C7.66713 8.33008 6.29978 8.01354 5.62003 7.56965C5.61245 7.56466 5.60488 7.55968 5.59731 7.55469Z" fill="#7C7D88"/>
<path fill-rule="evenodd" clip-rule="evenodd" d="M5.03622 8.30212C3.38075 8.19273 1.98675 7.7668 1.24051 7.19855C1.19422 7.16331 1.15018 7.1274 1.10866 7.09082V7.99722C1.10866 8.13753 1.17767 8.26621 1.28428 8.39256C1.43156 8.56746 1.6487 8.72672 1.91914 8.87236C2.65416 9.26837 3.76145 9.546 5.03622 9.63178L5.03622 8.30212Z" fill="#7C7D88"/>
<path fill-rule="evenodd" clip-rule="evenodd" d="M9.24433 5.66992C10.5028 5.66992 11.6199 5.87242 12.3118 6.19195C12.5149 6.28571 12.6781 6.38713 12.789 6.49951C12.8448 6.55636 12.8914 6.60458 12.8914 6.66742C12.8914 6.73026 12.8448 6.77848 12.789 6.83534C12.6781 6.94772 12.5149 7.04914 12.3118 7.14289C11.6199 7.46243 10.5028 7.66492 9.24433 7.66492C7.98583 7.66492 6.86872 7.46243 6.1769 7.14289C5.97379 7.04914 5.81052 6.94772 5.6997 6.83534C5.64387 6.77848 5.59731 6.73026 5.59731 6.66742C5.59731 6.60458 5.64387 6.55636 5.6997 6.49951C5.81052 6.38713 5.97379 6.28571 6.1769 6.19195C6.86872 5.87242 7.98583 5.66992 9.24433 5.66992Z" fill="#7C7D88"/>
<path fill-rule="evenodd" clip-rule="evenodd" d="M5.11646 6.31199C3.42592 6.21124 1.99881 5.78099 1.24051 5.20344C1.19422 5.16819 1.15018 5.13228 1.10866 5.0957V6.0021C1.10866 6.14242 1.17767 6.27109 1.28428 6.39744C1.43156 6.57234 1.6487 6.73161 1.91914 6.87724C2.65416 7.27325 3.76145 7.55088 5.03622 7.63667V6.6671C5.03734 6.54175 5.0668 6.42338 5.11618 6.31299L5.11646 6.31199Z" fill="#7C7D88"/>
<path fill-rule="evenodd" clip-rule="evenodd" d="M9.57901 5.00948C9.66935 4.96858 9.7552 4.92602 9.83654 4.88212C10.107 4.73649 10.3241 4.57722 10.4714 4.40233C10.578 4.27597 10.647 4.1473 10.647 4.00699V3.10059C10.6055 3.13717 10.5615 3.17308 10.5152 3.20832C9.6455 3.87066 7.89577 4.33949 5.87784 4.33949C3.85992 4.33949 2.11019 3.87066 1.24051 3.20832C1.19422 3.17308 1.15018 3.13717 1.10866 3.10059V4.00699C1.10866 4.1473 1.17767 4.27597 1.28428 4.40233C1.43156 4.57722 1.6487 4.73649 1.91914 4.88212C2.79414 5.35361 4.19657 5.65719 5.78077 5.66915C6.50205 5.27613 7.78327 5.00449 9.24433 5.00449C9.35682 5.00449 9.46848 5.00615 9.57901 5.00948Z" fill="#7C7D88"/>
<path fill-rule="evenodd" clip-rule="evenodd" d="M5.87784 0.349609C7.50217 0.349609 8.94386 0.655839 9.83654 1.13697C10.107 1.2826 10.3241 1.44187 10.4714 1.61677C10.578 1.74312 10.647 1.8718 10.647 2.01211C10.647 2.15242 10.578 2.2811 10.4714 2.40745C10.3241 2.58235 10.107 2.74161 9.83654 2.88725C8.94386 3.36838 7.50217 3.67461 5.87784 3.67461C4.25352 3.67461 2.81182 3.36838 1.91914 2.88725C1.6487 2.74161 1.43156 2.58235 1.28428 2.40745C1.17767 2.2811 1.10866 2.15242 1.10866 2.01211C1.10866 1.8718 1.17767 1.74312 1.28428 1.61677C1.43156 1.44187 1.6487 1.2826 1.91914 1.13697C2.81182 0.655839 4.25352 0.349609 5.87784 0.349609Z" fill="#7C7D88"/>
</svg>
