<svg width="15" height="15" viewBox="0 0 15 15" fill="none" xmlns="http://www.w3.org/2000/svg">
<g clip-path="url(#clip0_5077_8049)">
<path d="M1.875 0.46875C1.09835 0.46875 0.46875 1.09835 0.46875 1.875V3.28125C0.46875 4.0579 1.09835 4.6875 1.875 4.6875H3.51562C4.29227 4.6875 4.92188 4.0579 4.92188 3.28125V3.04688H5.85938C6.63602 3.04688 7.26562 3.67648 7.26562 4.45312V10.7812C7.26562 12.0757 8.31495 13.125 9.60938 13.125H10.156C10.4132 14.0704 11.2778 14.7656 12.3047 14.7656C13.5344 14.7656 14.5312 13.7688 14.5312 12.5391C14.5312 11.3094 13.5344 10.3125 12.3047 10.3125C11.1946 10.3125 10.2743 11.1248 10.1057 12.1875H9.60938C8.83273 12.1875 8.20312 11.5579 8.20312 10.7812V7.96875H10.1057C10.2743 9.03141 11.1946 9.84375 12.3047 9.84375C13.5344 9.84375 14.5312 8.84688 14.5312 7.61719C14.5312 6.38749 13.5344 5.39062 12.3047 5.39062C11.2778 5.39062 10.4132 6.08583 10.156 7.03125H8.20312V4.45312C8.20312 3.9255 8.02877 3.43859 7.73454 3.04688H10.1057C10.2743 4.10953 11.1946 4.92188 12.3047 4.92188C13.5344 4.92188 14.5312 3.92501 14.5312 2.69531C14.5312 1.46562 13.5344 0.46875 12.3047 0.46875C11.2778 0.46875 10.4132 1.16394 10.156 2.10937L4.92188 2.10938V1.875C4.92188 1.09835 4.29227 0.46875 3.51562 0.46875H1.875Z" fill="#7C7D88"/>
</g>
<defs>
<clipPath id="clip0_5077_8049">
<rect width="15" height="15" fill="white"/>
</clipPath>
</defs>
</svg>
