<svg width="13" height="13" viewBox="0 0 13 13" fill="none" xmlns="http://www.w3.org/2000/svg">
<g clip-path="url(#clip0_5077_8024)">
<path d="M5.8076 6.87621L7.98535 8.44142C8.02077 8.46688 8.06234 8.47961 8.1039 8.47961C8.14547 8.47961 8.18703 8.46688 8.22245 8.44142L10.4001 6.87624C11.2591 6.25884 11.7132 5.37337 11.7132 4.31557V1.37579C11.7132 1.30409 11.6753 1.23769 11.6137 1.2011C10.2432 0.388019 9.16076 0.025416 8.10393 0.0253906C8.10388 0.0253906 8.10398 0.0253906 8.10393 0.0253906C7.04712 0.0253906 5.96456 0.388019 4.59418 1.20108C4.53251 1.23764 4.4947 1.30406 4.4947 1.37577V4.31557C4.49468 5.37342 4.94868 6.25886 5.8076 6.87621ZM10.596 1.90722V4.31559C10.596 5.0084 10.3107 5.56471 9.74812 5.96911L8.10388 7.15089L6.45958 5.96908C5.89705 5.56479 5.61181 5.00848 5.61181 4.31559V1.90719C7.48363 0.891871 8.7242 0.891896 10.596 1.90722ZM6.16487 4.00349C6.06341 3.8759 6.01773 3.71638 6.03624 3.55438C6.05475 3.39237 6.13524 3.24726 6.26288 3.14577C6.39052 3.04434 6.55002 2.99873 6.71204 3.01712C6.87406 3.03563 7.01916 3.11609 7.12062 3.24375L7.55755 3.79356L9.03848 2.3126C9.27682 2.07426 9.66459 2.07431 9.90288 2.3126C10.1412 2.55097 10.1412 2.93871 9.90288 3.17703L7.938 5.14193C7.82268 5.25723 7.66782 5.32091 7.50651 5.32091C7.48856 5.32091 7.47056 5.32015 7.45251 5.31855C7.27388 5.30281 7.11237 5.21046 7.00827 5.0649L6.16487 4.00349ZM12.0148 8.31459C11.8828 8.0859 11.6688 7.9221 11.4123 7.85337C11.1559 7.78464 10.8886 7.81947 10.66 7.95148L8.06297 9.4508C8.04672 9.30658 8.00115 9.16553 7.92662 9.03528C7.7835 8.78508 7.5527 8.60595 7.2767 8.53084L4.33763 7.73089C4.32887 7.72847 4.31996 7.7267 4.31095 7.7255C3.86623 7.66662 3.46013 7.77499 3.10411 8.04769L2.32388 8.64518L2.29277 8.52909C2.23897 8.3284 2.03196 8.20902 1.83127 8.26262L1.13194 8.45C1.03492 8.476 0.953724 8.53838 0.903349 8.62568C0.852949 8.71297 0.839517 8.81451 0.865517 8.91155L1.87936 12.6953C1.90536 12.7923 1.96775 12.8735 2.05502 12.9239C2.11324 12.9575 2.17776 12.9747 2.24311 12.9747C2.27574 12.9747 2.30857 12.9704 2.34086 12.9618L3.04017 12.7744C3.13722 12.7484 3.21842 12.686 3.26879 12.5987C3.31919 12.5114 3.33262 12.4099 3.30662 12.3129L3.26844 12.1703C3.68332 11.86 4.06489 11.7728 4.52715 11.8789L6.21062 12.2648C6.35685 12.2983 6.49934 12.315 6.63774 12.315C6.92456 12.315 7.1938 12.2432 7.44187 12.0999L11.6518 9.66938C12.1253 9.39603 12.2882 8.78825 12.0148 8.31459ZM11.4487 9.31762L7.23872 11.7482C6.95878 11.9098 6.65219 11.9493 6.30137 11.8688L4.6179 11.4829C4.08424 11.3606 3.62401 11.4437 3.15649 11.7526L2.43765 9.06979L3.35113 8.37022C3.6188 8.16522 3.91112 8.08531 4.24453 8.12657L7.17001 8.9228C7.34129 8.96944 7.48475 9.08101 7.574 9.23698C7.66325 9.39298 7.68671 9.5732 7.64009 9.74446C7.54315 10.1006 7.17453 10.3114 6.81848 10.2145L5.2485 9.78722C5.14018 9.7578 5.02861 9.8216 4.99916 9.92987C4.96971 10.0381 5.03357 10.1497 5.14181 10.1792L6.71178 10.6065C6.80601 10.6321 6.90069 10.6444 6.99398 10.6444C7.43082 10.6443 7.83476 10.3756 7.99665 9.9582L10.8631 8.30332C10.9978 8.22555 11.1555 8.20511 11.3072 8.24573C11.4589 8.28641 11.5853 8.38294 11.663 8.51764C11.8244 8.79734 11.7283 9.15621 11.4487 9.31762Z" fill="#7C7D88"/>
</g>
<defs>
<clipPath id="clip0_5077_8024">
<rect width="13" height="13" fill="white"/>
</clipPath>
</defs>
</svg>
