<svg width="34" height="20" viewBox="0 0 34 20" fill="none" xmlns="http://www.w3.org/2000/svg">
<path d="M31.875 0H2.125C0.95322 0 0 0.953221 0 2.125V10.6857C0 11.8636 0.95322 12.8168 2.125 12.8168H4.89357L5.34893 10.5036C5.50679 9.69001 6.06535 9.14357 6.72716 9.14357H27.2728C27.9407 9.14357 28.4932 9.69001 28.6511 10.5036L29.1004 12.8168H31.875C33.0468 12.8168 34 11.8636 34 10.6857V2.125C34 0.953221 33.0468 0 31.875 0ZM6.05927 4.25H3.78857C3.45464 4.25 3.18142 3.97678 3.18142 3.64286C3.18142 3.30286 3.45464 3.03572 3.78857 3.03572H6.05927C6.85744 3.04338 6.85933 4.23816 6.05927 4.25Z" fill="#2258A8"/>
<path d="M27.4611 10.7399C27.4126 10.4849 27.2972 10.3696 27.2608 10.3574H6.7272C6.70289 10.3696 6.58753 10.4849 6.53898 10.7399C6.42965 11.2349 6.23784 12.3137 6.13214 12.8164L27.8679 12.8163C27.7502 12.3105 27.5739 11.2375 27.4611 10.7399Z" fill="#2258A8"/>
<path d="M10.0152 14.4144C9.68076 14.4032 9.39053 14.6433 9.36711 14.9783C9.36563 14.9973 9.22155 16.9456 8.41726 18.5583C8.21016 18.948 8.52291 19.4464 8.96009 19.4364C9.18301 19.4364 9.39765 19.3131 9.50407 19.1002C10.4148 17.2735 10.5722 15.152 10.5784 15.0625C10.6018 14.7281 10.3496 14.4382 10.0152 14.4144Z" fill="#2258A8"/>
<path d="M13.5567 14.7513C13.2235 14.7886 12.9834 15.0887 13.0201 15.4219C13.1245 16.3622 12.4586 18.2773 12.1933 18.9361C11.9077 19.677 13.0042 20.1283 13.3192 19.3902C13.2431 19.5256 15.2863 14.6591 13.5567 14.7513Z" fill="#2258A8"/>
<path d="M24.6325 14.9768C24.5618 14.1781 23.3804 14.2669 23.4212 15.0616C23.4277 15.1511 23.5848 17.2726 24.4962 19.0994C24.8568 19.8091 25.9335 19.2677 25.5823 18.5574C24.7819 16.9518 24.6343 14.9964 24.6325 14.9768Z" fill="#2258A8"/>
<path d="M20.9802 15.4225C21.0551 14.6294 19.8783 14.4988 19.773 15.2886C19.6159 16.7014 20.5717 19.1199 20.6808 19.3909C20.9955 20.1276 22.0927 19.6794 21.8073 18.9367C21.5417 18.2786 20.8752 16.3653 20.9802 15.4225Z" fill="#2258A8"/>
<path d="M17.0326 14.748C16.6973 14.748 16.4255 15.0196 16.4255 15.3552V19.1635C16.4255 19.4991 16.6973 19.7706 17.0326 19.7706C17.3679 19.7706 17.6398 19.4991 17.6398 19.1635V15.3552C17.6398 15.0196 17.3679 14.748 17.0326 14.748Z" fill="#2258A8"/>
</svg>
