<svg width="34" height="34" viewBox="0 0 34 34" fill="none" xmlns="http://www.w3.org/2000/svg">
<path d="M9.26932 11.3184H15.2726V15.1654H9.26932V11.3184Z" fill="#2258A8"/>
<path d="M25.5299 8.0035C25.5299 6.53588 24.3359 5.34186 22.8683 5.34186H10.2731V4.93664C10.2731 3.3131 11.5939 1.99224 13.2175 1.99224H22.3455C22.8956 1.99224 23.3416 1.54625 23.3416 0.996121C23.3416 0.445996 22.8956 0 22.3455 0H13.2175C10.4954 0 8.28082 2.21451 8.28082 4.93658V5.3418H6.64612C5.4096 5.3418 4.36766 6.18916 4.06949 7.33404H0.996121C0.446262 7.33404 0 7.7803 0 8.33016V12.9767C0 13.5265 0.446262 13.9728 0.996121 13.9728H3.98448V18.4806C3.98448 19.9482 5.1785 21.1422 6.64612 21.1422H13.137L7.36293 32.5549C7.11456 33.0458 7.31119 33.645 7.80208 33.8934C8.29344 34.142 8.8925 33.9447 9.1406 33.4543L13.7613 24.3213V33.0045C13.7613 33.5547 14.2073 34.0007 14.7574 34.0007C15.3075 34.0007 15.7535 33.5547 15.7535 33.0045V24.3214L20.3742 33.4543C20.6227 33.9454 21.222 34.1418 21.7127 33.8935C22.2036 33.6451 22.4002 33.0458 22.1519 32.555L16.3778 21.1423H22.8683C24.336 21.1423 25.53 19.9482 25.53 18.4806V17.8059H27.5222V8.67887H25.53V8.0035H25.5299ZM17.2648 16.1617C17.2648 16.7115 16.8185 17.1578 16.2686 17.1578H8.27312C7.72326 17.1578 7.27699 16.7115 7.27699 16.1617V10.3225C7.27699 9.77261 7.72326 9.32635 8.27312 9.32635H16.2686C16.8185 9.32635 17.2648 9.77261 17.2648 10.3225V16.1617ZM20.5493 15.303C19.9994 15.303 19.5532 14.8574 19.5532 14.3069C19.5532 13.757 19.9994 13.3108 20.5493 13.3108C21.0998 13.3108 21.5454 13.757 21.5454 14.3069C21.5454 14.8574 21.0998 15.303 20.5493 15.303ZM20.5493 11.3186C19.9994 11.3186 19.5532 10.873 19.5532 10.3225C19.5532 9.77261 19.9994 9.32635 20.5493 9.32635C21.0998 9.32635 21.5454 9.77261 21.5454 10.3225C21.5454 10.873 21.0998 11.3186 20.5493 11.3186Z" fill="#2258A8"/>
<path d="M32.4976 6.16206L29.5145 7.92851V18.5577L32.4976 20.3235C33.1567 20.7162 34.0011 20.2398 34.0011 19.4668V7.01938C34.0011 6.24872 33.1605 5.76832 32.4976 6.16206Z" fill="#2258A8"/>
</svg>
