<svg width="14" height="32" viewBox="0 0 14 32" fill="none" xmlns="http://www.w3.org/2000/svg">
<path d="M0 26.8019C0.000908283 27.1194 0.124733 27.4236 0.344428 27.6481C0.564123 27.8726 0.861833 27.9991 1.17253 28H12.8275C13.1382 27.9991 13.4359 27.8726 13.6556 27.6481C13.8753 27.4236 13.9991 27.1194 14 26.8019V12H0V26.8019ZM1.23701 14.3961C1.25656 12.4703 4.21453 12.475 4.23284 14.3962V17.6668C4.23264 18.0496 4.08372 18.4167 3.81879 18.6874C3.55386 18.9581 3.19459 19.1102 2.81992 19.1105C2.6212 19.1319 2.42029 19.1106 2.2301 19.048C2.03991 18.9853 1.86465 18.8827 1.71558 18.7468C1.5665 18.6108 1.44691 18.4445 1.3645 18.2585C1.28208 18.0725 1.23865 17.8709 1.23701 17.6668V14.3961Z" fill="#2258A8"/>
<path d="M12.8275 0H1.17253C0.861833 0.000953131 0.564123 0.130893 0.344428 0.361435C0.124733 0.591978 0.000908283 0.904387 0 1.23042V11H14V1.23042C13.9991 0.904387 13.8753 0.591978 13.6556 0.361435C13.4359 0.130893 13.1382 0.000953131 12.8275 0ZM4.23285 8.40994C4.21462 10.3818 1.25663 10.3888 1.23701 8.40989V5.05085C1.23866 4.84117 1.28209 4.63417 1.36451 4.44316C1.44693 4.25214 1.56652 4.08133 1.7156 3.9417C1.86467 3.80207 2.03993 3.69672 2.23012 3.6324C2.4203 3.56808 2.62121 3.54622 2.81992 3.56823C3.19458 3.56842 3.55385 3.72469 3.81878 4.00269C4.08372 4.28069 4.23265 4.65769 4.23285 5.05085V8.40994Z" fill="#2258A8"/>
<path d="M3.17418 29.0007H2V31.4456C1.99974 31.5185 2.01474 31.5907 2.04415 31.6581C2.07356 31.7254 2.1168 31.7867 2.17137 31.8382C2.22594 31.8897 2.29076 31.9305 2.36211 31.9583C2.43346 31.9861 2.50992 32.0002 2.58709 32H4.41294C4.56849 31.9996 4.71755 31.941 4.82754 31.8371C4.93754 31.7333 4.99954 31.5925 5 31.4456V29.0007C4.58017 29.0045 3.58212 28.998 3.17418 29.0007Z" fill="#2258A8"/>
<path d="M11.8281 29.011C11.4217 29.0085 10.4172 29.0129 10 29.011V31.4475C10.0005 31.5939 10.0623 31.7342 10.1721 31.8377C10.2819 31.9412 10.4307 31.9996 10.586 32H12.4141C12.5693 31.9996 12.7181 31.9412 12.8279 31.8377C12.9377 31.7342 12.9995 31.5939 13 31.4475V29C12.8707 29.0216 11.9772 29.0069 11.8281 29.011Z" fill="#2258A8"/>
</svg>
