<svg width="36" height="26" viewBox="0 0 36 26" fill="none" xmlns="http://www.w3.org/2000/svg">
<path fill-rule="evenodd" clip-rule="evenodd" d="M12.8736 2.48358V1.77536C12.8736 -0.591786 5.51485 -0.591786 5.51485 1.77536V2.35765C8.15345 0.87214 10.2355 1.08814 12.8736 2.48358ZM30.4851 2.35765V1.77536C30.4851 -0.591786 23.1264 -0.591786 23.1264 1.77536V2.48358C25.7646 1.08821 27.8466 0.87214 30.4851 2.35765ZM12.9026 3.50021C15.8467 5.16433 20.1534 5.16433 23.0975 3.50021C25.7383 2.0076 27.6788 1.59836 30.5761 3.43524C33.881 5.53055 36.4601 13.7813 35.9309 19.3535C35.3054 25.94 29.554 26.8804 25.5036 22.5032C23.4129 20.2438 21.1206 19.0224 18 18.9901C14.8794 19.0225 12.5872 20.2438 10.4965 22.5032C6.44609 26.8804 0.694654 25.94 0.0691916 19.3535C-0.460052 13.7812 2.11907 5.53048 5.42397 3.43524C8.32131 1.59836 10.2617 2.0076 12.9026 3.50021ZM10.4912 11.0275V8.3654H7.82901V11.0275H5.16685V13.6897H7.82901V16.3518H10.4912V13.6897H13.1533V11.0275H10.4912ZM26.4226 7.94804C25.6732 7.94804 25.0657 8.55557 25.0657 9.30491C25.0657 10.0543 25.6732 10.6618 26.4226 10.6618C27.1719 10.6618 27.7794 10.0543 27.7794 9.30491C27.7794 8.55557 27.1719 7.94804 26.4226 7.94804ZM24.7258 12.3585C24.7258 11.6091 24.1183 11.0017 23.3689 11.0017C22.6196 11.0017 22.0121 11.6092 22.0121 12.3585C22.0121 13.1079 22.6196 13.7154 23.3689 13.7154C24.1183 13.7154 24.7258 13.1079 24.7258 12.3585ZM26.4226 14.0553C25.6732 14.0553 25.0657 14.6628 25.0657 15.4122C25.0657 16.1615 25.6732 16.7691 26.4226 16.7691C27.1719 16.7691 27.7794 16.1615 27.7794 15.4122C27.7794 14.6628 27.1719 14.0553 26.4226 14.0553ZM30.8331 12.3585C30.8331 11.6091 30.2255 11.0017 29.4762 11.0017C28.7269 11.0017 28.1193 11.6092 28.1193 12.3585C28.1193 13.1079 28.7269 13.7154 29.4762 13.7154C30.2255 13.7154 30.8331 13.1079 30.8331 12.3585Z" fill="#2258A8"/>
</svg>
