<svg width="30" height="30" viewBox="0 0 30 30" fill="none" xmlns="http://www.w3.org/2000/svg">
<path d="M27.1153 26.3192L24.8076 27.4731V30H19.0383V27.4731L16.7307 26.3192V24.2308H27.1153V26.3192Z" fill="#2258A8"/>
<path d="M25.9614 9.23047H17.8845V4.03816H25.9614V9.23047ZM23.0768 7.4997H20.7691V8.65355H23.0768V7.4997Z" fill="#2258A8"/>
<path d="M4.03839 3.46229H13.8461V6.92383H4.03839V3.46229ZM7.49993 5.76998H9.80762V4.61614H7.49993V5.76998Z" fill="#2258A8"/>
<path d="M4.03839 8.07752H13.8461V11.5391H4.03839V8.07752ZM7.49993 10.3852H9.80762V9.23137H7.49993V10.3852Z" fill="#2258A8"/>
<path d="M3.46142 21.82C3.07649 21.6839 2.75206 21.4161 2.54548 21.0639C2.3389 20.7118 2.26346 20.2979 2.3325 19.8955C2.40154 19.4931 2.61062 19.1281 2.92277 18.8649C3.23493 18.6018 3.63006 18.4574 4.03834 18.4574C4.44663 18.4574 4.84176 18.6018 5.15392 18.8649C5.46607 19.1281 5.67515 19.4931 5.74419 19.8955C5.81323 20.2979 5.73779 20.7118 5.53121 21.0639C5.32463 21.4161 5.0002 21.6839 4.61527 21.82V27.1161H9.80758V24.7565C8.95177 24.6119 8.18153 24.151 7.64951 23.4652C7.11749 22.7794 6.8625 21.9188 6.93508 21.0539C7.00767 20.189 7.40252 19.3829 8.0414 18.7954C8.68028 18.2079 9.51655 17.8819 10.3845 17.8819C11.2524 17.8819 12.0887 18.2079 12.7276 18.7954C13.3665 19.3829 13.7613 20.189 13.8339 21.0539C13.9065 21.9188 13.6515 22.7794 13.1195 23.4652C12.5875 24.151 11.8172 24.6119 10.9614 24.7565V27.1161H13.846V28.27H10.9614V29.4238H9.80758V28.27H4.61527V29.4238H3.46142V28.27H1.73065V27.1161H3.46142V21.82Z" fill="#2258A8"/>
<path d="M30 15.5778H24.8077V17.3086H22.5V16.1547H23.6538V15.5778H20.1923V16.1547H21.3462V17.3086H19.0385V15.5778H0V14.424H0.576923V0.000900269H29.4231V14.424H30V15.5778ZM2.88462 12.6932H15V2.30859H2.88462V12.6932ZM27.1154 2.88552H16.7308V10.3855H27.1154V2.88552ZM22.2115 13.2701C22.3827 13.2701 22.55 13.2194 22.6923 13.1243C22.8346 13.0292 22.9456 12.894 23.011 12.7359C23.0765 12.5778 23.0937 12.4038 23.0603 12.2359C23.0269 12.068 22.9445 11.9139 22.8235 11.7928C22.7024 11.6718 22.5482 11.5894 22.3804 11.556C22.2125 11.5226 22.0385 11.5397 21.8804 11.6052C21.7222 11.6707 21.5871 11.7817 21.492 11.924C21.3969 12.0663 21.3462 12.2336 21.3462 12.4047C21.3462 12.6343 21.4373 12.8544 21.5996 13.0167C21.7619 13.179 21.982 13.2701 22.2115 13.2701ZM25.0962 13.2701C25.2673 13.2701 25.4346 13.2194 25.5769 13.1243C25.7192 13.0292 25.8302 12.894 25.8957 12.7359C25.9612 12.5778 25.9783 12.4038 25.9449 12.2359C25.9115 12.068 25.8291 11.9139 25.7081 11.7928C25.587 11.6718 25.4328 11.5894 25.265 11.556C25.0971 11.5226 24.9231 11.5397 24.765 11.6052C24.6069 11.6707 24.4717 11.7817 24.3766 11.924C24.2815 12.0663 24.2308 12.2336 24.2308 12.4047C24.2308 12.6343 24.3219 12.8544 24.4842 13.0167C24.6465 13.179 24.8666 13.2701 25.0962 13.2701Z" fill="#2258A8"/>
</svg>
