<svg width="30" height="26" viewBox="0 0 30 26" fill="none" xmlns="http://www.w3.org/2000/svg">
<path d="M29.2028 0.233025C29.0283 0.0697535 28.7949 -0.0140696 28.5555 0.00193507C17.6727 0.725199 11.7326 0.725199 0.921193 0.00193507C0.682388 -0.0138394 0.448247 0.0695809 0.273692 0.232852C0.0990796 0.396181 0 0.624565 0 0.863599V19.056C0 19.2949 0.099022 19.5232 0.273404 19.6865C0.447614 19.8499 0.68354 19.9336 0.920502 19.9177C11.7646 19.2008 17.7049 19.2008 28.5558 19.9177C28.7947 19.9336 29.0285 19.8498 29.2029 19.6865C29.3772 19.5232 29.4763 19.2949 29.4763 19.056V0.863599C29.4763 0.624622 29.3773 0.396353 29.2028 0.233025Z" fill="#2258A8"/>
<path d="M23.9279 24.3024L17.732 22.6422V21.138C16.709 21.1173 15.7175 21.1074 14.7357 21.1074C13.7555 21.1074 12.7656 21.1173 11.7446 21.1379V22.6421L5.54862 24.3024C5.08793 24.4259 4.81453 24.8994 4.93796 25.3601C5.04136 25.7459 5.39024 26.0004 5.77153 26.0004C5.84551 26.0004 5.92075 25.9908 5.9956 25.9707L12.4943 24.2294C12.5317 24.2344 16.945 24.2344 16.9823 24.2294L23.481 25.9707C23.5559 25.9908 23.631 26.0004 23.7051 26.0004C24.0863 26.0004 24.4353 25.7459 24.5387 25.3601C24.662 24.8994 24.3886 24.4259 23.9279 24.3024Z" fill="#2258A8"/>
</svg>
