<svg width="26" height="33" viewBox="0 0 26 33" fill="none" xmlns="http://www.w3.org/2000/svg">
<path d="M25.5 6.75V2.25C25.5 1.00912 24.4909 0 23.25 0H2.25C1.00912 0 0 1.00912 0 2.25V6.75H25.5ZM17.25 2.25C17.25 2.043 17.418 1.875 17.625 1.875H22.125C22.332 1.875 22.5 2.043 22.5 2.25V4.5C22.5 4.707 22.332 4.875 22.125 4.875H17.625C17.418 4.875 17.25 4.707 17.25 4.5V2.25ZM12.75 1.875C14.7326 1.93613 14.7323 4.81425 12.75 4.875C10.7674 4.81388 10.7677 1.93575 12.75 1.875ZM7.5 2.625C8.48925 2.65013 8.48888 4.10025 7.5 4.125C6.51075 4.09987 6.51113 2.64975 7.5 2.625ZM3.75 2.625C4.73925 2.65013 4.73887 4.10025 3.75 4.125C2.76075 4.09987 2.76113 2.64975 3.75 2.625Z" fill="#2258A8"/>
<path d="M0 7.5V30.75C0 31.9909 1.00912 33 2.25 33H23.25C24.4909 33 25.5 31.9909 25.5 30.75V7.5H0ZM12.75 28.5C8.20088 28.5 4.5 24.7991 4.5 20.25C4.953 9.30525 20.5485 9.30825 21 20.25C21 24.7991 17.2991 28.5 12.75 28.5Z" fill="#2258A8"/>
<path d="M19.5001 20.25C19.5001 16.5281 16.4719 13.5 12.7501 13.5C9.02818 13.5 6.00006 16.5281 6.00006 20.25C5.98506 23.9467 9.03756 27.0236 12.7501 27C16.4633 27.0015 19.5023 23.9629 19.5001 20.25ZM12.7501 14.25C16.0096 14.25 18.6702 16.863 18.7482 20.1045C17.6633 20.9512 16.3257 21.4065 14.9723 21.5947C13.3227 21.9484 11.9194 21.1564 10.4779 20.5792C9.29256 20.1142 7.96806 20.0704 6.75418 20.4637C6.62668 17.0839 9.36755 14.2429 12.7501 14.25Z" fill="#2258A8"/>
<path d="M17.2407 18.7255C17.0945 18.7255 16.9557 18.6396 16.8953 18.4964C16.382 17.2817 15.3676 16.3574 14.1128 15.9602C13.6471 15.8046 13.865 15.1045 14.3393 15.2451C15.8037 15.7086 16.9872 16.7871 17.5861 18.2046C17.6941 18.4446 17.5021 18.7304 17.2407 18.7255Z" fill="#2258A8"/>
</svg>
