<svg width="24" height="24" viewBox="0 0 24 24" fill="none" xmlns="http://www.w3.org/2000/svg">
<path d="M23.6413 4.72826V6.30435H0V4.72826C0 2.8212 1.35543 1.22935 3.15217 0.866848V1.57609C3.15217 2.00951 3.50679 2.36413 3.94022 2.36413C4.37364 2.36413 4.72826 2.00951 4.72826 1.57609V0.788043H7.09239V1.57609C7.09239 2.00951 7.44701 2.36413 7.88043 2.36413C8.31386 2.36413 8.66848 2.00951 8.66848 1.57609V0.788043H11.0326V1.57609C11.0326 2.00951 11.3872 2.36413 11.8207 2.36413C12.2541 2.36413 12.6087 2.00951 12.6087 1.57609V0.788043H14.9728V1.57609C14.9728 2.00951 15.3274 2.36413 15.7609 2.36413C16.1943 2.36413 16.5489 2.00951 16.5489 1.57609V0.788043H18.913V1.57609C18.913 2.00951 19.2677 2.36413 19.7011 2.36413C20.1345 2.36413 20.4891 2.00951 20.4891 1.57609V0.866848C22.2859 1.22935 23.6413 2.8212 23.6413 4.72826ZM11.8207 0C11.3872 0 11.0326 0.35462 11.0326 0.788043H12.6087C12.6087 0.35462 12.2541 0 11.8207 0ZM3.94022 0C3.50679 0 3.15217 0.35462 3.15217 0.788043V0.866848C3.40435 0.811685 3.67228 0.788043 3.94022 0.788043H4.72826C4.72826 0.35462 4.37364 0 3.94022 0ZM7.88043 0C7.44701 0 7.09239 0.35462 7.09239 0.788043H8.66848C8.66848 0.35462 8.31386 0 7.88043 0ZM15.7609 0C15.3274 0 14.9728 0.35462 14.9728 0.788043H16.5489C16.5489 0.35462 16.1943 0 15.7609 0ZM19.7011 0C19.2677 0 18.913 0.35462 18.913 0.788043H19.7011C19.969 0.788043 20.237 0.811685 20.4891 0.866848V0.788043C20.4891 0.35462 20.1345 0 19.7011 0ZM23.6413 18.125C23.6413 21.1747 21.1747 23.6413 18.125 23.6413C15.0753 23.6413 12.6087 21.1747 12.6087 18.125C12.6087 15.0753 15.0753 12.6087 18.125 12.6087C21.1747 12.6087 23.6413 15.0753 23.6413 18.125ZM20.4891 18.125C20.4891 17.6916 20.1345 17.337 19.7011 17.337H18.913V15.7609C18.913 15.3274 18.5584 14.9728 18.125 14.9728C17.6916 14.9728 17.337 15.3274 17.337 15.7609V18.125C17.337 18.5584 17.6916 18.913 18.125 18.913H19.7011C20.1345 18.913 20.4891 18.5584 20.4891 18.125ZM23.6413 7.88043V13.6804C22.341 12.0649 20.3552 11.0326 18.125 11.0326C14.2163 11.0326 11.0326 14.2163 11.0326 18.125C11.0326 20.3552 12.0649 22.341 13.6804 23.6413H3.94022C1.76522 23.6413 0 21.8761 0 19.7011V7.88043H23.6413ZM5.5163 19.7011C5.5163 19.2677 5.16168 18.913 4.72826 18.913C4.29484 18.913 3.94022 19.2677 3.94022 19.7011C3.94022 20.1345 4.29484 20.4891 4.72826 20.4891C5.16168 20.4891 5.5163 20.1345 5.5163 19.7011ZM5.5163 15.7609C5.5163 15.3274 5.16168 14.9728 4.72826 14.9728C4.29484 14.9728 3.94022 15.3274 3.94022 15.7609C3.94022 16.1943 4.29484 16.5489 4.72826 16.5489C5.16168 16.5489 5.5163 16.1943 5.5163 15.7609ZM5.5163 11.8207C5.5163 11.3872 5.16168 11.0326 4.72826 11.0326C4.29484 11.0326 3.94022 11.3872 3.94022 11.8207C3.94022 12.2541 4.29484 12.6087 4.72826 12.6087C5.16168 12.6087 5.5163 12.2541 5.5163 11.8207ZM10.2446 19.7011C10.2446 19.2677 9.88995 18.913 9.45652 18.913C9.0231 18.913 8.66848 19.2677 8.66848 19.7011C8.66848 20.1345 9.0231 20.4891 9.45652 20.4891C9.88995 20.4891 10.2446 20.1345 10.2446 19.7011ZM10.2446 15.7609C10.2446 15.3274 9.88995 14.9728 9.45652 14.9728C9.0231 14.9728 8.66848 15.3274 8.66848 15.7609C8.66848 16.1943 9.0231 16.5489 9.45652 16.5489C9.88995 16.5489 10.2446 16.1943 10.2446 15.7609ZM10.2446 11.8207C10.2446 11.3872 9.88995 11.0326 9.45652 11.0326C9.0231 11.0326 8.66848 11.3872 8.66848 11.8207C8.66848 12.2541 9.0231 12.6087 9.45652 12.6087C9.88995 12.6087 10.2446 12.2541 10.2446 11.8207Z" fill="#2258A8"/>
</svg>
