<svg width="15" height="16" viewBox="0 0 15 16" fill="none" xmlns="http://www.w3.org/2000/svg">
<path d="M8.74301 0.797363C8.82546 1.00054 8.87719 1.21486 8.89649 1.43327C10.4735 1.78213 11.8758 2.67872 12.8543 3.96376C13.8327 5.2488 14.324 6.83908 14.2407 8.45207C14.1575 10.0651 13.5052 11.5963 12.3997 12.7739C11.2942 13.9514 9.80702 14.6989 8.20248 14.8836C6.59793 15.0682 4.97986 14.6782 3.63572 13.7826C2.29159 12.8871 1.30842 11.5441 0.860896 9.99217C0.413368 8.44027 0.530454 6.77996 1.19135 5.30623C1.85225 3.83249 3.01417 2.64074 4.47068 1.94271C4.46118 1.84088 4.45346 1.73816 4.45346 1.63158C4.4543 1.5156 4.46423 1.39986 4.48315 1.28543C2.84803 1.99049 1.52089 3.25992 0.743883 4.86211C-0.0331236 6.46429 -0.208204 8.29243 0.250587 10.013C0.709377 11.7335 1.77146 13.2318 3.24304 14.2343C4.71462 15.2369 6.49761 15.677 8.2667 15.4743C10.0358 15.2717 11.673 14.4397 12.8797 13.1302C14.0864 11.8208 14.7821 10.1212 14.8399 8.34144C14.8976 6.56172 14.3136 4.82056 13.1943 3.43563C12.0751 2.0507 10.4952 1.11433 8.74301 0.797363Z" fill="#505050"/>
<path d="M3.97849 4.3748L2.49412 5.48809C2.44427 5.52547 2.40745 5.57759 2.38887 5.63707C2.37029 5.69654 2.3709 5.76035 2.3906 5.81947C2.4103 5.87858 2.44811 5.92999 2.49866 5.96642C2.5492 6.00286 2.60993 6.02246 2.67224 6.02246H2.96912V7.50684C2.96912 7.58557 3.00039 7.66108 3.05607 7.71676C3.11174 7.77243 3.18726 7.80371 3.26599 7.80371H5.04724C5.12598 7.80371 5.20149 7.77243 5.25716 7.71676C5.31284 7.66108 5.34412 7.58557 5.34412 7.50684V6.02246H5.64099C5.7033 6.02246 5.76403 6.00286 5.81458 5.96642C5.86512 5.92999 5.90293 5.87858 5.92263 5.81947C5.94234 5.76035 5.94294 5.69654 5.92436 5.63707C5.90578 5.57759 5.86896 5.52547 5.81912 5.48809L4.33474 4.3748C4.28335 4.33626 4.22085 4.31543 4.15662 4.31543C4.09238 4.31543 4.02988 4.33626 3.97849 4.3748Z" fill="#505050"/>
<path d="M6.68005 0C6.46563 0 6.25331 0.0422339 6.0552 0.12429C5.8571 0.206347 5.6771 0.326619 5.52548 0.47824C5.37386 0.62986 5.25359 0.80986 5.17153 1.00796C5.08948 1.20606 5.04724 1.41839 5.04724 1.63281C5.04724 3.3823 6.68005 4.43205 6.68005 4.43205C6.68005 4.43205 8.31287 3.3823 8.31287 1.63281C8.31287 1.19976 8.14084 0.784451 7.83463 0.47824C7.52841 0.172028 7.1131 0 6.68005 0ZM6.68005 2.21617C6.54159 2.21623 6.40622 2.17522 6.29106 2.09834C6.1759 2.02146 6.08613 1.91215 6.0331 1.78424C5.98007 1.65633 5.96616 1.51557 5.99314 1.37975C6.02012 1.24394 6.08677 1.11918 6.18466 1.02125C6.28254 0.923318 6.40728 0.856617 6.54308 0.829582C6.67888 0.802547 6.81965 0.816393 6.94758 0.869368C7.07551 0.922343 7.18486 1.01207 7.26179 1.12719C7.33872 1.24232 7.37979 1.37767 7.37979 1.51614C7.37979 1.70175 7.30608 1.87976 7.17486 2.01103C7.04364 2.14231 6.86566 2.21609 6.68005 2.21617Z" fill="#505050"/>
<path d="M12.3527 11.3505L10.912 12.215L10.0475 13.6557C10.0167 13.7071 9.97098 13.7479 9.91649 13.7729C9.862 13.7978 9.80125 13.8056 9.74221 13.7954C9.68317 13.7852 9.62861 13.7573 9.58571 13.7154C9.54281 13.6736 9.51357 13.6198 9.50184 13.561L8.90007 10.5525C8.89047 10.5045 8.89285 10.455 8.90701 10.4082C8.92117 10.3614 8.94667 10.3188 8.98124 10.2842C9.01581 10.2496 9.05839 10.2241 9.10519 10.21C9.15199 10.1958 9.20156 10.1934 9.2495 10.2031L12.2583 10.8048C12.3171 10.8166 12.3709 10.8459 12.4127 10.8888C12.4545 10.9317 12.4823 10.9863 12.4925 11.0453C12.5027 11.1043 12.4948 11.1651 12.4699 11.2195C12.4449 11.274 12.4041 11.3197 12.3527 11.3505Z" fill="#505050"/>
<path d="M8.01598 10.4756C7.87556 10.4756 6.63432 10.4545 6.2659 9.71766C6.18455 9.51073 6.1523 9.28776 6.17167 9.06626C6.19103 8.84476 6.2615 8.63077 6.37753 8.4411C6.57673 8.0608 7.21768 7.15177 8.86445 6.91635C9.33173 6.84955 9.65443 6.61947 9.72806 6.29766C9.75346 6.18951 9.74482 6.07615 9.70332 5.97311C9.66181 5.87006 9.58947 5.78236 9.4962 5.72202C9.3255 5.60742 8.66495 5.30788 7.29546 6.26589C7.23091 6.30821 7.15242 6.32373 7.07662 6.30915C7.00083 6.29457 6.93369 6.25105 6.88944 6.1878C6.84519 6.12456 6.82732 6.04657 6.8396 5.97037C6.85189 5.89417 6.89336 5.82575 6.95524 5.77961C8.58806 4.63664 9.50837 5.01427 9.82781 5.2298C10.0204 5.35728 10.1694 5.54053 10.255 5.75503C10.3406 5.96953 10.3586 6.20504 10.3067 6.43006C10.2057 6.87003 9.79604 7.38303 8.94876 7.50416C7.57334 7.70039 7.06034 8.41735 6.90359 8.7166C6.83389 8.82436 6.78831 8.94592 6.76997 9.07295C6.75162 9.19997 6.76095 9.32946 6.79731 9.45255C6.9594 9.77674 7.68942 9.88183 8.01598 9.88183C8.09472 9.88183 8.17023 9.91311 8.2259 9.96878C8.28158 10.0245 8.31285 10.1 8.31285 10.1787C8.31285 10.2574 8.28158 10.333 8.2259 10.3886C8.17023 10.4443 8.09472 10.4756 8.01598 10.4756Z" fill="#505050"/>
</svg>
