<svg width="40" height="28" viewBox="0 0 40 28" fill="none" xmlns="http://www.w3.org/2000/svg">
<path d="M35.4119 9.88237H31.2943C31.5479 9.88237 31.7868 9.7654 31.9432 9.56614C32.0997 9.36687 32.1541 9.10661 32.0931 8.85955L31.5808 6.81227C31.3057 5.71039 30.3192 4.94119 29.1843 4.94119H23.8825C22.5203 4.94119 21.4119 6.04963 21.4119 7.41178V9.05881C21.4119 9.5134 21.7808 9.88237 22.2354 9.88237H17.2942C17.7488 9.88237 18.1178 9.5134 18.1178 9.05881V7.41178C18.1178 6.04963 17.0093 4.94119 15.6472 4.94119H10.3453C9.21045 4.94119 8.22391 5.71039 7.94883 6.81227L7.43657 8.85955C7.37395 9.10498 7.43 9.36687 7.58642 9.56614C7.74292 9.7654 7.98171 9.88237 8.23534 9.88237H4.11771C3.66312 9.88237 3.29415 9.5134 3.29415 9.05881V4.11763C3.29415 1.848 5.14215 0 7.41178 0H32.1178C34.3874 0 36.2354 1.848 36.2354 4.11763V9.05881C36.2354 9.5134 35.8665 9.88237 35.4119 9.88237Z" fill="#2258A8"/>
<path d="M4.11769 11.5293H35.4119C37.6815 11.5293 39.5295 13.3773 39.5295 15.6469V27.1763C39.5295 27.6309 39.1606 27.9999 38.706 27.9999C38.2514 27.9999 37.8824 27.6309 37.8824 27.1763V24.7057H1.6471V27.1763C1.6471 27.6309 1.27813 27.9999 0.82354 27.9999C0.36895 27.9999 -1.52588e-05 27.6309 -1.52588e-05 27.1763V15.6469C6.10352e-05 13.3773 1.84806 11.5293 4.11769 11.5293ZM1.6471 23.0587H37.8825V21.4117H1.64717V23.0587H1.6471Z" fill="#2258A8"/>
</svg>
