<svg width="29" height="29" viewBox="0 0 29 29" fill="none" xmlns="http://www.w3.org/2000/svg">
<path d="M19.052 9.01545H9.03479C9.03479 6.61133 10.7377 4.6079 13.0417 4.10704V0H15.0451V4.10704C17.349 4.6079 19.052 6.61133 19.052 9.01545Z" fill="#2258A8"/>
<path d="M28.0674 10.3175C27.1658 13.4228 27.0656 16.3278 27.0656 19.0325V28.0479H25.0622V22.0376H19.0519V28.0479H17.0485V20.0342C17.0485 18.9323 17.95 18.0307 19.0519 18.0307H25.0622C25.0622 15.5264 25.2625 12.6215 26.0639 9.71649C26.2643 9.21563 26.7651 8.91512 27.266 9.01529C27.867 9.21563 28.1675 9.71649 28.0674 10.3175Z" fill="#2258A8"/>
<path d="M11.0382 20.0336V28.0473H9.03477V22.037H3.02447V28.0473H1.02103V19.0319C1.02103 16.3273 0.92086 13.3221 0.0193151 10.317C-0.0808566 9.8161 0.219659 9.21507 0.720517 9.1149C1.22138 9.01472 1.82241 9.31524 1.92258 9.8161C2.72395 12.7211 2.92429 15.6261 2.92429 18.1304H8.9346C10.1367 18.0302 11.0382 18.9317 11.0382 20.0336Z" fill="#2258A8"/>
<path d="M15.5459 17.0293V28.0482H12.5408V17.0293H15.5459Z" fill="#2258A8"/>
<path d="M23.0587 14.0232V16.0266H17.0484H15.5459H12.5407H11.0381H5.02783V14.0232C5.02783 13.4222 5.42852 13.0215 6.02955 13.0215H22.057C22.6581 13.0215 23.0587 13.4222 23.0587 14.0232Z" fill="#2258A8"/>
</svg>
