<svg width="29" height="29" viewBox="0 0 29 29" fill="none" xmlns="http://www.w3.org/2000/svg">
<path d="M15.3922 10.7324V23.0462H24.6275V10.7324H15.3922ZM16.5686 12.422L17.0817 11.9089C17.1785 11.8154 17.3081 11.7637 17.4426 11.7649C17.5771 11.7661 17.7058 11.82 17.8009 11.9151C17.8961 12.0103 17.95 12.139 17.9512 12.2735C17.9524 12.408 17.9006 12.5376 17.8072 12.6344L17.2941 13.1475C17.1973 13.2409 17.0677 13.2926 16.9332 13.2915C16.7987 13.2903 16.67 13.2363 16.5749 13.1412C16.4797 13.0461 16.4258 12.9174 16.4246 12.7829C16.4235 12.6483 16.4752 12.5187 16.5686 12.422ZM20.3726 12.6344L17.2941 15.7128C17.2468 15.7618 17.1902 15.8009 17.1276 15.8278C17.065 15.8547 16.9977 15.8689 16.9295 15.8694C16.8614 15.87 16.7938 15.8571 16.7308 15.8313C16.6677 15.8055 16.6104 15.7674 16.5623 15.7192C16.5141 15.671 16.476 15.6137 16.4502 15.5507C16.4244 15.4876 16.4114 15.4201 16.412 15.3519C16.4126 15.2838 16.4268 15.2165 16.4536 15.1539C16.4805 15.0913 16.5196 15.0347 16.5686 14.9873L19.6471 11.9089C19.7438 11.8154 19.8734 11.7637 20.008 11.7649C20.1425 11.7661 20.2712 11.82 20.3663 11.9151C20.4614 12.0103 20.5154 12.139 20.5166 12.2735C20.5177 12.408 20.466 12.5376 20.3726 12.6344Z" fill="#2258A8"/>
<path d="M13.5908 25.573C13.796 25.6284 12.7185 25.6115 26.1667 25.6115C26.2554 25.6103 26.3436 25.5973 26.4289 25.573L24.9281 24.0723H15.0915L13.5908 25.573Z" fill="#2258A8"/>
<path d="M25.6537 23.3475L27.1544 24.8482C27.1788 24.7629 27.1917 24.6747 27.1929 24.586C27.1929 8.10457 27.2124 9.14816 27.1544 8.93164L25.6537 10.4324V23.3475Z" fill="#2258A8"/>
<path d="M14.3661 23.3475V10.4324L12.8654 8.93164C12.8059 9.1538 12.8269 8.12663 12.8269 24.586C12.8281 24.6747 12.8411 24.7629 12.8654 24.8482L14.3661 23.3475Z" fill="#2258A8"/>
<path d="M28.2191 26.6387H0.513074C0.229711 26.6387 0 26.8684 0 27.1517V28.1779C0 28.4613 0.229711 28.691 0.513074 28.691H28.2191C28.5024 28.691 28.7321 28.4613 28.7321 28.1779V27.1517C28.7321 26.8684 28.5024 26.6387 28.2191 26.6387Z" fill="#2258A8"/>
<path d="M24.9281 9.70614L26.4289 8.2054C26.3436 8.18107 26.2554 8.16813 26.1667 8.16692C12.9807 8.16692 13.8016 8.14845 13.5908 8.2054L15.0915 9.70614H24.9281Z" fill="#2258A8"/>
<path d="M7.11376 0.13652C8.56217 -0.588967 8.67863 1.75937 7.28102 2.89275C7.11225 2.65143 6.89223 2.45039 6.63668 2.30404C6.38114 2.15768 6.09641 2.06963 5.80286 2.04618C5.86401 1.64989 6.0136 1.27245 6.24054 0.941859C6.46747 0.611271 6.76593 0.336018 7.11376 0.13652Z" fill="#2258A8"/>
<path d="M6.64435 4.07264C6.64635 4.27536 6.58826 4.47413 6.47742 4.64387C6.36657 4.81361 6.20793 4.94671 6.02151 5.02638C5.83509 5.10605 5.62926 5.12871 5.42997 5.09152C5.23069 5.05432 5.04688 4.95893 4.90176 4.81737C4.75663 4.67582 4.65669 4.49446 4.61453 4.29616C4.57238 4.09786 4.5899 3.89152 4.6649 3.70318C4.7399 3.51483 4.869 3.35292 5.03592 3.23788C5.20284 3.12283 5.4001 3.05981 5.60281 3.05676C5.73799 3.05472 5.87225 3.07942 5.99786 3.12944C6.12347 3.17945 6.23796 3.2538 6.33474 3.3482C6.43153 3.4426 6.50871 3.5552 6.56184 3.67953C6.61497 3.80385 6.64301 3.93745 6.64435 4.07264Z" fill="#2258A8"/>
<path d="M2.96286 0.527939C3.22863 -0.482303 4.45077 0.127228 5.02952 1.05589C4.86799 1.42721 4.77416 1.82443 4.75246 2.22878C4.63922 2.2817 4.53118 2.34508 4.42973 2.4181C4.06066 2.23549 3.66251 2.11881 3.25325 2.07332C2.97255 1.61034 2.86936 1.06123 2.96286 0.527939Z" fill="#2258A8"/>
<path d="M0.974809 4.08795C0.969166 3.42403 2.37653 2.70522 3.75721 3.24292C3.63509 3.50989 3.57189 3.80002 3.57189 4.09359C3.57189 4.38717 3.63509 4.6773 3.75721 4.94427C2.44682 5.45632 0.980966 4.7847 0.974809 4.08795Z" fill="#2258A8"/>
<path d="M2.97166 7.37605C2.95927 6.93274 3.06744 6.49438 3.28464 6.10773C3.68929 6.05976 4.08242 5.94133 4.44623 5.75781C4.5413 5.83881 4.64937 5.90317 4.76588 5.94816C4.79356 6.35274 4.89185 6.74934 5.05628 7.12002C4.37646 8.22724 3.05837 8.66284 2.97166 7.37605Z" fill="#2258A8"/>
<path d="M8.27129 7.64321C7.93933 8.90332 6.08047 7.70016 5.81982 6.12502C6.11252 6.09568 6.39549 6.00375 6.64955 5.85547C6.90361 5.7072 7.12283 5.50604 7.29235 5.26562C7.6503 5.54074 7.92931 5.90545 8.1012 6.32292C8.27308 6.74038 8.33175 7.19581 8.27129 7.64321Z" fill="#2258A8"/>
<path d="M10.0285 4.5697C9.61706 4.92084 9.09215 5.11064 8.55132 5.10381C8.30436 4.77343 8.00132 4.48898 7.65601 4.26339C7.66755 4.13915 7.66755 4.01411 7.65601 3.88987C7.99443 3.66676 8.28988 3.38451 8.52823 3.05664C9.61595 3.08794 10.7637 3.83138 10.0285 4.5697Z" fill="#2258A8"/>
<path d="M3.56471 12.2715H7.6693C7.80537 12.2715 7.93588 12.3255 8.0321 12.4218C8.12832 12.518 8.18237 12.6485 8.18237 12.7846C8.18237 12.9206 8.12832 13.0511 8.0321 13.1474C7.93588 13.2436 7.80537 13.2976 7.6693 13.2976H3.56471C3.42863 13.2976 3.29813 13.2436 3.20191 13.1474C3.10569 13.0511 3.05164 12.9206 3.05164 12.7846C3.05164 12.6485 3.10569 12.518 3.20191 12.4218C3.29813 12.3255 3.42863 12.2715 3.56471 12.2715Z" fill="#2258A8"/>
<path d="M8.47548 24.4533C8.07576 24.8475 7.59942 25.1555 7.07593 25.3582C6.55244 25.561 5.99292 25.6542 5.43198 25.6321C4.87103 25.61 4.32057 25.4731 3.81465 25.2298C3.30872 24.9865 2.85808 24.642 2.49059 24.2176C2.12309 23.7933 1.84656 23.298 1.67809 22.7625C1.50961 22.227 1.45278 21.6626 1.5111 21.1043C1.56942 20.5459 1.74166 20.0055 2.01716 19.5163C2.29267 19.0272 2.66558 18.5998 3.11284 18.2605C3.41523 18.0223 3.65932 17.7183 3.82655 17.3715C3.99379 17.0248 4.07976 16.6445 4.07793 16.2595V14.3242H7.15637V16.2595C7.15729 16.6509 7.24764 17.0369 7.4205 17.3881C7.59336 17.7392 7.84417 18.0462 8.15379 18.2857C8.61429 18.6467 8.99211 19.1022 9.2618 19.6216C9.53149 20.1409 9.68681 20.7119 9.71729 21.2963C9.74777 21.8807 9.65271 22.4648 9.4385 23.0094C9.2243 23.554 8.89593 24.0463 8.47548 24.4533Z" fill="#2258A8"/>
<path d="M6.13119 8.57242V11.2455H5.10504V8.60833C5.96239 7.9362 5.29744 7.90542 6.13119 8.57242Z" fill="#2258A8"/>
</svg>
