<svg width="36" height="36" viewBox="0 0 36 36" fill="none" xmlns="http://www.w3.org/2000/svg">
<path d="M20.5759 25.3691C20.3406 25.3691 20.1498 25.5599 20.1498 25.7952V26.4965C20.1498 26.7318 20.3406 26.9226 20.5759 26.9226C20.8111 26.9226 21.0019 26.7318 21.0019 26.4965V25.7952C21.0019 25.5599 20.8111 25.3691 20.5759 25.3691Z" fill="#2258A8"/>
<path d="M23.0883 26.1973C22.853 26.1973 22.6622 26.388 22.6622 26.6233V27.3247C22.6622 27.5599 22.853 27.7507 23.0883 27.7507C23.3235 27.7507 23.5143 27.5599 23.5143 27.3247V26.6233C23.5143 26.388 23.3235 26.1973 23.0883 26.1973Z" fill="#2258A8"/>
<path d="M33.4979 16.101H25.6369L25.7418 13.1817C25.7834 12.0231 25.3619 10.897 24.5855 10.0922C23.8756 9.35645 22.9406 8.95117 21.9527 8.95117H14.0834C13.0955 8.95117 12.1604 9.35638 11.4506 10.0922C10.6741 10.8971 10.2528 12.0231 10.2944 13.1817L10.3993 16.101H2.50214C1.12247 16.101 0 17.2235 0 18.6032V19.2618C0 20.4904 0.890437 21.5144 2.0598 21.724V34.1979C2.0598 35.0561 2.75801 35.7543 3.61624 35.7543H5.52551C6.38367 35.7543 7.08195 35.0561 7.08195 34.1979V21.7639H10.6028L10.6651 23.4997C9.30846 23.9485 8.32648 25.2278 8.32648 26.733C8.32648 28.1049 9.14238 29.2891 10.3141 29.8279L9.75431 33.6017C9.75234 33.615 9.75073 33.6285 9.74953 33.6418C9.70045 34.1825 9.88235 34.7226 10.2485 35.1235C10.6147 35.5244 11.1361 35.7543 11.679 35.7543H12.9743C13.9832 35.7543 14.8127 34.9967 14.9039 33.9921L15.2537 30.1382H20.7826L21.1324 33.992C21.2235 34.9967 22.053 35.7543 23.0619 35.7543H24.3572C24.9002 35.7543 25.4216 35.5244 25.7878 35.1235C26.154 34.7225 26.3358 34.1825 26.2867 33.6418C26.2856 33.6284 26.284 33.615 26.282 33.6017L25.7221 29.8279C26.8938 29.2891 27.7097 28.1049 27.7097 26.733C27.7097 25.2278 26.7278 23.9485 25.3711 23.4997L25.4335 21.7639H28.9543V34.1979C28.9543 35.0561 29.6525 35.7543 30.5108 35.7543H32.42C33.2783 35.7543 33.9765 35.0561 33.9765 34.1979V21.7175C35.1278 21.4935 36 20.4779 36 19.2618V18.6032C36 17.2235 34.8775 16.101 33.4979 16.101ZM11.7136 13.1306C11.6857 12.3553 11.9624 11.6072 12.4727 11.0782C12.9124 10.6224 13.4845 10.3713 14.0834 10.3713H21.9527C22.5517 10.3713 23.1237 10.6224 23.5635 11.0782C24.0737 11.6071 24.3504 12.3552 24.3226 13.1306L24.2159 16.101H11.8203L11.7136 13.1306ZM5.66177 34.1979C5.66177 34.2731 5.6006 34.3342 5.52544 34.3342H3.61617C3.54101 34.3342 3.47984 34.2731 3.47984 34.1979V21.7639H5.66177V34.1979ZM13.4895 33.8637C13.4652 34.1319 13.2436 34.3342 12.9743 34.3342H11.679C11.5318 34.3342 11.3961 34.2744 11.297 34.1658C11.2013 34.0611 11.154 33.9269 11.1625 33.7861L11.7037 30.1376C11.7131 30.1377 11.7223 30.1383 11.7316 30.1383H13.8276L13.4895 33.8637ZM24.8735 33.7861C24.8821 33.9268 24.8348 34.061 24.7392 34.1657C24.64 34.2743 24.5043 34.3341 24.3571 34.3341H23.0618C22.7924 34.3341 22.5709 34.1318 22.5466 33.8636L22.2085 30.1382H24.3045C24.3139 30.1382 24.3231 30.1375 24.3323 30.1375L24.8735 33.7861ZM26.2896 26.733C26.2896 27.8276 25.3991 28.7181 24.3045 28.7181H11.7317C10.6371 28.7181 9.74658 27.8276 9.74658 26.733C9.74658 25.6384 10.6372 24.7479 11.7317 24.7479H24.3045C25.3991 24.7479 26.2896 25.6384 26.2896 26.733ZM23.9562 23.3278H12.0799L12.0237 21.764H24.0124L23.9562 23.3278ZM32.42 34.3342H30.5107C30.4355 34.3342 30.3744 34.2731 30.3744 34.1979V21.7639H32.5563V34.1979C32.5562 34.2731 32.4951 34.3342 32.42 34.3342ZM34.5799 19.2618C34.5799 19.8585 34.0945 20.3438 33.4979 20.3438H2.50214C1.90547 20.3438 1.4201 19.8585 1.4201 19.2618V18.6032C1.4201 18.0065 1.90554 17.5211 2.50214 17.5211H33.4978C34.0945 17.5211 34.5798 18.0065 34.5798 18.6032V19.2618H34.5799Z" fill="#2258A8"/>
<path d="M17.494 11.5703H16.33C15.9379 11.5703 15.62 11.8883 15.62 12.2804C15.62 12.6725 15.9379 12.9904 16.33 12.9904H17.494C17.8862 12.9904 18.2041 12.6725 18.2041 12.2804C18.2041 11.8883 17.8862 11.5703 17.494 11.5703Z" fill="#2258A8"/>
<path d="M14.1801 11.5703H14.0019C13.6098 11.5703 13.2919 11.8883 13.2919 12.2804C13.2919 12.6725 13.6098 12.9904 14.0019 12.9904H14.1801C14.5723 12.9904 14.8901 12.6725 14.8901 12.2804C14.8901 11.8883 14.5723 11.5703 14.1801 11.5703Z" fill="#2258A8"/>
<path d="M9.01595 3.24445L10.5226 3.92331C10.5872 3.95235 10.6383 4.00994 10.6641 4.0825L11.2671 5.77837C11.3524 6.01792 11.6537 6.01792 11.7389 5.77837L12.342 4.0825C12.3678 4.00987 12.4189 3.95235 12.4835 3.92331L13.9901 3.24445C14.203 3.14854 14.203 2.80942 13.9901 2.71352L12.4835 2.03465C12.419 2.00561 12.3678 1.9481 12.342 1.87546L11.7389 0.179666C11.6537 -0.0598887 11.3524 -0.0598887 11.2671 0.179666L10.6641 1.87546C10.6383 1.94817 10.5872 2.00561 10.5226 2.03465L9.01595 2.71352C8.80311 2.80935 8.80311 3.14854 9.01595 3.24445Z" fill="#2258A8"/>
<path d="M32.1798 11.4941C32.7988 11.1115 32.9904 10.2996 32.6078 9.68061C32.2252 9.06164 31.4133 8.87002 30.7944 9.2526C30.1754 9.63517 29.9838 10.4471 30.3664 11.066C30.7489 11.685 31.5608 11.8766 32.1798 11.4941Z" fill="#2258A8"/>
<path d="M4.28379 5.99434C4.59183 5.99434 4.84151 5.74466 4.84151 5.43662C4.84151 5.12859 4.59183 4.87891 4.28379 4.87891C3.97575 4.87891 3.72607 5.12859 3.72607 5.43662C3.72607 5.74466 3.97582 5.99434 4.28379 5.99434Z" fill="#2258A8"/>
<path d="M2.72592 10.5748L3.84354 11.0784C3.89142 11.0999 3.92932 11.1426 3.94845 11.1965L4.39585 12.4544C4.45906 12.6322 4.68258 12.6322 4.74579 12.4544L5.19319 11.1965C5.21232 11.1427 5.25028 11.0999 5.2981 11.0784L6.41571 10.5748C6.57364 10.5037 6.57364 10.2521 6.41571 10.1809L5.2981 9.67737C5.25021 9.65578 5.21232 9.6131 5.19319 9.55924L4.74579 8.30128C4.68258 8.12353 4.45906 8.12353 4.39585 8.30128L3.94845 9.55924C3.92932 9.61303 3.89135 9.65578 3.84354 9.67737L2.72592 10.1809C2.568 10.2521 2.568 10.5037 2.72592 10.5748Z" fill="#2258A8"/>
</svg>
