<svg width="28" height="28" viewBox="0 0 28 28" fill="none" xmlns="http://www.w3.org/2000/svg">
<path d="M7.875 22.0938C7.875 22.2098 7.92109 22.3211 8.00314 22.4031C8.08519 22.4852 8.19647 22.5312 8.3125 22.5312C8.42853 22.5312 8.53981 22.4852 8.62186 22.4031C8.70391 22.3211 8.75 22.2098 8.75 22.0938V21.6562C9.09798 21.6559 9.4316 21.5175 9.67766 21.2714C9.92372 21.0253 10.0621 20.6917 10.0625 20.3438V9.84375C10.0621 9.49577 9.92372 9.16215 9.67766 8.91609C9.4316 8.67003 9.09798 8.53163 8.75 8.53125H1.3125C0.96452 8.53163 0.630901 8.67003 0.384842 8.91609C0.138783 9.16215 0.000379836 9.49577 0 9.84375L0 20.3438C0.000379836 20.6917 0.138783 21.0253 0.384842 21.2714C0.630901 21.5175 0.96452 21.6559 1.3125 21.6562V22.0938C1.3125 22.2098 1.35859 22.3211 1.44064 22.4031C1.52269 22.4852 1.63397 22.5312 1.75 22.5312C1.86603 22.5312 1.97731 22.4852 2.05936 22.4031C2.14141 22.3211 2.1875 22.2098 2.1875 22.0938V21.6562H7.875V22.0938ZM7.875 10.2812C7.96153 10.2812 8.04612 10.3069 8.11806 10.355C8.19001 10.4031 8.24608 10.4714 8.2792 10.5513C8.31231 10.6313 8.32097 10.7192 8.30409 10.8041C8.28721 10.889 8.24555 10.9669 8.18436 11.0281C8.12317 11.0893 8.04522 11.131 7.96035 11.1478C7.87549 11.1647 7.78752 11.1561 7.70758 11.1229C7.62763 11.0898 7.5593 11.0338 7.51123 10.9618C7.46316 10.8899 7.4375 10.8053 7.4375 10.7188C7.4375 10.6027 7.48359 10.4914 7.56564 10.4094C7.64769 10.3273 7.75897 10.2812 7.875 10.2812ZM6.125 10.2812C6.21153 10.2812 6.29612 10.3069 6.36806 10.355C6.44001 10.4031 6.49608 10.4714 6.5292 10.5513C6.56231 10.6313 6.57097 10.7192 6.55409 10.8041C6.53721 10.889 6.49554 10.9669 6.43436 11.0281C6.37317 11.0893 6.29522 11.131 6.21035 11.1478C6.12549 11.1647 6.03752 11.1561 5.95758 11.1229C5.87763 11.0898 5.80931 11.0338 5.76123 10.9618C5.71316 10.8899 5.6875 10.8053 5.6875 10.7188C5.6875 10.6027 5.73359 10.4914 5.81564 10.4094C5.89769 10.3273 6.00897 10.2812 6.125 10.2812ZM1.3125 20.7812C1.19651 20.7811 1.08531 20.735 1.00329 20.653C0.921269 20.5709 0.875133 20.4597 0.875 20.3438V12.9062H9.1875V20.3438C9.18737 20.4597 9.14123 20.5709 9.05921 20.653C8.97719 20.735 8.86599 20.7811 8.75 20.7812H1.3125Z" fill="#2258A8"/>
<path d="M24.9375 14C25.6624 14 26.25 13.4124 26.25 12.6875C26.25 11.9626 25.6624 11.375 24.9375 11.375C24.2126 11.375 23.625 11.9626 23.625 12.6875C23.625 13.4124 24.2126 14 24.9375 14Z" fill="#2258A8"/>
<path d="M24.9375 10.5C25.6624 10.5 26.25 9.91237 26.25 9.1875C26.25 8.46263 25.6624 7.875 24.9375 7.875C24.2126 7.875 23.625 8.46263 23.625 9.1875C23.625 9.91237 24.2126 10.5 24.9375 10.5Z" fill="#2258A8"/>
<path d="M24.9375 17.5C25.6624 17.5 26.25 16.9124 26.25 16.1875C26.25 15.4626 25.6624 14.875 24.9375 14.875C24.2126 14.875 23.625 15.4626 23.625 16.1875C23.625 16.9124 24.2126 17.5 24.9375 17.5Z" fill="#2258A8"/>
<path d="M26.6875 6.125H23.1875C22.8395 6.12538 22.5059 6.26378 22.2598 6.50984C22.0138 6.7559 21.8754 7.08952 21.875 7.4375V14.3902C22.2343 14.7467 22.5302 15.1618 22.75 15.6178V7.4375C22.7501 7.32151 22.7963 7.21031 22.8783 7.12829C22.9603 7.04627 23.0715 7.00013 23.1875 7H26.6875C26.8035 7.00013 26.9147 7.04627 26.9967 7.12829C27.0787 7.21031 27.1249 7.32151 27.125 7.4375V17.9375C27.1249 18.0535 27.0787 18.1647 26.9967 18.2467C26.9147 18.3287 26.8035 18.3749 26.6875 18.375H23.7663C23.9223 18.643 24.0189 18.9414 24.0496 19.25H24.5V23.4062H23.4062C23.2902 23.4062 23.1789 23.4523 23.0969 23.5344C23.0148 23.6164 22.9688 23.7277 22.9688 23.8438C22.9688 23.9598 23.0148 24.0711 23.0969 24.1531C23.1789 24.2352 23.2902 24.2812 23.4062 24.2812H26.4688C26.5848 24.2812 26.6961 24.2352 26.7781 24.1531C26.8602 24.0711 26.9062 23.9598 26.9062 23.8438C26.9062 23.7277 26.8602 23.6164 26.7781 23.5344C26.6961 23.4523 26.5848 23.4062 26.4688 23.4062H25.375V19.25H26.6875C27.0355 19.2496 27.3691 19.1112 27.6152 18.8652C27.8612 18.6191 27.9996 18.2855 28 17.9375V7.4375C27.9996 7.08952 27.8612 6.7559 27.6152 6.50984C27.3691 6.26378 27.0355 6.12538 26.6875 6.125Z" fill="#2258A8"/>
<path d="M12.6875 19.6875V13.125H17.577C17.6782 12.8328 17.8801 12.5863 18.1466 12.4295C18.4131 12.2728 18.7267 12.2161 19.0312 12.2696V1.3125C19.0309 0.96452 18.8925 0.630901 18.6464 0.384842C18.4003 0.138783 18.0667 0.000379836 17.7188 0L6.78125 0C6.43327 0.000379836 6.09965 0.138783 5.85359 0.384842C5.60753 0.630901 5.46913 0.96452 5.46875 1.3125V7.65625H6.34375V1.3125C6.34388 1.19651 6.39002 1.08531 6.47204 1.00329C6.55406 0.921269 6.66526 0.875133 6.78125 0.875H11.8125V19.6875H10.9375V20.3438C10.9375 20.4176 10.9336 20.4905 10.9264 20.5625H15.2893L15.0997 19.6875H12.6875ZM13.125 6.34375C13.125 6.22772 13.1711 6.11644 13.2531 6.03439C13.3352 5.95234 13.4465 5.90625 13.5625 5.90625C13.6785 5.90625 13.7898 5.95234 13.8719 6.03439C13.9539 6.11644 14 6.22772 14 6.34375V7.21875C14 7.33478 13.9539 7.44606 13.8719 7.52811C13.7898 7.61016 13.6785 7.65625 13.5625 7.65625C13.4465 7.65625 13.3352 7.61016 13.2531 7.52811C13.1711 7.44606 13.125 7.33478 13.125 7.21875V6.34375Z" fill="#2258A8"/>
<path d="M12.25 24.5H12.1734C12.0829 24.2444 11.9155 24.0231 11.6942 23.8665C11.473 23.7098 11.2086 23.6255 10.9375 23.625H7.4375C7.16637 23.6255 6.90203 23.7098 6.68075 23.8665C6.45947 24.0231 6.29208 24.2444 6.20156 24.5H6.125C6.00897 24.5 5.89769 24.5461 5.81564 24.6281C5.73359 24.7102 5.6875 24.8215 5.6875 24.9375C5.6875 25.0535 5.73359 25.1648 5.81564 25.2469C5.89769 25.3289 6.00897 25.375 6.125 25.375V26.25C6.12546 26.5211 6.20981 26.7855 6.36647 27.0067C6.52313 27.228 6.74443 27.3954 7 27.4859V27.5625C7 27.6785 7.04609 27.7898 7.12814 27.8719C7.21019 27.9539 7.32147 28 7.4375 28C7.55353 28 7.66481 27.9539 7.74686 27.8719C7.82891 27.7898 7.875 27.6785 7.875 27.5625H10.5C10.5 27.6785 10.5461 27.7898 10.6281 27.8719C10.7102 27.9539 10.8215 28 10.9375 28C11.0535 28 11.1648 27.9539 11.2469 27.8719C11.3289 27.7898 11.375 27.6785 11.375 27.5625V27.4859C11.6306 27.3954 11.8519 27.228 12.0085 27.0067C12.1652 26.7855 12.2495 26.5211 12.25 26.25V25.375C12.366 25.375 12.4773 25.3289 12.5594 25.2469C12.6414 25.1648 12.6875 25.0535 12.6875 24.9375C12.6875 24.8215 12.6414 24.7102 12.5594 24.6281C12.4773 24.5461 12.366 24.5 12.25 24.5ZM9.1875 26.0312C9.10097 26.0312 9.01638 26.0056 8.94444 25.9575C8.87249 25.9094 8.81642 25.8411 8.7833 25.7612C8.75019 25.6812 8.74153 25.5933 8.75841 25.5084C8.77529 25.4235 8.81696 25.3456 8.87814 25.2844C8.93933 25.2232 9.01728 25.1815 9.10215 25.1647C9.18701 25.1478 9.27498 25.1564 9.35492 25.1896C9.43487 25.2227 9.5032 25.2787 9.55127 25.3507C9.59934 25.4226 9.625 25.5072 9.625 25.5938C9.625 25.7098 9.57891 25.8211 9.49686 25.9031C9.41481 25.9852 9.30353 26.0312 9.1875 26.0312Z" fill="#2258A8"/>
<path d="M5.03125 13.7812C4.42555 13.7813 3.83344 13.9609 3.32982 14.2974C2.82619 14.6339 2.43366 15.1122 2.20187 15.6718C1.97008 16.2314 1.90943 16.8471 2.0276 17.4412C2.14576 18.0353 2.43744 18.581 2.86574 19.0093C3.29404 19.4376 3.83972 19.7292 4.43379 19.8474C5.02785 19.9656 5.64362 19.9049 6.20322 19.6731C6.76282 19.4413 7.24112 19.0488 7.57763 18.5452C7.91414 18.0416 8.09375 17.4495 8.09375 16.8438C8.09284 16.0318 7.76989 15.2534 7.19576 14.6792C6.62163 14.1051 5.8432 13.7822 5.03125 13.7812ZM5.03125 17.7188C4.85819 17.7188 4.68902 17.6674 4.54513 17.5713C4.40123 17.4751 4.28908 17.3385 4.22286 17.1786C4.15663 17.0187 4.1393 16.8428 4.17306 16.673C4.20683 16.5033 4.29016 16.3474 4.41253 16.225C4.5349 16.1027 4.69081 16.0193 4.86055 15.9856C5.03028 15.9518 5.20621 15.9691 5.3661 16.0354C5.52598 16.1016 5.66264 16.2137 5.75879 16.3576C5.85493 16.5015 5.90625 16.6707 5.90625 16.8438C5.906 17.0757 5.81374 17.2982 5.6497 17.4622C5.48566 17.6262 5.26324 17.7185 5.03125 17.7188Z" fill="#2258A8"/>
<path d="M21.1359 21.9677L21.2056 21.6458C21.7474 21.5941 22.2506 21.3425 22.617 20.94C22.9834 20.5375 23.1868 20.013 23.1875 19.4688C23.187 19.1358 23.06 18.8155 22.8322 18.5726C22.6045 18.3298 22.293 18.1825 21.9608 18.1606L22.0145 17.9127C22.1011 17.8838 22.1765 17.8284 22.2299 17.7543C22.2834 17.6803 22.3123 17.5913 22.3125 17.5C22.3111 16.6482 21.9994 15.8261 21.4358 15.1875C20.8721 14.5489 20.095 14.1375 19.25 14.0304V13.5625C19.25 13.4465 19.2039 13.3352 19.1219 13.2531C19.0398 13.1711 18.9285 13.125 18.8125 13.125C18.6965 13.125 18.5852 13.1711 18.5031 13.2531C18.4211 13.3352 18.375 13.4465 18.375 13.5625V14.0304C17.53 14.1375 16.7529 14.5489 16.1892 15.1875C15.6256 15.8261 15.3139 16.6482 15.3125 17.5C15.3127 17.5913 15.3416 17.6803 15.3951 17.7543C15.4485 17.8284 15.5239 17.8838 15.6105 17.9127L16.4891 21.9677C16.5089 22.0573 16.5564 22.1384 16.625 22.1993V23.2096C16.3781 23.2604 16.1563 23.3946 15.9969 23.5898C15.8376 23.7851 15.7503 24.0292 15.75 24.2812V25.1562H16.625C16.741 25.1562 16.8523 25.2023 16.9344 25.2844C17.0164 25.3664 17.0625 25.4777 17.0625 25.5938C17.0625 25.7098 17.0164 25.8211 16.9344 25.9031C16.8523 25.9852 16.741 26.0312 16.625 26.0312H15.75V26.9062C15.7503 27.1962 15.8657 27.4742 16.0707 27.6793C16.2758 27.8843 16.5538 27.9997 16.8438 28H20.7812C21.0712 27.9997 21.3492 27.8843 21.5543 27.6793C21.7593 27.4742 21.8747 27.1962 21.875 26.9062V26.0312H21C20.884 26.0312 20.7727 25.9852 20.6906 25.9031C20.6086 25.8211 20.5625 25.7098 20.5625 25.5938C20.5625 25.4777 20.6086 25.3664 20.6906 25.2844C20.7727 25.2023 20.884 25.1562 21 25.1562H21.875V24.2812C21.8747 24.0292 21.7874 23.7851 21.628 23.5898C21.4687 23.3946 21.2469 23.2603 21 23.2096V22.1993C21.0686 22.1384 21.1161 22.0573 21.1359 21.9677ZM21.7721 19.0312H21.875C21.991 19.0314 22.1022 19.0775 22.1842 19.1595C22.2662 19.2416 22.3124 19.3528 22.3125 19.4688C22.3121 19.7455 22.2244 20.015 22.0618 20.2389C21.8992 20.4629 21.6701 20.6297 21.4071 20.7158L21.7721 19.0312ZM18.8125 26.0312C18.726 26.0312 18.6414 26.0056 18.5694 25.9575C18.4975 25.9094 18.4414 25.8411 18.4083 25.7612C18.3752 25.6812 18.3665 25.5933 18.3834 25.5084C18.4003 25.4235 18.4419 25.3456 18.5031 25.2844C18.5643 25.2232 18.6423 25.1815 18.7271 25.1647C18.812 25.1478 18.9 25.1564 18.9799 25.1896C19.0599 25.2227 19.1282 25.2787 19.1763 25.3507C19.2243 25.4226 19.25 25.5072 19.25 25.5938C19.25 25.7098 19.2039 25.8211 19.1218 25.9031C19.0398 25.9852 18.9285 26.0312 18.8125 26.0312ZM20.125 23.1875H17.5V22.3125H20.125V23.1875ZM16.2239 17.0625C16.3274 16.4508 16.6441 15.8955 17.118 15.4951C17.5918 15.0947 18.1921 14.875 18.8125 14.875C19.4329 14.875 20.0332 15.0947 20.507 15.4951C20.9809 15.8955 21.2976 16.4508 21.4011 17.0625H16.2239Z" fill="#2258A8"/>
</svg>
