<svg width="30" height="24" viewBox="0 0 30 24" fill="none" xmlns="http://www.w3.org/2000/svg">
<path d="M20.6514 0H9.34862C6.04102 0 3.29252 2.39377 2.74103 5.54342C2.68271 5.87647 2.97269 6.15283 3.31082 6.15283C6.38197 6.15283 8.87164 8.64244 8.87164 11.7137C8.87164 11.9948 9.09949 12.2226 9.38056 12.2226H20.6195C20.9006 12.2226 21.1284 11.9948 21.1284 11.7137C21.1284 8.64244 23.6181 6.15283 26.6892 6.15283C27.0273 6.15283 27.3173 5.87647 27.2591 5.5434C26.7075 2.39376 23.9591 0 20.6514 0Z" fill="#2258A8"/>
<path d="M3.31082 8.40234C1.4823 8.40234 0 9.88464 0 11.7131V13.7335C0 16.4768 1.65777 18.833 4.02621 19.855C4.38813 20.0111 4.61207 20.3954 4.5212 20.779L4.10772 22.5245C3.9645 23.1292 4.33851 23.7355 4.9431 23.8786C5.54769 24.0218 6.15391 23.6479 6.29712 23.0432L6.78717 20.9744C6.8673 20.6362 7.16936 20.3974 7.51696 20.3974H22.4832C22.8307 20.3974 23.1329 20.6362 23.2129 20.9744L23.703 23.0432C23.8463 23.6479 24.4524 24.0218 25.0571 23.8787C25.6617 23.7355 26.0357 23.1292 25.8924 22.5247L25.479 20.779C25.3881 20.3954 25.6121 20.0111 25.9739 19.855C28.3424 18.833 30 16.4768 30 13.7335V11.7131C30 9.88464 28.5177 8.40234 26.6892 8.40234C24.8607 8.40234 23.3784 9.88464 23.3784 11.7131V12.4489C23.3784 13.5662 22.4725 14.4721 21.3552 14.4721H8.15324C7.30735 14.4721 6.62162 13.7864 6.62162 12.9404V11.7131C6.62162 9.88464 5.13932 8.40234 3.31082 8.40234Z" fill="#2258A8"/>
</svg>
