<svg width="26" height="26" viewBox="0 0 26 26" fill="none" xmlns="http://www.w3.org/2000/svg">
<path d="M24.2667 4.33332C24.5059 4.33332 24.7 4.13918 24.7 3.9V2.6H25.5667C25.8059 2.6 26 2.40586 26 2.16668V0.433316C26 0.194137 25.8059 0 25.5667 0H9.1H0.433316C0.194137 0 0 0.194137 0 0.433316V25.5666C0 25.8059 0.194137 26 0.433316 26H9.1H25.5667C25.8059 26 26 25.8059 26 25.5667V18.6333C26 18.3941 25.8059 18.2 25.5667 18.2H25.1334V16.9C25.1334 16.6608 24.9392 16.4667 24.7001 16.4667H9.53332V2.6H11.7V3.9C11.7 4.13918 11.8941 4.33332 12.1333 4.33332C12.3725 4.33332 12.5666 4.13918 12.5666 3.9V2.6H14.3V4.76668C14.3 5.00586 14.4941 5.2 14.7333 5.2C14.9721 5.2 15.1666 5.39454 15.1666 5.63332C15.1666 5.87209 14.9721 6.06663 14.7333 6.06663C12.4007 6.06663 10.8333 6.93718 10.8333 8.23332V9.1C10.8333 9.33918 11.0275 9.53332 11.2666 9.53332H12.1333V13.4333C12.1333 13.6725 12.3275 13.8666 12.5666 13.8666H16.9H19.9333H22.9666C23.2058 13.8666 23.4 13.6725 23.4 13.4333V9.53332H24.2666C24.5058 9.53332 24.6999 9.33918 24.6999 9.1V8.23332C24.6999 7.34977 23.9702 6.66463 22.7673 6.31754C22.8916 6.11823 22.9666 5.88509 22.9666 5.63332C22.9666 5.06914 22.6034 4.59245 22.0999 4.41304V2.6H23.8332V3.9C23.8333 4.13918 24.0275 4.33332 24.2667 4.33332ZM6.93332 13.4333H6.06663V14.3C6.06663 14.5392 5.8725 14.7333 5.63332 14.7333C5.39414 14.7333 5.2 14.5392 5.2 14.3V13C5.2 12.7608 5.39414 12.5667 5.63332 12.5667H6.93332C7.1725 12.5667 7.36663 12.7608 7.36663 13C7.36668 13.2392 7.17255 13.4333 6.93332 13.4333ZM24.2667 23.8333C24.2667 24.0725 24.0725 24.2666 23.8334 24.2666H10.8334C10.5942 24.2666 10.4001 24.0725 10.4001 23.8333V20.3666C10.4001 20.1275 10.5942 19.9333 10.8334 19.9333H23.8334C24.0725 19.9333 24.2667 20.1275 24.2667 20.3666V23.8333ZM24.2667 17.3333V18.2H9.53332V17.3333H24.2667ZM17.7667 8.66668H16.9C16.6608 8.66668 16.4667 8.86082 16.4667 9.1V13H13V9.1C13 8.86082 12.8059 8.66668 12.5667 8.66668H11.7V8.23337C11.7 7.60332 12.763 6.93337 14.7333 6.93337C15.2771 6.93337 15.749 6.98582 16.1512 7.07291C16.1534 7.07337 16.1551 7.0751 16.1573 7.0755C16.7665 7.20896 17.2415 7.43605 17.5127 7.70646C17.514 7.70778 17.5158 7.70951 17.517 7.71078C17.6185 7.81305 17.6886 7.92182 17.7285 8.03359C17.7333 8.04659 17.7372 8.05914 17.7406 8.07219C17.7558 8.12551 17.7666 8.17923 17.7666 8.23337V8.66668H17.7667ZM18.2 6.06668C18.184 6.06668 18.1705 6.07405 18.155 6.07577C18.028 6.07014 17.8993 6.06668 17.7667 6.06668C17.2298 6.06668 16.728 6.11868 16.2656 6.21187C16.1546 6.18932 16.0411 6.16855 15.9241 6.15118C15.9935 5.99214 16.0329 5.8175 16.0329 5.63337C16.0334 5.06919 15.6698 4.5925 15.1667 4.41309V2.6H17.7667V4.76668C17.7667 5.00586 17.9608 5.2 18.2 5.2C18.4388 5.2 18.6333 5.39454 18.6333 5.63332C18.6333 5.87209 18.4388 6.06668 18.2 6.06668ZM19.364 6.20146C19.4485 6.02855 19.5 5.83746 19.5 5.63337C19.5 5.06919 19.1369 4.5925 18.6333 4.41309V2.6H21.2333V4.76668C21.2333 5.00586 21.4275 5.2 21.6666 5.2C21.9054 5.2 22.0999 5.39454 22.0999 5.63332C22.0999 5.87209 21.9054 6.06663 21.6666 6.06663C21.6124 6.06663 21.5613 6.07918 21.5137 6.09741C21.2845 6.07836 21.0474 6.06663 20.8 6.06663C20.287 6.06668 19.809 6.1165 19.364 6.20146ZM23.8333 8.23332V8.66663H22.9666C22.7275 8.66663 22.5333 8.86077 22.5333 9.09995V13H20.3666V9.53332H21.2333C21.4725 9.53332 21.6666 9.33918 21.6666 9.1V8.23332C21.6666 8.11804 21.6502 8.008 21.6259 7.89963C21.622 7.88186 21.6181 7.86454 21.6138 7.84718C21.5232 7.50095 21.3105 7.19327 20.9928 6.93585C22.8388 6.97795 23.8333 7.62404 23.8333 8.23332ZM9.53332 1.73332V0.866684H25.1333V1.73337L9.53332 1.73332Z" fill="#2258A8"/>
<path d="M11.2667 20.8008V23.4008H23.4V20.8008H11.2667ZM18.6334 22.1008H17.7667V22.5341C17.7667 22.7733 17.5725 22.9674 17.3334 22.9674C17.0942 22.9674 16.9 22.7733 16.9 22.5341V22.1008H16.0334C15.7942 22.1008 15.6 21.9066 15.6 21.6675C15.6 21.4283 15.7942 21.2341 16.0334 21.2341H18.6334C18.8725 21.2341 19.0667 21.4283 19.0667 21.6675C19.0667 21.9066 18.8726 22.1008 18.6334 22.1008Z" fill="#2258A8"/>
</svg>
