<svg width="46" height="45" viewBox="0 0 46 45" fill="none" xmlns="http://www.w3.org/2000/svg">
<path d="M16.6871 9.84375C11.473 9.84375 7.03088 13.7424 7.03088 18.8059C7.03088 22.2989 8.66653 25.2397 10.8343 27.6758C12.9946 30.1035 15.7818 32.1413 18.3015 33.8468L22.6489 36.7895C23.125 37.1118 23.7493 37.1118 24.2254 36.7895L28.5728 33.8468C31.0925 32.1413 33.8796 30.1035 36.04 27.6758C38.2077 25.2397 39.8434 22.2989 39.8434 18.8059C39.8434 13.7424 35.4012 9.84375 30.1871 9.84375C27.4994 9.84375 25.1343 11.104 23.4371 12.7347C21.74 11.104 19.3749 9.84375 16.6871 9.84375Z" fill="#BAD6FF"/>
<path d="M18.4956 13.7812C14.9036 13.7812 11.8435 16.467 11.8435 19.9552C11.8435 22.3615 12.9703 24.3874 14.4636 26.0655C15.9519 27.738 17.8719 29.1418 19.6077 30.3167L22.6026 32.3439C22.9305 32.5659 23.3606 32.5659 23.6886 32.3439L26.6835 30.3167C28.4193 29.1418 30.3393 27.738 31.8275 26.0655C33.3209 24.3874 34.4477 22.3615 34.4477 19.9552C34.4477 16.467 31.3875 13.7812 27.7956 13.7812C25.944 13.7812 24.3148 14.6494 23.1456 15.7728C21.9764 14.6494 20.3472 13.7812 18.4956 13.7812Z" fill="#2258A8"/>
</svg>
