<svg width="18" height="18" viewBox="0 0 18 18" fill="none" xmlns="http://www.w3.org/2000/svg">
<path fill-rule="evenodd" clip-rule="evenodd" d="M10.0151 6.5625H3C2.68934 6.5625 2.4375 6.31066 2.4375 6C2.4375 5.68934 2.68934 5.4375 3 5.4375H10.0151C10.26 4.57181 11.0559 3.9375 12 3.9375C12.9441 3.9375 13.74 4.57181 13.9849 5.4375H15C15.3107 5.4375 15.5625 5.68934 15.5625 6C15.5625 6.31066 15.3107 6.5625 15 6.5625H13.9849C13.74 7.42819 12.9441 8.0625 12 8.0625C11.0559 8.0625 10.26 7.42819 10.0151 6.5625ZM11.0625 6C11.0625 5.48223 11.4822 5.0625 12 5.0625C12.5178 5.0625 12.9375 5.48223 12.9375 6C12.9375 6.51777 12.5178 6.9375 12 6.9375C11.4822 6.9375 11.0625 6.51777 11.0625 6Z" fill="black"/>
<path fill-rule="evenodd" clip-rule="evenodd" d="M7.98486 12.5625H15C15.3107 12.5625 15.5625 12.3107 15.5625 12C15.5625 11.6893 15.3107 11.4375 15 11.4375H7.98486C7.74002 10.5718 6.94408 9.9375 6 9.9375C5.05592 9.9375 4.25999 10.5718 4.01514 11.4375H3C2.68934 11.4375 2.4375 11.6893 2.4375 12C2.4375 12.3107 2.68934 12.5625 3 12.5625H4.01514C4.25999 13.4282 5.05592 14.0625 6 14.0625C6.94408 14.0625 7.74002 13.4282 7.98486 12.5625ZM5.0625 12C5.0625 11.4822 5.48223 11.0625 6 11.0625C6.51777 11.0625 6.9375 11.4822 6.9375 12C6.9375 12.5178 6.51777 12.9375 6 12.9375C5.48223 12.9375 5.0625 12.5178 5.0625 12Z" fill="black"/>
</svg>
